<mxfile host="app.diagrams.net" agent="Mozilla/5.0 (Macintosh; Intel Mac OS X 10_15_7) AppleWebKit/537.36 (KHTML, like Gecko) Chrome/133.0.0.0 Safari/537.36" version="26.0.16">
  <diagram name="Page-1" id="8oqj663c_M7d4Opo5_RA">
    <mxGraphModel dx="1440" dy="2120" grid="1" gridSize="10" guides="1" tooltips="1" connect="1" arrows="1" fold="1" page="1" pageScale="1" pageWidth="827" pageHeight="1169" math="0" shadow="0">
      <root>
        <mxCell id="0" />
        <mxCell id="1" parent="0" />
        <mxCell id="SMO6J86sen-1DYdxAcpB-5" style="edgeStyle=orthogonalEdgeStyle;rounded=0;orthogonalLoop=1;jettySize=auto;html=1;entryX=0.5;entryY=1;entryDx=0;entryDy=0;curved=1;sketch=1;curveFitting=1;jiggle=2;fillColor=#dae8fc;strokeColor=#6c8ebf;exitX=0.25;exitY=0;exitDx=0;exitDy=0;" edge="1" parent="1" source="SMO6J86sen-1DYdxAcpB-1" target="SMO6J86sen-1DYdxAcpB-4">
          <mxGeometry relative="1" as="geometry" />
        </mxCell>
        <mxCell id="SMO6J86sen-1DYdxAcpB-7" style="edgeStyle=orthogonalEdgeStyle;rounded=0;orthogonalLoop=1;jettySize=auto;html=1;entryX=0.5;entryY=1;entryDx=0;entryDy=0;curved=1;sketch=1;curveFitting=1;jiggle=2;fillColor=#dae8fc;strokeColor=#6c8ebf;exitX=1;exitY=0.25;exitDx=0;exitDy=0;" edge="1" parent="1" source="SMO6J86sen-1DYdxAcpB-1" target="SMO6J86sen-1DYdxAcpB-6">
          <mxGeometry relative="1" as="geometry" />
        </mxCell>
        <mxCell id="SMO6J86sen-1DYdxAcpB-1" value="&lt;div&gt;Module #1&lt;/div&gt;Week 01" style="rounded=1;whiteSpace=wrap;html=1;glass=0;shadow=1;sketch=1;curveFitting=1;jiggle=2;fillColor=#dae8fc;strokeColor=#6c8ebf;fillStyle=solid;fontStyle=1" vertex="1" parent="1">
          <mxGeometry x="329" y="-20" width="120" height="60" as="geometry" />
        </mxCell>
        <mxCell id="SMO6J86sen-1DYdxAcpB-4" value="What it means to be &quot;Industry Ready&quot;?" style="text;html=1;align=left;verticalAlign=middle;whiteSpace=wrap;rounded=0;" vertex="1" parent="1">
          <mxGeometry x="43" y="-130" width="220" height="30" as="geometry" />
        </mxCell>
        <mxCell id="SMO6J86sen-1DYdxAcpB-6" value="How do I interface better with my workstation?" style="text;html=1;align=left;verticalAlign=middle;whiteSpace=wrap;rounded=0;" vertex="1" parent="1">
          <mxGeometry x="415" y="-150" width="190" height="20" as="geometry" />
        </mxCell>
        <mxCell id="SMO6J86sen-1DYdxAcpB-8" style="edgeStyle=orthogonalEdgeStyle;rounded=0;orthogonalLoop=1;jettySize=auto;html=1;entryX=1;entryY=0.5;entryDx=0;entryDy=0;curved=1;sketch=1;curveFitting=1;jiggle=2;fillColor=#dae8fc;strokeColor=#6c8ebf;" edge="1" parent="1" source="SMO6J86sen-1DYdxAcpB-14" target="SMO6J86sen-1DYdxAcpB-11">
          <mxGeometry relative="1" as="geometry" />
        </mxCell>
        <mxCell id="SMO6J86sen-1DYdxAcpB-9" style="edgeStyle=orthogonalEdgeStyle;rounded=0;orthogonalLoop=1;jettySize=auto;html=1;entryX=0;entryY=0.5;entryDx=0;entryDy=0;curved=1;sketch=1;curveFitting=1;jiggle=2;fillColor=#dae8fc;strokeColor=#6c8ebf;exitX=1;exitY=0.25;exitDx=0;exitDy=0;" edge="1" parent="1" source="SMO6J86sen-1DYdxAcpB-14" target="SMO6J86sen-1DYdxAcpB-12">
          <mxGeometry relative="1" as="geometry" />
        </mxCell>
        <mxCell id="SMO6J86sen-1DYdxAcpB-11" value="Developer of over 5+ years" style="text;html=1;align=right;verticalAlign=middle;whiteSpace=wrap;rounded=0;" vertex="1" parent="1">
          <mxGeometry x="83" y="-1120" width="160" height="30" as="geometry" />
        </mxCell>
        <mxCell id="SMO6J86sen-1DYdxAcpB-12" value="Mobile Developer with GoNuclei [2020-22]" style="text;html=1;align=left;verticalAlign=middle;whiteSpace=wrap;rounded=0;" vertex="1" parent="1">
          <mxGeometry x="524" y="-1120" width="131" height="20" as="geometry" />
        </mxCell>
        <mxCell id="SMO6J86sen-1DYdxAcpB-16" style="edgeStyle=orthogonalEdgeStyle;rounded=0;orthogonalLoop=1;jettySize=auto;html=1;sketch=1;curveFitting=1;jiggle=2;curved=1;fillColor=#dae8fc;strokeColor=#6c8ebf;" edge="1" parent="1" source="SMO6J86sen-1DYdxAcpB-14" target="SMO6J86sen-1DYdxAcpB-15">
          <mxGeometry relative="1" as="geometry" />
        </mxCell>
        <mxCell id="SMO6J86sen-1DYdxAcpB-14" value="" style="shape=image;verticalLabelPosition=bottom;labelBackgroundColor=default;verticalAlign=top;aspect=fixed;imageAspect=0;image=data:image/jpeg,/9j/4AAQSkZJRgABAQAAAQABAAD/2wBDAAMCAgMCAgMDAwMEAwMEBQgFBQQEBQoHBwYIDAoMDAsKCwsNDhIQDQ4RDgsLEBYQERMUFRUVDA8XGBYUGBIUFRT/2wBDAQMEBAUEBQkFBQkUDQsNFBQUFBQUFBQUFBQUFBQUFBQUFBQUFBQUFBQUFBQUFBQUFBQUFBQUFBQUFBQUFBQUFBT/wgARCAJYAlgDASIAAhEBAxEB/8QAHAAAAAcBAQAAAAAAAAAAAAAAAAECAwQFBgcI/8QAGwEAAgMBAQEAAAAAAAAAAAAAAgMAAQQFBgf/2gAMAwEAAhADEAAAAdcl4ve/M2ESEEthD7ZqaS8kgjh5JLjsTGmZ4KJaG4IpOtsSRAXEkopaQZSyI02QI0ywAUsEabsEZSyAKWCMXYWRDCQZERACWRKTdkZplgASAApDICWRkLsAC4RkJADKQyAkUttwRJDzMsEAVgAVYIxKIKFRIMS+mk8ngehZJ1BC03IQa2CeQSmkvNkLbb6SXHbkIYiI3MbZlrymNtxxkvtEpJKK6SSiskpWUtJKK7SSihElZXEksS0LUmoGlFZJBi7SSylpChIklCWkllcQFCWkllLSFC4gLEtAWUiQsSICxIhRiQkrEiDWUiAsSINRyNhZSJChJ1EnC856tpDp2MdExqxjodSamUSGyUyTiTU0h5BrYS+2amW30szxGpbJ44pOIbkSShdpSorskrKWklFCSl0XCIhLJCiIiJQlpJRSEShLSSilkDKQAylkDEiSULsiUUgIxcIGJZAxKIKKQgYkIGJCBiQgZyJBiQjByEFCp1InC8z7Jo3iltMvNmtpDyTUyh9BAyh5JrYQ+g0soeQSmEupYpliS2zLDalNN57BKI0kSiuJJRWSSUJZkEDAlpkdEsoiKZOKHOxdJBORhY6UZe7nPBSdOQiUJaTMSJMCRIM5aQZyJJQuJMxIkKK7AByiBnUSFHcQFiRBhVRAULiTMDEhQk6sp5PlfeNtuNkttDyTWyTqTBpD6SGOl5BLaQ8ggjoktGiOl5DUMsyWjQw3IQ3LEZmtsyRA62eciUV0mEzQcf0cwo7Pk/e3y8s7l36eww93TLqvfoaLXv4OxutfTUloQG1YWfS4+blzoHZ88ZMp7fnpAMbMJBQkSFCRJLKQgo6iA6mRAULiQoSEDEogYlkSjlJCikSDEsgYk7A2+jyP0JhLqSWyTyTFknUkLKXkkthEhBAwh9BrYQ+2So7clpiGG30MRFTIbbmYS+g0QyfoxWdXAgeV9xIhtw+J6ibGlRKYFQrO45DRLl2rc2yqUr8ugu9JYUsiUw5QQJWwlYezk0CaGzJVkMrK6nE0D4gdbi2ZQp/o/HpC1sU3dTdhy/RU9fu1cn0nN6Lq2M6fAyYeb7HmEgCWABIABIABIABIQMSdkTbwPF/ToqJCWIjokoMY5PJJbBPEQx0yXLqvRLZNMZuS21MdElolMNyUGqKiSwxDDdbnsmu2ycio8161qdVyMPWOMiHLt0Arls5XQJOiZ46urs42dk2NvZZp6WubVR5WiqmpVSRY5BUnRo9RblM5S6mUNZvYVDNy+jVUTp8Hbrq7D3fzDT6bmd3z+/t1ZGRh7egysjPa+VGaUnseVQFCySZiQgYkSDEiQoS0hQk9NRbBPy/7dmK3Xw9/OzJX8HTkq0yUvzxrSVf498WVYFy+tnIOob0Z8VX71vXi5wxtqvo8nNN2mDfkscNVHwu7OiRI/M7DsannQ3ShvXJFO9LkQdvHuUElwVJQbrJJi4s26dYfgS50dhMmlRSlKWhddJciOuq21/ze4u2ivkSVq79qVndbFi+t+fWoUn0fjTmQjhyohlBSSgdESikSDF2RKEtJmcgcK/S7PDQAT72sz+Z/a0hQq2mJaSGtdlmYLcaUlq0mKuJDmw3JiOxE6c9yiLmkv5bzE056eRTPUyzp1x5cewrl3GFwDKTIy6+DflVty7EqZypOYjrurR6sVLt4EORJbNJky61EZEF2dGOSZJgsDdtcUOjlXiKx8iStiLK1RUGktewZr+l93z3LC3OO9T4CMSi1c1IMrsAHIkGLhAxIQULgs6xazuRThbvSyXWvmf21ZsJupCY53HEk3KcNg7qW5EcA3o7rFyrjy4uvIXOug85lcMrJdLz3OoRFI7iGbcNbLCZG2hGunhHBDKNs6tQSUiXWHJRLYekdsID8udXtCW84UuVEkNR5JLjcurmW1PJlvhy+lUxnYXdPfnDodnc4awIO44aXN9J5nBCRH9V81IlAgIlCRIMXZAxIRmJQMjqEDEr020Gvl/3lMc2GpWqMDCUIzlW4SGpcpyDIG5SUACjw5sVyouU11G1Pl6h1Wc52mkasYBG49EchGyQkbjzDkiHYty45vHJHRJEphmZEujkNyJHGJAlsOPLlNqsVS6pU+HI65HflvTYT1SdZZd+poLHOXFzRUZZWDubain3Wk6JxbS7+doc5Y1vt/lyQo9XMQHTq2QsrAiUdxIUKiQoSJChc9Ct1JfPftNg0w5dNrQDqW9EkoebL5CbUgliSgYC2WJEcxiefu++aIGNQdTkbPr3HbOvTJbu4612YNiW7rydTFZp3hPJz9rNEsM/uUrbgqjq0U18pR0ipcnHP3cQ1VT6zYm2hpF1FjORZT6GWJUxMREqbPp5Eu6tsvZ1eiqbRdxqyjzZQer50Xf2dfa+8+XNmZ7eaTiTomGpjZ54ZvoZlbNaLAgYuiChVdkIx4n7CqbXvLbZRwtGmLJQ9KdCFKcp1bymtqfNbK6LPhOTCwXQKp+fyvnNZncGmrlMuwyYjOXdpoq/b4unT2WgnZd9XYzV0yKmxbqQET2qkNmwZlQI9kUlLWalk14LOdPoNGXDi6h6cdU3bqg59rTx7rOrebbnUailLsYE2ruZtBPuTr3Puyrpyun0Gqtam/wDcfN4gdPfyUBQltpcSSkpdTYsolJJMcpAJUYSRB62Si8Z9bIjEo3mFCUpUU1Ns5FVNz6rFcd7LqfIEJw4lg0xdbndjUuT5Dq7isysjB1UPPXDGqF2tu3JvK7sd9awcHycIVNyWyqEzKYG2G5DVSMDcqm0SG6uJBtY8ChgaWGxVCzdMkumi3rJDiqfa53Xhr0Soz8wejtkFkxHXI5Nhyqq81GRt6rp+mze29H53Nt3jPV4NKm0Y0c6vDwdkZJ4WDKnCkQHRI2HRV9RJ5vyX0lBLK6IGLogBUddjhTrKVTyM+m4VAfz6n2m2ZCinGcjzTjOu8gztdTIp6YW+591/Ps0j6V83sktBy1uNLuOhDdwMmVRtDrNSOtLoWhpxMppl5qxjx5MWwjMyGjU0S1EMXO64EvnlNvszrw5sPt6cpKM7jk2E5Q21zU6Og6VuGJPe47LclOjNXVlnV9DhNE4NXObNaqjYcORoPCW0HRK6gy6jyn0JCXEktBKSQgAXSSUVQlIK5Lergtk8oB0VhHjlV8q4v6D8849YqZUVGnR9jyux5vXNZOZ9jS3HbJp1b5VCZmMUUYLSNttOokaWpQyM1KKSKzKZqokOwjEuDHmssS2sKICNapVPj9ph9GOmbfa24mXCRYyXmnqq565zD0Hv504NtdjkPMx2X5DiPp1c9gOkaG1KOUgKORBqVVoDgl9GIy8x7lKVpIUEsrFJKFxJKKClKiKkpUVilK03SCWmVnfNfp7zBg31S29Fg6XX5CKbldfSV2dqnV0B/m8I66y9ymzpnRmsfYKbeNQXlPfZWgbM0C4tBxqgYJFCTSkWDDb7RpjomsmCFKcoajEdExr0ZCI8z0Oa+pKpTjjRyb30Px3tPT5kWruofT5NUT6dvKacWsTioeSxLQdBA0dpOz686d4zcqhKBo3JKLzvsEkopREYKkktN0lKyumworFBLTYpStJAlKyKoHmb0z5z5XbyW5hajndHS5/RVuLXHaeqzZS5vQVmnLQt2MB2eVfZmxE9tY5G1ybdk/WS821ZRolSTDpql2fSwctW6Mu4bwLLc/QmcLLlbWxxChLpqcjqM7lU9xGGcpqNxiulzlNoU1E60qO6mrbaRsdXn2B174nGi3kw146Prs9s5cASk6MTCn3qOZfRrni+mgxLatW2rChu510AWLaABKSRkQERlcSSk2JEZWIQoXEEtNgklEVZ/gPe+FcT015ZUOu5+2ZU21bn1Zmlv8zrzWDXaOfvzcoY0FQ3Oi9ZiI0aqzp9Hk32K5jaNNVFkwIFBVXMDTlpWLWk0ZmzbQ7PPfr7sDXNdnpfU3gjUOpVHmILIc26ZzbdijuJ1Dl6H0ZxDuu7E7Fdh7cT9g3ZKcl1xOfUxBmE1NVA0EDZz4V4V5m0k8aOf1GKexo9eSAGh0+LrkmXL7BEoiEgZSkgxdJS4JTRPIumyWkhSSisUpWV1S8W71x3ld3H9K510nmdM40trNvq4l1VtXpc9WuMDlY29c/JNXTzquwtph59d1ID+fTmM/oszE0sOfB15aV1W+fnzdV03jbUO2UjpA1y6U7FXo0T9ZZ53WFnUXK6xeF3NBtxO2+tyuXqWPdOC9y73m3JrF1u50x+OWDpOoQkqU407ccSyxVWTtCwYX8egaYmfXR2NvOeEUaMm7CD43fUlRy0BR1GzcTdPOJeTojRpzZhCTKI0xCdbYpJKKxTzXpePz6+TbfJbHgekkJlPZN0Cu0EdsxtbumGL59C6THYvFXls9KiOOvZ9NkU2uQzO0F1QOyRoFrB0Z6bVUcrQm+zT5A1d5TmNth+RQR5T1wDI1mha5g6+U3pz67MXWfz79d2LJb30flYUs3dOV5xtCXkuIpi564Li2rq7GOxVaJxPzVca1hPy17ctb8UAWYg6pTB8j0UxyIpbX1RzlyEtKqPyIJgyecIwJ8oySFyOTbUhJExR53Q5xTOR7rHbLzfqp7rMnNtJE0zlTA0kYpRLnNXYi2NYa4d1X36TVTXFKJZ7N6WlZlhpkBqquVMcMayPplQ8q9pFyUU/Vau6x7mipguoak1Yqwc2DYaFzyk6aF0a0YL0flnjioIZbcVRhIUh4TbNxQkzFt68hiodS7M2t1yrYcdKrIEJLBRHn1KU2obcU0ujUpAoloJqU6IjJrmtwmjVObgNtTZFWrILXEafEcjuUWkz1twvQ38ivfz7LiwzlnpWdc/Vy1x0VoHZQ6exsbS1h2iyjUV1n6lVU3MI89WUxDFtSCfopUxqYp6JSnwOa9ANyxEkMiELJ7LnjsVVsn1sOp6niOudPkIKQ50ebWpsmzXDedOo26hMKUcIquygsxyBKEFqwuKYEkhLIlOCODVowgYOos2hLfVHFXIEc6t9DYkCFJIEIcSYMofIgjqeFxOF3lNi34RTlfwvQXbtU9i6NmK5Qunx4cUo7TsMMVqNA3ZWarSrvIOboraoC4sOY3aKuLeVLQasM1PE9bMorFD55wiq5QjJsZyIIJT/Ot9gdWDY2y5FaHNnkrv0/j7J2qddns0wECc0V5MXYtRCgvNhJghpxDc6TMiolNvSjQ8YMbDoo7MqgJK4FOJduVUJLUVJyWx1B1dqKspdoVaKuyKuFyeK4XViK05LDknTOYc7pNv0k7z3q7VyGpOh6ucp7samFpWjBsl5wr2VhjFKZIhxEhbzVdXmjQ1lK8wah2bX2Nxf4u4U3RHWGtlixXNGuxFS0aLvI2+b0Y+zMUMxWq4vauZ7b55LVFM1STinLkBkVHlR1XHgyKt4mikWltJgs2GzVNKvTY2QpQrVmlz29Pjo63HhZGYlRIDxsqFjjjbwOCZJi+EUlMCBHmRmZEuhqwSaXCWzSaety9WteS14r7DcutyUbItDb81fm6Lf8euXp6XjqymMLm65e9J0ODlYCXaNjKDTj6Dec70KNGlq6qGptxLoLwGT3GG1sfZZZNbjcWWxBzajd9/xVPJnxOt5Z0mk6ue+iMZqkFCburIVqbGyKrKythUmUsyrBJaorkXLRFcmSzKuO6lCGEbuoOzEcvtQY945Lzrt6iqrHLJQvgHLZWcWLcmMpDuxJQC+KDnoejatWbd0UUqiRX+sI6nmKZJjcH2tpNrLHJv51i9lQdHmStLEBXKRE0NXm6vobNFz+HtWYOELQSWZqFzQgTzkPSUZVF3XO9UB7VpbvP6ECHIrmKkSmGGotddWafteJpm7p5mClRpG3LzKbUEiqenKKq+LeqYvLjROty5hWibenPldES6gXaiGiXZu1dM3qE0eXGiAzvEWXG839PWuQ7RQG5FMQSJ1PbSpEVcQDkMxRKnoayNFa1OasEJu40GFcu93AcY/iu+xua0jvOV9H5Fh37WfUXHM62Zdl2rQWzexbdm59m44rmXlEjLR3Pqpc087CtT+au01WHe2bVL53c2ZmFyaY+TVVugnoVbZ30Dpx2vJfQmG187LPZ2+vGbuhurrnK98yYYct0qx5+XQZInyx/o6wLnCujRCrDt7mNLxzmoRKzQ0gAqBd8aHUw0QFuiiXzuk4MxTsZn6LcRyVl591W1IqaynIdDnKhLAY6LhOtAyq3WA1SW1nK+i+eNGf0fWZi0VpyfGu8cH0IlIY6PdZbW4DQ8Tuy7zLbJb1yYS0aVCLA0SYKcXpuk0Qku2KyQCEOhtaBDdaoYTKkGDsZ6PJFjPlpyaHvvFtg1XTG+K3GzFa8+1XO3I6ZseSW9V2A6XRo11wsmrGMSjkabnPCVSdu2ple7YKkqhcCSkRegbpBcpAqsXIksElE0Kcw+FQ5MxWaoGJ6LQ4CIVdEYxEwq0Kqt2FZdS45qBLoWiwlyh1V589K8fYFhuvP3YxuLyefUPTM6dz/ZScyuc+vJq1G55vvcHSvlPSMnQqsF1bKNTzFs63Zzp9pm7Cj1EyNd4d0cpMcLYCq4wS1BrHZ7WPTvuTJ1dbeqdntVVdx15OQq7mvTk8xP9lUwM70Tnd2F6HOdLlJPKSGsslu7tOYuZdPS3aW2x7TabJZylNHI4ba5HQ0bVrKOY28GwNxMnbYnq86igsQunhjR5nZgLEcw9m5BZ+RHLaHqzsLjutXL1WNjSdSe5tUId1SJy2HLnaDBdHgUCDW4Ly/q1AWMvoFsl1Lsaqtwb+wS+f3WXfsa+lWDa+i0CLDPzpL1RyZFfSxUU4VjW1TlNrxR45J1ZRpWrLNrkTICEu3nXOX3e7n7RXHGdOfY12AvzCx6vj9GJa/P1fPBq5lbu9usTYaG2GZ+hteeqPX2GOlcnp61ymn4N04lEVMGiVYtszmrqKFAbxmI3XGvS8LGdL5f1Hdl6zEsstl1dXxx82EttyLsHMjXg7qdQvS/IqGrq5rmtFJgIPacLJletXBrOsydps7mSy/p/iMrHtaSiBmhw+pseR2sJfZ6JpybR/KhTtQM4BPSP5WWN3a8wJWgrKircixqTsmpj365OXaaiSpzmbt4enJ0nofK5G3B0Gn5zmdCNljoMdi+u67klQstb3TCbkGaO6olpY9zSdUNVC6zOpxu9rcHIlU+Z6Rl0nc7byoxi1+t3PPfRcO3dP1djl0KDwOsDwp/H+x8woBlgendFxbquPbp/O3onKjfN89UUr8/UJ1JeUceM/Okz1fqLC65HP1OAg+hD5v0BbbmJP14Hy7Geh+TkNxy7W59Teb7bnG853UmZ7QpU/ntb0OBpyc/RtYbFZt23iEDKZE6io5tq+tjEwnM+lw0ASU2mEYUlbX2nV43TZ8GWxVTmNBmdKENS491N0VH2wDtbagoEO0eR51v3I6Bv8lpUaH8HDg1L7J43W6M9TLvM6aXcvs49TnMbc5zO97svAYWHb7MHncczoc9h7PKes88wkNXLTtPBZqmentDyfoeXVxLF9Iq3o51a6HIsDQaLlb8nZ7Xh1wB6qsX1oD862PUsYxfUN7weSlvobP4jZrZoub9Jy2d/jnb1lODulOVU3B0n6qyEmdiX8Fi6dFo2QwHZKJEuB4bJaWxs0ki6GYssjpyRdNnNV1ORu3HIMuFltlh3qkQpMOVed+89dWA9JxV6nqaLt+W3QGKSfzwT0WLsMO/PqrvAS2q09/nJoyRKJiU9BmvQc1Tal4D5oOkBLKS3r8o4o1P0KmKsq4wRD1pcTGIdrLDl2lsdZAUQGzFuLo65vQ9mqyGz23MuhJdc67PatTOeRN9pJPIszrGZem3scTlM78tidBRJfu7XGaTF0LM4ZLbPRXtyWB1Qq58RhFi8bKrFZApG4rucYuNQS4XQ5c3X5ba6smwqNBnZc7ne9wrVobcBVMl11zKj9Hb0+dxToOaA3Z+ZqmBVrhPas8hcddjMsaNy61V7zhQ308Yy/U26zr22qqAMhZRZeY0JMzFF0ulusbndIkgmWmN6EJ4qk7XhpKLccvVY9WsubbIDtUv62i4DbdQ5mS/RFnw+8Ro7vIoZqW5nW5vT3Mlxb0PhRvxzKv8MYa3Q0eowdMiWwp62kFKMIOrCQm6WbQlONtUhgdEIW7nouc30nRly+tzupejZU15GE4eF1WeYutcS6QqeakSZfWY5aT3V/yt4S1tVn5rV2DJPHWlqulSVNxtN6Gx8nLEMLcqVospFk3nWeaWOZ3YhVDM/wAu387I78nXXuWdIWyuzmqrJMnqqqluuuUKlgeYye6jEHPV6mvYG36xhKVD+q7jLadTuODucax4/G1nAnK9ObHzztkO6Hz+/wAGlvJeO9Y5O5E7q3HtIp/UayYOZ2KRqZGIGScbIUJWRUhEhmDUVdw1ozUlNMg68J9h5N3Uw5xoqe50I3DMiKtmWgv3LAwTi0EBSmdZU5XJYsgt9M9xlRJ8vTyYix1NuB7Pd816Tm03+bscAJecLq62ejPx6Gqe1Vl1vjvWksyQrgs+iVYDJhK0A1aq2ABlbRASIaAKpFoAMjRACq914AHZ7gBTdosBDs9kQGrj1ABjW80Ag12CAqMWAFjM34GToTWwOf0lACWpYFwq0CwpseB0eXSEA/NO74AQ4BYGlHRnwFli9OAVcwtQJOixwFM41tQDXoq4ApHqQJSuygLZoOpAZ9EjzeAQ5rcAOXxFsB+e47GBl03YAEv/xAAwEAABBAIBBAEDBAICAwEBAAABAAIDBAUREhATFCEGICIxFSMwMkBBM1AWJDQlNf/aAAgBAQABBQL39Hte+nte+hTtr2tlbK2VsrZWytlbK2VsrZWytlbK2VtbK2VsrZWytlbK2tlbWyuRWytlbK2VsrZWytlbK2VsrZWytlbK2VsrZWytlbK2V7W1yKLiVsrZWytlbK2VsrZ6aWlpELXTS0tLSIXFcEWoj/E10P8Ak6/wdIhaWumumlpELSLVr/r9rfXX8Glr6SOmvp0itLii1H+fXTf/AE2uuumlrqfp0tIrS0i1EIj+X/S3/wBYAtbRatdNLX0aWkergiEf4tIjof8AqtdeKKPtaWumlrprpr6HIhEIj+H8f9fxWto+z9GumlpEdddCtIhH+IyNCMzAvKjXlRry2prppj4UhRoTAGCw1F8saZM1/wD0WlxW0fyfp0j1IRH1FOaiPX1TWGxKW1I9MaCu3XAil5oiKMtyMJTr0LGjIKvbZx8vmWXGvbLCyw7xLDAG2Ce/xd+f87XQ/wAOupRCPQohEIootRH0WrQjG9p7uS7mi15cjbXmOca42hTjkVmAVZWSuX6g5sbbC9xxMmc5sc7Y08NtPfjpI3PE8AZO1/8AFpcCtLX85CK0tLS1110100iOmkQiOhHXSIRCIU1tkKNmSdOc0OksqKTbO9zIl5vhhNhznCJjLDnOZJtnbMidX5RRsirtf6Uk0cdGS22NfqEbWjMxxJmd5r9S8h8dJ1gOrTwN/fCM/EtId9IG1Wol5GOBEmI9uxWlLCY3fzaWuulpa66WlpaWuhCIWlpELS0itK3a0nnSM73IsIXHuF2o2yQktALUxv7bw4uioPL/AByYouPYmI4xRufI+UtDpO8jBJI6SCR6gg5vloO3401dCSyxT25Y3wZJ+4sg2RthvF0FkSdNIM2adIbhgATWhOYFKwayEYXFa/k0tLS0tLS0tLS0tLS0tIhELSIWlpaRCIR9K3dAEsulPPpQRjszzne9INa5ac50ELI13GiTtsanTFz5Lm4IZ+wZn9wiQRO7peatrsqW/ovheXBzabqeSD3xxGQ22cZLPdTvtdDNIFBY7gkhrPFe1shB2jUthMs+vJXlbT5ti+/0j/JLW0jGQtLS0tIhaWlpcdrxnpzC1ELS0tLS0tIhOIap8ixinsSzBp+7nzlkbyla708t5TScT3BXaT981trW9/bpb/M9zg6aU8mP5u7yjn/ck2XNk+6k4tntba9/J4rSEGveLZTkuSe+awq7YGMlstke6RsimrtZGIuIqT92NA6UNr0LO0JE+bSnl7h/lMe06BWIdLXXS10rVe4mUWheONTUg5HGhS40hPpvanMLUR1uX46wsZB9hznEJz9jvFh7rRJ3XPEH/KxvCGGMyvs7kmI0ZvbvwJm8WmxuwW8zvSZrX4DZNiv/AMneY6S4/wAmHi5shO3TOdEq1t8axk3FPr1+3ZgstsGJ0ogrRudbaZFjZuEvXaZYIT5i4fxgLgSi3XTSki5LxAn00+qQnRlqbGXGKhtQwcFpFFFHSdEHKejzRxhVuv4rb2ajjbPIXu9cO+4l0ylnJe/2oZdHl78h3bEgAiawSOaGy9oSu9ds2e60P5TNm4Rye465Dk5+3xEhMfze+TQbOnWOcjN8n2Buu1j7HfLH+U6R3lScGWwopIlJHFI40opGQzFj+J/wAoGjhPACNLS0tItRZtGuCo64CDddSnJxRemP2gn6aPlua79niObXhf2UTuA7nclLCJefIc+DZpNsjf8AYN8hY0+ex7ZPwXca2Dn9kUn3F/7Ym+6ORsYY/uSN9xMi4KR/3Om0Jt8y/myPWu4A2M8nRTGsYJ3SqZkQAGmxWzGobQcZADLinMuR28e6Iluv5goZtKSb19J67XJbRTgntTkCmyL5FkPEoPlLpZiGJ0m3CfQfL6qgFxeRZLtmV20122hwjiDtnnxRftb2Xn1y9RDS56bGe2nu2hLwijaeNuZsUW0PudN/ZjUDpPf7Ztj3gOfHcjKd23psTZTO1Y9wZJ99qSGPxFA5mQrW8eNSwmJ385W1yW1tbW1tcltB3V6kHTa+Yv8A/Xn+18svsO0uSZ97fcbi4bcdCQrloOf7DvZK/KjYne0fyXHRd6BW9Fjg1GwUZffLkmDihtyH2jXNNrtUemqGRpZLTax8LntW2lB5aXvew0Z5ZEH8Dhsk6pZl09mQi/wNLXTkuS5La302gUCtpykRRXzFpNSdx5yHb3uCD0Hbjc9b2nH08+trf0D0ih7R9L8kL8LgSnHaGttQHFrnBoBO2hMj9vJYYnfcHDcdsRRSSRzrGtruFvHeQ8QSwtqWZWNe58hwlt8jLkWxLHwd/OUSiVtclyW+m1yQK2iU8Ir/AH8ireTRn3CZm8Sd8juNRP01598l+S/+gWkB9B+5f1RQQKEic8lAErfFNdwL5XOWmlaCa4Le0LBTdCOv7XphdYgVWwwJ91/Y8p8z4j90O3qpdFaw97Zo7LAnfn+XaJRKJXJbW+pcgUCt9HJwTlkpmNrXNSWpoywuZ7kBJH2J39R01trINoQox6XbXbRjK4JzNDRQjJTYFwXa6NYCo6BC7MgHAI6Q3sRLkg306zxTH9xN5bboq0zjDFK6OQXjwZK5zN81TyPiqWx3B00uJXAj+LvIyrmi5ck0odSEAh1KcnL5Nfm8ryTuSQvDT6lj05sfJEaX9kGEpsSjj2jSDk+Dg5sJcRUKbUX6YCpcWApKLmp0TmLtuK7K5jXaLjGWNIkrcZOL05mhwXLS2jKu6gU2RumzEqGRPpGZniiJCJvDkYWxyhyieZZKo4SaWlpBFFiI1/ByXJAr8rih6QKB+gdSnKc8Y/kBe65M7akeWpsrXJ7douDFpiYz3FEhWPGIFqDeSjxpkUWNdGGVGhdhq8cJ1YEPq7U1HuJ+MUlAsTq2k4dtBwehCpJHBOe5yIcv6ou2eSBW0x2kJAq1jtpljmnRBM1I/g1x2Y3QXHKj9/076ORauKI19YUa4p7EB7ah1AXFcU4Jyd7XyDCx2a88WlJGv6oaKkDSXMbxqw7McGgKznqLG8lFj2MTYuK4LtrguC4ItRYjEE6vtS1S1Twh4kgMR2U6R65I7KKO1pDq1Q6UYMaFjkg4hVtKyABSicx2OO4+mvo11K0tdNfQ1+kJVy2tdQEGrSART05OCuyCKvkpRJYkKc32dBr3lRR91Ua72mCrtRw8E1iDNIBcUWritLSIWlxRYnRqWuHKxV0paSMMgXacV4zyvE0pK6fHxIG1x6Mb7AbtgcmN5LkI0L3Jebpte45zsYOUjo9dNLS19XFaWlr6g5ckHJpQQ6BFPRCc1ZaLnTtn7nM2Xx6MsP7fDaoQ8pK9QBMYuKDUAg1cUWohFaRC0tdCE5qki5J9YJ1ZdhOiRjUkXqxEi3imopvpd3S8k8e45D0o/ZhfpVTHvAs5KWJGNFi0iPS0tdNdNLX8O016Y9ByHQohEIhXou5WvRltofkjnJddusxu48TDt8TPQbpaQWvQK/0U72j0I6DoUUU4JwRC4oxp0aswepYvYCe1Fha1BaTQmfmPiVX/ALfHPZe1GNGMJzE9i4++mlpaWvp19QQKa9Neg5b6Ep70522/IIPFyIKLFNosadDCM5Bjfo302to9XdAiiiiinIhaWlpOiDhYqmMywtcHghOTX6XJbTUwoP0q73tHxlhDCiFxTxoP+jS0tLS0tIt1/BtckHJr0165IvRenLa+dQju+uUrjHFNPswjuOxNbtRD6QiiVvq76SiinIo/Rrat04tzx8U9q0gte0wqGLunF0XWLFWs2rD0cp0eulpa6aWlpO/i2uSD13UZUHolOXzlhcwj3K/mpGrB1PIsRx8GDqGoNXFEI9SfbggFpEdSnJwRWkFpaWlaVh3tw2daR/IO0AiFU+4fFq/bbyW0X6TpE87Wumlr/E2trku4ua+Vwd6hIC0n8k8mfHqfYqIBaQC0guPrinIjoWe3/laXFEIhFEJwRCI+m237bA0T+d7GvX+x0p1y2erB2otaTnaLnrfTS4rX0a6aWv8ADzv/APNtk8PyqMXetxNEbF6AktgObYaQZQEJQhKufQhDoeukU5FFFEIhFq0h0sfi63RcfW/uRGukZCwDDYthmk9u0/rpcEQtddLS101/h5ZnOhZ2HQyff8dh5ZE/apckGultyuHcLk6ZwH6jJuLNdsszrSo8w16ZkQ5C2HAS7W+m1tck9y2iepRK9FOYmtWlKzYyFchO+1xQR/P4AHv4fU5TFcOSkgIRatILaPUDaig5LxE6knVdLte/8K23lWvwcZnQcF8Yg/cnOmMrB6DBGnjYsw/dMXMJJQfowylqgtHVa17hseo5fW1y+50mk+f0bafc4L9R9nKcUcu1fq7Ucn7ZkdqK4CQRooqzCHK7B2pF/re3Mf8AbUrGeTB0BSqJmk5oKfBtGsU6ItWlpcVxTQq4TY/RjUjF2xv/AArp41rf3W7lXg746P2pm7H4BlAU1tjFJea9SiZzXRzJ7iFGxspYx8aid6jPIxely0nOT3qzNpGckTWUbKdPtd1dxRyaQmau5o1L/AiUPCcNrMQ+vwiUP7QtMh+K4bi3pzTXbQCawKxCNPj0eK0uKYzZrQ6QanBSJ7v8PNO40HffbybhHjsBF26Eil/FknTaweqbpZ5MtSsUmyOtRltrmePurY2msa5QM05gTkXKQ+rTiU7knROcjXRjamxsKFYJtbSjgKEAXb4qnLwTTyWll2/svW03ZHxrHid8EIiYW6Tkz2mtQavwnnaMW1JEuPtkfIwVtJkelpPUzlI7/Dzg3SDNXc/IAzGs7dORTD1YGlJBLO/B0IqlfP2O3k7OVFiaeNrw2nqqG8XQKuootiaPQc3SlUoTinv4iVzpD2NL9pqjmYoZHajna9NTtECLTq39SFmf+KT8iPZhqduv8W+201ydIieRgiQjQGkUQtJzNow+4YdJjehKlepnp/8Ah5VvKlbh4WMw7lbrDUJCfHtPhCcwax2QYxvyKkLImhAVeAyPe9rIo8Q2WtVq8IYWKmrMSlbpTlS+y/0pDyNeB00lzB9lz8PBE+TGhVcfL2PUyhsOaY3clpV3dM6dRtA3jsW6yydoY34+dTclvahj2Y2aBW0T0AXFcAh6XMBOmTplLOnP2nH+LiuP8E7OcV6PSykX/vx/16SBShBx2bTmizMxyMqcWuMHHfowRt9UwrSm/Evt0g06X7kIwT8dqtFn5fUJhDZOVeT9vDVNVs3XEd1v7ogJCCgHtoXyL0KFDy0GhjLnoYT/AJlG1RABc1yXJb6BOk0jYTrSNpGyjYTpF3EX/wAACDVpOR/gzMPGzk4+VmL8aXbTotiSFS13BPhmTq8qNGZ5hxGzFRjjJG01QehO71Ycj+ZG+3lMij7lbtxiW0Xxvoxl0FRsbn3ZuLq4c4QBNi0gxV40PS+SrGPdGo381fd9/wAfp85+3pDYTHFBbReg5By2n+1I0rgVwKcxH0iVtbW1v6AFro3oW7RjXBFiI+nOQ7dc/MI2A1cFxT2riEWgIsCIQa5y7PFcVDHzcI9NnCnTvTj7T2aRi2WtLUZgubE2ZoXfCBLkGqNnItr8Q0a6fIHcrFZvAV3fc0d+38br6WlxTR0LugKDlzXNOPTYTyE8IsTYdrx1tAoLa2trfQFcltEra2nIj6M3/wDNlG6krj7AgtLinwByMRC7KZCFw0pB7f7VaLQI0J1OFI37+CLNoxaLWBwNfaNIFeEhV0mxEKGpJIoMf2xI3S/C2ske7kXDi5n2w4+Daxtfxqu1tc0ZFzW+m0PaKcVvppCNdpBukevJcltbW+m1yXJclzXNF65rkt9M47VXJn9yH+gTQmhaRanBSDpy02R21HFt0IUisFTKUddIRoMXa2u0mwEqrjuaioiNs7g1Se1I1PdxVcCeyP3ZZo+MGDp859raJW1tBBAbRYmNRZ6ezXULa5La3/DtbXJc0XruIyLuLuLuIPV6x5NnJx/ZXP2NQKiHJeMNPZpO/Div9cvt/sY1GFL6UylCeFpaQCamINXbTGaUU3BPsucCdp6kb9uRf24MbVfMDSFFrSbEmHp9mvwRYi1cV20GLSb0C2pEfo2uS5fXvoUUSiStokolbW0CnHUTPbcoeEFaT9tki5ptnim3/Uk/NOkTpApbGkbJca/sxNTBpWCpCnJzUR0CYPbWpgQHQELa2no/jOu0MLVNVmQDrFilW5TsHFu0EWrj9G1zXdRmTpEXLkuS5rkg5cvq2tra2j00uKLVxXbXbQYi3bf+OXLsHiwH9sSLuLuaXdTrCdOpJ0+bao1+4mQ6LAo2fZZdpPRTk86XLaZLtRu9sQXJc1zXNc0XbTllP3LTI3hjYeTMNF+/zXNB65rmu4u4u4jItolEon6NLS4rjtbW1tbW1tbW1tbW/wCDau48WVkMVZ4QO/bD/fNclyRKkcppVEwvNTTYteh+W/bDadtz0UWrsgqzH2kZPccyhn2g9clzW9onS5rmi9f82WYxOHbWPdp/JclyXNc1yXJbW1tFFa6HoPQCPTa5La2trkuS5Lktra2t/TtbW077mzfs2e5sh6B2uSLlNJpNaZn1aoAfI6s6G2HJjtmW00Ryv2XHoSuelcfuPRCa/Sgm0mS7HNB6M2k+fa7iMul3ftx7t5CFwLHOWP8AZ302trf8R6ctLuLmua8wLzAvMC81q8wLzGrywvLC8sLywvKC8sLywvKC8oLymrymrymrymrymrymrLH/ANoOLVG/YBW086Ujub6kIYoVNH6cRzhtenzrvezYbp9wKXIgLy5ZCDyTmbTm6Ub9KKbSEq7q5ovXd0jLyU7+3VpkxSVrfp9jkqoEEXcC5hdwLuBdwLuBcwuYXMLmFzC5hcwuYReFzCMgXcC7oUlgBd96Er1zeUOaLnruSLuuXdcu45dxy7jiuT0ZHrvPCfYkXkSITyLvv15Mi8mReRIpZXeS9vqP0Qm+1KxSztruqXQhdZGpMg1W7vv9UMUvniQeUprmk+/xTLrVDP3EwDR1ub8ppTCuSLkZEZNrfu9N+zTpDt+NxUcnZXnPXmPXnPXmyI3Xrznrznrznrz3rz3rznrz3rz3rznrznrzXrzHLzHLyivJKdbfpsHp9cpkRavwnHa4krtuQYV2nIRFBukRtcE6I6kjIXFcUWrtoNQiBV+uBGfujafcfsNV2z222LRe+rb7Zr2jLLJZ0nkyBxOxacxC44iWZzkXFNd7hn0m3/RyHuW7tQ2uRYNr8JxW08+h7TGrRnttZxaWosXbRau3tdpOj0uBXFEdNdNLguPTS4riuK0tINWgnNRi2vHQg0hFtCABdoLtNTogjGuARYu1teOjAApIkI0IEyAAXe148D/tLVXO2v8AtZk7JBcOT6dJ0ybS7S7LXSTUwpcWOP6ZK49jibEJYg3YEZ2xpBJOz6Uj1DNxfRsclvacEfSdIovZL+DcTHyk9okr3sMJTo0Tpc1yQ0i0J8a4FdsrguPXiuK4rgjGu2u2jChChCu0uC7aDFxRjK4OQrvK8VxXhEDwHLxS1GJOhXjrxk4leNJLJjcfUdW+Q1jjcxE7nDVPqX23I1uToqxkdBj5RGa1tigEzX1qj7MkmNnaXxTxJ7gwyvErfE4mOhI0eK57nVeKklrNbK+N4LfdEpn4KnOukI0pn85IojQkHFzeLUI2oRtUjGp0Td+O1eO0LtBCNqMbVwCDAjG1GII12leM1Cu1Gu1GAJkekI2owNTq4T6jF4LE2i1eExeCxOqsQps3HTYE6ozXjNToWhNiC7QTw0CxM1qbOHEkaMwCjc67M6l/6lzG2mS/EprEsXz7H8oKUn2xI/i21U6QahBxAi5GenyFCz44pWWufLJC8y14pZPBjVmvF3rcsUFWvkYCy9M+w84/kfA4NmrFqot+2H+rnaUjiXRs0C4MZgMV51mx8cg7BJp22VuY8d4QjfsxO0YXIMK7ZXbK4lFjkY3psMhRgkQrvK8R68dy7Ll2XLxnFeM5CByEDivCcprIam2gUybaMifZ4qW+FFdBLLQRuBOuAF1sKOwFJZHG9lmxhstq6oqtpqne+uGmW1JQpR4pklxzpPlzpo7XxbKPiynynJs8DHv4ugk2dKZvN1dvpgBUkXFN9htFkq7QYnsXAtJmlCmD5XyQGVNpRtToQm1wFLHtTQhV2BjtqQ+nov8AXB0z8bU8DFRgSVMl8fitTcJ60sFubhSsxWUazV4rSjRCFJq8JibQZvwo14TE2uwJ1dmvHATol4xKdWIXYcF2yu2V2XIRlpUw5oREGA6Tj6nY5ykqPcYazmLiUYnFdklSBkSsZmKFS5h0z+xDZw/xiGTsFrAs5C2SlRstjtzWVKNr5dG6ejXJa+Sw6VxhdGqljbzJ9kEoL4ymOXLYLdFz/t5Lmg5cgtt3JxROy1nFPT/ae0FNj4nactp7tDD1uT6v/wA2Ml70FrYZna3fhpZdtZ7HixXx17ymAdCguS59OJWigF2toRejFtdldheMu1pdpdkIRLtBCJdtOYF2wUYw1T3K9dSfII9vyNm0BF5To6UMrmUYCsPMyXHYW1zud/ic/aEeOluaWFvvsY0yuhZmI3yY4tX5fj8e23VDxFbksEQ1BqT1odHSFqfYC8j3315C8hCQnpyCLk5yP4efbNolOOw8gCtF35KzmtlZnQHUfkM1i5U+UmIO+WtkrV2Rut12OohkslOShmoZ2AMkHZCdGuC7aES7a7S7Y3212121wXbXaXaXaQYtIqazHWba+QvndcsWmPr3Zi2xNKH2LYhsPdZZIcleDTlbbx+pXJSLdyw74w63IazfFzMsgA+UGZ2JfM5fDrMbE2fhFlskKtblptRpc/tdjHud+8yyJG1Z/vqvMq4rirI+yyS18ttwPmPKbccFHc5KKwd9522k6cV7RP2ly72lJJsmXQ+6d9aHttvTcZ8fELQwONsS5HK4ixSkr1p5XTULPi/GYv1RsGKp4yPIXG8az7xJtW60UGRdM2K7BKeIQ6OIC3v+IOVu0yrDcyMmXs07MVeS5dL7d3Jvs2JJ3uPP7u/KC7LyyTT5nuSz5szPlzEs0mCv2beSkyTWZvtDsytbJN8nxEeKFOyGWZQ17snZfasSFUI297Lahx8pTP2jHIA+j6DPaDV2trJU9ttV3xyfg8eRrxHdZm02NGNOCJT3cRJKpJdLvuQ3Ka8IjEf4xmNGRyGMw9esyrIHW7cfICv/APoGFk9i38iNCxRqT5+vSx8bGurcX5PIRUjB8pMpuZGQCjl5IXQZGKYB2w9MW9Ll02ua5Lmu6uaMvbbegmysVWsa8mU7YsfIbXbbjfjM19ZH4D2a+QxFrFoP9bBXFAFNaVgLHj389Vkgs0Pl8IB+VxNmmy9LLwX2Mjt08jLFTa5Rfc/Gs52PkcgDWjnJYpGNw3HLRu8pI5RxbMChKp3gqzXbKnY1rWtoM3HTDVHEGIJ6cPUhT9mN7nA/2IaXGtCGNaufFmAj/brAtbW/+yxsNuPFezkcpHSloYQW7+Okc1RntuzeXZRjowvtK78bknEHxrux0cHFi3WKtay2WlZpqrfE67h3+UCuSJ662nBbKyx1BkLFnJT3I4agoB0zY8FJZZ8XjZ3HgazGOjuV5sLM/KXMbPSEbwB3NrlpeaI3/qdqWAtDE72nNXae+Sf49Zx+Pk9IfaMVHtZ+TlZowOsWrf7FzJVuSqT/ALjLvqOy0N8z35G13OTtolflB6/13NF8+kZhyms6JlLkxpkNaHgPwgp5dNxNytXii+SPCqZG5fydx2UWSr5KSeb46yNkElR8UEzQ3K5iOKrBirubkxsTarp2846cwaDorJ5GGrFYNnKvHx6/y8+ego78NlrNlBqcNISew1BOHTOXO475Hme1BKfXxOq7JOz7PGx3xSwzxvMidJ8omZHRw2OgMGdNqxZ7sT07F1LqPxz96P45wdLg3Mis4OxEJIHxI+hSY7vYfMQSQz4mLLsyvx6zjFjYeycsCy5h2vFjLNYDFqSK7WNGeG1zfHZ5Hv8AsWfQnK767uwyfQdOAm2S4OmU9ralmGnP2Ya7niKHgB66bVuxI63icCJ4aeMr4+OK/RxdmT5fBu98omkgnvzyRfGbLfCzWXbjK2OgnzN6nN+mVZ2qL722Yuyst8pLBjvJy9ijHFTifkoIRPdqWY8h8fDVD8ss0pKPzGvMob8Ftvb9k8VzQO1xWNxpZH8maBeJXwy5xUz2uq4FvCg+URT5bLxXsrlXihim2S+b9EY+OHGWnt7tt8bcjYaYsvMy3XzrJZXPrZOHK4ZkTPj2LNTEZ7AQ2UW38GcPm612EY2lbWV+MWn28RV7KzNbxli5u7Vs122YrGLlrubKYi2yNd9C2vKTJ13vRm2u6WusWvTrBLNmVQ1dOazSA6bUsvbZjbsUFivl3WJZLs0rqsvuw89yw7cZ++PA32U4pZ325/j1N1Cj7MdWQvRyDKEWVzbppcXgjkHQUo60WStx0I4cJZt2XZupjGszlSwstiKuZFvEWMe6HIWapx/zSeA1flte0oJ2TBq/1fyTbAzVxly25QzSQS/HR59PFQRMs3qcbIcZEZvkOcyLKtplh8whkbDLRc+dkjI/G7UU9aXD1xStfHAxl3G2cWMLa8q7/wDReZI6S3M1rhH8TqzSS1LGLrv+WSNmqTY6eD5PgZXS4WQxkFa2rmPZIpsU5hNKYJ8csaHMITEJtld8BOnTOUojoqOBrE0dNraJWVtaGO5SWKksby5oY+uexXmcnj9qI7ZVHKt8fxbrksei1nB8Vz5g2vJYywyTsN8d7zDJJVX6iyWGq+XLWsrmOM0sbLAEUtFzH90SzPcyzj3NTokQ6JY35JNVOK+Vw2Qyy14zOclyLufI/lfhfCMoY7Mb/EzWbfF4WIihmo/KIuGSqXnV2U7NXsTQAp3MqvqEVmjmxzYzlozNCyT9NmxPyp8U2Lnhs3KzO9cl1HFN9kNvC07dqf47arMvZC1CnSeNlon7G077g8aTwnBPjaUYWJ1VpTabQhXYmxtatIIdeSml7bbD+5LjHGOxC/yHlwrQ+mUHnR5hzD2d439x1Cm2lBG1gOX+QTUUZnE4LE2JDHI7tx5COZfI4XOfYeMLQbbdG6pka7ntZ3I5qktdRmO3FIx0TpK0dsz1Xwl0YKL31XYD5OYXS/36AqpZdVlvXRKsjM20LbYalGzEZxbxz66a4tP6tYEc2eM8cmah7bLbX3oJOLrLTPVy+AdWVlroXVrT6bvimbMkWOy8GTmuu1HwPekH25vD17iy8bqmRoWe5EHracOQkZpPCcER19odAOhK2iVkJ032sRGZbMNYxMlmEVectbSkJa7keMSxri2aqBLXydrwq9qzJamxOPkyk9CnFXdyaYsxkIq8WE1Vr3ct5duKwx6NGrYI8mi6veimryRvhs18jtslMBNj2rOL2pMZLx8PtyWMNJ2ZIjH02tqOw9y+LTtyh+T6bXsxNcoe00z4kWW26MtMhBRyuiNPMy0ZMHyyl+q8uVvCMzVt+Cl8/LOix0fxuU1q9j5O2JlS5WtPkcr/AKHzNo87EWOKjkQcuSP3B8O0Y9IxhdtcFxQZ02iehVmfQtP2gsK4RzsiMDMh99e8xj6Ujk1+00fdScWS1pH18fk8zPdUcvJ2Dwniw9lkZvXoqFbDn9SymfzzbRHtNChfJCamT03xmyvZcJD4IpiKxYX03cW3O0uZldIWSKpm+wrNeHKxXaL6r9evwK47k2BhOPy2XztqvkWWW3lIa8aNiQjTQ+fEizFLgOTH4yeM2AWr4tjJK2Ne6WF2OkbLXpduRl3A0shes4B9Zub0yXBFvH/yJ4rPyMduv8wG7cJ7bq03Ngeua7i7iLtr0vtTtIuXLqeksvBs8mzI7k4N94dsfLUtdZIcFkI+7RmUS/Esf/Nbnc10J7pq/Fa0yhjfja8WYDV8mygyErrLcJinP7sgmDV5KE5TbYCiuaTcm5orz1JY3sMFaPIS23NpkMkB5Y2FlxWcSyd8kUtd9fLNnWRxJikK/wB17ZhjyVk2rnPgqmRZwlDiWSxQtlY+eV0u45C9zM1DXY7DfIRUhitwZWGNrGW5z2K2MhXEEZf4/WyNqh8ctVo5J5Kstjv8svZFxrAqUnFMftcltFyL1zK5FFy39G1I/QsTcjPIoW8pB/bAhoeyU8Mm0RrxvLozD3F6UnqXlousNrPxtqhM/tWKtOrmOwy/kqsk1PGy1Zs3fkyLmRcUXRtTXnXNy7q+1y7jo0JtinmpOzJVkiij5XlDR89OrW/jtmpN2GS9uNT4YtghsOgknrsslzeKxVs+LVx0d9trFyws9g1si6NVJa8jAzT5bPlwj++SpzuxpgkidjsjLQkwGZgt1bUwnsV4+1G93FkzC48ftuYapMc/ip4H2NtVZ4kDW8TGtrkiUfr2nP0LFjae/akcsRW75LfvwsfJzZGyMy8b4a9KMWqFhnF0alb7LfWQHKqyV7Fjvklim05x96xRpfpYyGZsXU179OsBq8lyxuNmv160FixPaxVmpKWcCyfii3Z2AKl50xnrTWDgpWyU7UbZoY7zQqrwG2YHPmtwwS0Z602OjIZdZJWkrSYaHxHMheshjeYmjdG6Kd0Rq5j9+lbrTMqNKD418jxTLwlxU1K7autx9f45l7YVfMV5VdkPYqMItOUn4zjg2tl8d2oYZjE+F4lZWZyhLNI9N9N9Nra2nP0rNjae/ae/j0wEZiqFu3YZrnSMe0nKukdTxRD470Pjyxt9zfh7Ntse6SaNriWma5PM1skgTY5JU2HimsWHLsJifjDRI17WNbmfjpKe5rnRExp+ivM4u+G25G3K9+TFZeefSedux+T7EsT4rrXgRW5RJcgy+KECiuNZHTvC/dldIJXPjry24Tehs0XwPUTi1fGcqzHuhAszNL5pmUopI8x8bu5DKSVPEfHLHHYf8nmgyPx3I18gHHamWfnEbM3N+x/utYMTsVIJonsUjE5cltbW1yXNGRTS7T9uUn7TSdke1ioHxUPw7Ek+SRHMJ5ZXsxBa2xkqfYUanG0f+N+3VVGE1vp8ShgRGholQUpHPylSIYTCVKdKmKtfeYrPpVLPuyIJfFlk4NrxFUrTqs+TtwWI/wDyR0l+3ge26SvLEYMjI1sdlnjvhfO5z9sy9UXLNSZ+PtQ5MZISMhjrWZHvTXRCGamLL46PalnxNG5jMRm3Ys/Go5pVkJO4K0Pajnxlaw/K4qeNsgd3MG6avj6eZbUbWzde+vkMhdLm2ukrO/LP7U7rqb61tlyJ4To120Yiu2V2Suw5dgqSHSdF7e0RCzJzcq7Oc1L9sTjU+JkLLNnjbR5qrqO3lqsXZazTpP6tb6/RbLca4afAEG6Tm+69V71DhuTIRUgGHyndyOZpTZHOuxbuxNSkiZn/AJFNUrVMUy8JaU36IYHOfriK7eczf3I8lhn1LLq4iZJWksm1RijfGZK8rMtJesuqx1ZWzvfXs1Hy3LeOlrmDIyVx5LrLZQ2Gw2N0ht2QRiMqKcF/CRZqUZ6bB0cJdZbg5ckFfsamkwUFyd2EtwOaxu5XzQOrZuUSyWfIu3KzoZ4o3cuDlUnkqvrXBYaYyV2CV4zl2CuwUK6MOlJFtTuEKtTOcSxy4OVONzrNOR0Ed6PVmlzinj4vkZBI2K6HMvTxR3Knbc+STFWCqfx/HCvVylWKB9R0lylgxybgYWss4uOsTe8J0lmzKI8fLPD8SwsLG0Kkk+UjCc7UfySd2cuxY21i7vym1LBQ4lqDHOdirIitUoGyRZKsJqf/xAAtEQACAgEDAwQCAgICAwAAAAAAAQIRAxASIQQTMQUgQVEUMCIyI2EzgUBScf/aAAgBAwEBPwFxKGho2k4DxMposssssssssvSyyyyy9LLLLLGxMsssssoo2m0aGrJRJYx46Gq/R599/ovW9aKHEocShjiOJOFe6/8Ax6NoyhoaHEaNpOJKPtpsjinLwhdPml4iY/SeryK9o/Rurj8GXpc2H+8f2WXrem3RlFDQ0OI0TRKBLHfgarT030mfWfylxEwem9P06pRI4oR8IUIlUUSxRyKpKyfo/Sy52nV+hSjzgMvR58H94+2yy/0NFDRQ0NFDRJDQ4jiYumlmnsgjo/QsOKpZeWQgoKorj9FE8cZqpIy+jdLk+DqfQGleFmTHLFLbNadF6b3P55CXp2Ga5R1/p8MMN0C/fLG4jQ0UUbG/glGhocRxHEw+n5c78HRenw6Vf7/ZWnqPp0Orha/sZMcsU3F+UdH6k4/xmR6/d4Z6h1icNove4pmTp7fBLBJGx3Rh6Z3chY4peCXT45eUT6GD8GTopp8H42S6o6f0+GP+UvJGNfvas9a9Nmp9/GVXkU5R/qyUnN2/dhx92W0ydPODrVo2K71kbuS0z5F7r/XJWdd6Xi6hWlTOr6HJ0r58e+E3jdol1M5O9LLLLLGSXJF8+1/vZ6ng7kGiUXB0/wBDGzcbixMskfPtps2lFMa/Z1Uf4NnXyUsnCOTa9b17xubORMoXGjI+RaxjuFCjt2LCdlEsFj6dnaaHGiivcxnqEY/kS2lC44J40ODGq9kHXktNEeNEiiSObFojDAWNG1IrSihwRPFZ22dtjxMaa0WrOvwOOeRtKGUSx3yds7eqYpkJ2LRocBaY1ciKr9DGhoaMseR+xnVYlKTJ9ITwOJsNhtNhsGvYpUQyClY5DkR5506aP8r/AEsY9JKycfY3wZJbpWNI6nybTabTYbRleyxZGjujyIwytaYI7Yi/Sx65B69VkcVtRKdeSWYn/Jm0ooo26MorV69MQ5ki0h5fo7zFmi/IsiYmn7Wxj0yIeubmRnxt8ocWRiiS5NpDpJyVofSZI/B2ZfWtaNa1p6Zj7knZ29uSjbb5NqJqI0RshIRZKdEsrHmZ3WxTYpWeTKqek5bR88iaaofSxmZ+meN8HbI47Z0+Ko8k4jUV7n7PSV/GRL+WYonZNNCbuiNpkNGSVkkkcCURQQ47fGmXyQxub4OpjsybWTa+DHBlUSipGXBzwdP06XLKozS4JPnWiiiitfS51JxIf8jESRKO47dPTGtJDZ5Jx+iMWK0zyNEo7pUYcageqOsxjhb5FRYhyijvRiPqUTzbmOa0oooSJRs2Ma06WWzKmL/kENDTHAWMSrSZIRSKWrMavKXR1f8AlytkYtF0bjcTqR20ZIDhJnYmWJlnkTo3FolRwYv7oh/cWrPkWktNpsO0baEifBgXLZ1GTtwbHI3m+xCTsnFrTaiki/a2OdDyDyM7h6dHuZLZ4mIkmL2vRIS0aGZuCC2xOtnuew2pjxiijwdxE8qaNyNyN5vLLNxuN2nBSNqOkz9idkc8Ms/4kZF6NiJOj4GNCFqzN8C8HUZaytMjlHmO6d1sbHeiYlZtR34fZ34fZ34/Z3o/Z3o/Z3o/Z3o/Z3Y/Z3Y/Z3Y/Z0OVd2kyMhMchG6jiXIy0jctFIsbHIclvVk5xxxcmzNmWTI5G83m83I3o3ockb0jvC3NHazLmyMZeWS3XwxOZHebX9jjP4ZJTvyfz+z/ACfZ6bLJi6mE2yL+RGbJsFnZLKyHUOPkl1HA8tkcq+TuIjK/BY2NnrOeW5Qg6MubqJxpzY+4vk/yfZul9m5/Zb+zn7P+z/sr/ZtRHqMkVSZ2mj8exdMkLAjt/wCh4G/g/Fl9D6T7Q+l/0Lo2/gw+nryYP60R8GRNsjD/AEOKFjiyWJUds2McaMUmnpIk9qOqwSnkcj8Vj6QeB/B+O/ol0jl8D6CY+hyH4mVH4mU/DzH4Wb4Pwuo+hwhfgWOH0Sjjj8EY4x7EbojaRVmxEYJH9ZGGfNEWVbNteDtxmfi/Q+mkPDJGw7YoU9GZHu4MmOztnaY8B+OxdOzsv5PxUz8KLPwUfhoj00UfjxNti+iUN3kUKHGJX0QTfkS4MnEhOzIY5VIx5OCDsTFLaxZUd1Eppj0+Rsk74JfxHNEq+BOhQvwdqR25HZkLAzsNHZZ2Gdhn45Q5fCOU/I2caRfIicfki+CTtkTFNrgxS50yKxykmQnKxW9G6HOhzbIQ+WZE2x4zYUhblyj8mUfJDqYy4Z/8EihooplMzVHhaJX5JY0OJQvJuN+qMXkV45EZiY4piilo2iUi7fBjx1yxukSaHIsQ5fBsNiFllj8GLqIzVSFo9c89ztEPJ8jZLxpwcG0SopMcKIcDh3ICuHkUzuG83kpiTmyGJR0zSpUNoc/o3M3cEV86OX0KNcssjnlDwyPV/wDsQzQnrKV8CIvgkuRvnSih8CaZQ0L/AGYHcaJRUkPCh4mduSFCTFi+xRS8aPgyz3SGPSK5PBbkRikNje4aE2iM7MeeUCOaDRWkZULlWNWco3MUityNrQpCdiMUtsq0aNptK9madI+Rj0i+STvwRjQ2SlXBuL0pm9oWQ5K+tLpCelI2kWhG2za0xSoi75IS4LLL9kpUjJKz5GPWMTwNj5KKEtNtihR5GtEOImWeTa4sUtEOJF7XyQ590pUZMgxedHrdG4em0ePRESiqE708F2PkoXAjYO4kZfZZLkw5dj5LUlaHpyOyVjGLz7K1psURDZtvSBuaKPkRR40ZHkWjGvZ00341oZmfNaPyfOiEtKK0ghE/AvGkUUf/xAApEQACAgEDBAEEAwEBAAAAAAAAAQIREgMQIQQTIDFBBSIwURQyQGEj/9oACAECAQE/AbExbWJlnHnRXhRXjRX462sssvZMTMhP/bZYnvYhMsT/AALav8mQtrEyxPZMT8bO5GPtj19Ne2T+pdPB1YvqnTP5NPqdLV/pL/FYhMvwTExCYmXt1v1CPTfbHlmr1mtqvljnKXtlvZEZODuJH6l1MeMjp/rC9axpdVo639ZeV/hW1llll7JiYmWamrHSjlJnUfVdTUdQ4Q5OTt/gsUnF2jT+p9RBezQ+sW61UQ1I6iyiyzqOrw4iLrJpnTdU5upfgjqJiZZZZmkKQmJliZq9dpaPydV1cupf/PzdH1sumlXwQktSKkvk1+mUuUPpqOm0adi81Joh1FLkjrRZkjV6hVUTuyZHXmvTI9XJeyHUwa5Z34JXZ1HXT1OI+j3+atvpnWxxWjPZpMSS9eU54C1U1umZyoe0THgpobv/ABJnR9fKDxkaOvHWXHnKKkhaaW1FFFFCI+ia+0RXhX5rp2dFq8pid/goSKKKGiiJ8D9+Nll/jvbpNSpYs0FUSy15dpGNHtDR6HzsjUf2+DdGQpD1DuMWqd1GaLsv8PRt9mN7pl+MlZyiXOzZZFnDXJ876khzLfhYpENQU0ZoWoi78uk1MtKJZe6kWXu1Y4koj2TFLebpDd70PxTLEyEuC/HpZ1BC1hTLLLMjIsvdolAxoSFEap7az4/Et06IyvwSydI044xSEzS9Flllli8aMEztigaqxltqyuX4kLazTFv0mnk8mY36I6YuCy9rL2X4Op9olwj2Rh+ztHbY4vyoW+m+Rb9P9sTTkvRZbEyyWtGItaLM1vfn10sUiU7gJibIt7SJJbxiR0ztI7SHBEo4i4NOVraEHN0JUqKa5O+4mlrZoyHPg19TnghJlt+C8uvf3IlxpiIkaKVD5JXvH0Rb2djky8hmj6JSUTpncLI38k5ouyMsfRDUNbW/RdmkuRLxsT8OujwpE39i2TFKjLabLELaLJSHTHwM03ULJTc2dBzpk5UuDllDEpHachaDI6dFb2WNkZGQnt1Cy02T/qixMTFJDmN7RIlls5ZdbMfGmI6VdvTJSTKKGiLaM2RkZJHcRRRRQ1ZiUK9tT+jNT+uyWyGPaJZkZGYuSTFyanpI0YZySEvgxMUNlojJPay2/NRsUBQMDrpYwpEv67Qaodbe1sxbMZYpNIuzT5ZJ2zpI0sjJmZkz2YsjBiTKMTHeivC2WzqdLvRonpS04/cNHosS2gP2IRLx0f3t08F21Rgds7ZgJCrey2YMwZgzEwZizFmLMWYs6yH/AJjQ0JbY2XjxsotlVs0UISIr7XRBObUUjS08IKJRiUUYlCRRgcGcRyRki0WjJGaFJGSMkdTU9Joe2lp5HaQoE9JMjonbRKDO2yUa97JbdDBJZNEFpRdqIpoyRkZGRkWZGZmNRZkZmRkOZ3V+zuo7yO6dyieuzUXNj9mm0kNnJmxTM0ZpiZqxTW0UJWyE8I0LWO6KZ3P+i1a9sj1ERa8Rasf2dyJ3oHfgd/T/AGKUjKQnIbkVJnbY0O74PvFfyVcTVhxYy6RGXwyy7ONuEdwc7WyIKhfd7O0YHrfEyaO80fyGj+Q/0T1pMze6ZYmzl+ya+R+zTVoqjTNRJxonDklwP2Rlu5DlukR/ZH7mKLI38jR3EvZ3Yndid6JLqIi14j1oHfgPqIn8mBYo/sxTFAraSdDRB0SXJBUSNWBNbQKRKKJVskKAoUSl8I02khanJmOx4s/jKXo1OmnHlFv5G+TIUizJGSOnuXL2bpcEdRilYmPlGJgf8ez9mqx/ehx2yaHJ7JMjESonP4F7FFiiUMUflmdejJj0Yz9mr00oP7RuuDnatum08VyT9HwKPJD3e3JyZF2W4imrJ8mWEilLlGJgzAwIwLUUS1MttJXyJMjAxRjySfwURjXMhyvhGJLp4y9ol0n6J6EtMW0I0NEuGRfAo8XvZ7Gmi6E0x/8ADWXNkZOItUWoZxZlFD1P0Nt7JWacaiIW0nwezFRRJ2JCjjs4pkoUanTxmS0ZxdF7SjY1zQnRaZihxZymZJjjZTQzUWURo9CZkX4aUeRehC2muCKr2SlYl8kI/JiVu4Jj09k9qtjjsmzId/I2ZUZJolCx8KiS5KK8Yxs040fBEW3wOVnsSFxu62yocrPRf7LGZDVlHotP2OPyU7JCkSWS4JceSjZCAj4EL3t8FWYiOTJi1Cxkhs4ZVbe9kyz2Mz+BJSJQKImrp5Lgpp0xHBxtEQj4Ej52sRRwhyGJGWJ7NQxTLLGWe9kS9j2TE/DXive9iNNcXshbP0Xve02SZp+x+yyXss//xAA7EAABAwMBBgMHAwQBAwUAAAABAAIRAxIhMRATIkFRYQQgMiMwQEJQUnEUgZEzYnKhsQVDwTRTgIKS/9oACAEBAAY/AvgtVqtVqtfLr5NVqtVr59duuzVa7dVrt126rXbqtVqtduuzVa7NVqtf/nFqvUFqvUtCuBkdyv6wX9SV1/K46Z/ZdD9f7r7Qhc6ZUnkuFoa3qVMB7l6IRPNTqr3aowFxAIx6uoWCCO6i0KKgtP1uG+pSclCcu/4X4Vzj+ywcLDcLiICjhPNS5wceQag5x/ZWsjKG9omOyvpOuH/CaG680S7J7LiZMr2T/wBivaMXQ/GT8V1K+xqPNYwnEahSULdAnRjZr+yEY+5TzRYfVOq7pr2iWdXKAPUdVBWnJcIJWlsc0Z/2i468l62u7LNL+FDmlqx5pK02x9HLGar/AMqBgInYGsXRQE1mWzqrbThD7eZTmnEO1RDdRgSnjosaoU3GWptNh4W5T3cu6zwgJrdURTBd+EG8yrdFlxlDiUPaFfS4R0UHDvIJ+lZVtPLkWg8RVqBKtGyQcrKJfnotF6eUhXaR8q7krOVeMKY+VGVdbLiuFsnkFNV+qMZH3K2UCT+JXCOJEOpmOuz0YQkj904tdD+ysd6to+Dx7vRZ9zJUM4iiXGGrCfPJSNFbKxlNHVCcoEOTU08kyNQnTqoWTiEGLPpCkc1zAUkaKDo7RQfl5KdECTlObTp3v6ribxDkFNRkHpC4W7tW3lYrNnorybDyPVd9uVr8VlaeTGzPk1l3RQTDegQaMI7CiOSI7J7uan5Wpg5KE0bGd0blI2Z1UKOmilTGE23DgnOK6LTksOgp+8/lNIF09eaLgyJWWw7qFLxcVEgAfKnNcfjNFn3VzjARbTMuWclA811TtgPXZUfoITQNExg4Z1T1LjKc7RA/3Ls1OK/KBCtTgnFR02DkiCfV1RnQJsZCAf8A6Rl3Amlp/heg/uuNtoV3IoAU7f7lLBBW7d/PwQ+Dlbik7CuWT+6IRMIo9joieYX5TByTlLihCKMozqTtH5RATiSjUjGydkIBd9tvVWRojvYhdVh7WwuM8KxUWP5RpP8AUFhZ+hOI1Kvdkk6qFCidjiUE5DY46uOyVKOyFOyVHVbsaoIU25PVZQRWu2nz5q+FaXWKfVCLroHRYlyl7EMBv4TXNdxoP589kfQWdJUbCdh6Iwp5r8obem0+eXrouuyVJUrBQJdK5otnVf1B+FczQLie4O7LUwpuQhaXHoi1/wDTJUjRH6C09Cp57MIoEc13+Ak7OuzosGfIARhaSs0wfyotAb1RInC45RLTwrgcoDZPMoQjRqHI+hOHRRGhUjYQV2+A0299nbyZwFbq3uiZhSSgXkQuFv8Apf0wApZGFBMLDdOq4ja0dEypPYq5uQfoL7inxoo5KRsj3+T5MOEqZaT+UfT+Fxv/AGG2XH9lpCkn9lAMLULBQmXI8evJdULl6ZX2wrHHgKlufoD6d2FkL8LPkxsGzDoUarRaL07NVp5ALYRhe0ZKxRg/lc1p7jBhepTdjssO/lNLtUId+yzKtsNnUpzOXx5Ke7TbBwonChSM7O6PVabJhaLIytNmmzIWNnbZlSHKInZr7jqgBAV3JTOiMfyjBwo5p7z9AfUA4wiHDRHotNkqeSxlaZ2cWzA91hQQuyx5M+fv3Vw28UgFWj+Qg6E4dD9Ae52kKoQMT5O2zRZ+B6L7gvQtYWc+fosOwhlZevVhQGoC3+E/6BU/CLehQKKB0B2iB8Fp7yNAtTtC6FVZ+gVG9lUb0K/C7K1T0QPxoJ5+4qeTt8YVVnZPXbPxUxhSPc9QU93LydvjaTxqUBClSgOqHxcxBR88EwhSbkJrB9BokKem2eQQHu4+BKjzFOqRr9CLubURsITSdT7yfiGN1uTWgYj6FVQ7lFU290ANsBdFqtVr8L2UjZ+dsrKpA6A/Q6o7I9ijKGy0a7MTK9UrVZXJY2R8GfL22Xx6fodQdkY5o9U5/RFEuGV6ZWICJu2Z2YKynHspJ129vJr5uigrHkPktTQ0TlD7zr9DqHsoTX8jhVT38vC25TuCAvQuKmuE2nutJC7pvmK1Wvk6rRYUHRY2kqdptCFaoPx9Eep7qDq5DudpzCNSqeBFvhKQI0khNbUqkvObQpyuMKQoPnxrtyV6l6lqsec+RgcNTlBrdB9EcoPVMaqQ7bf/AAtDag0DkryJt5Jxssu5BXDVNqIHl7rGizs9UKfU3tt02Z8kLuUPor1Td1Ka1MHQeSNEGuwVvaXEV0KAjCFNOqXR0UPw4ae4hBjBLiqVKpUtc/V3RPbvN5GhC4UX0zpqF9lQK12vmudoFviLRKKb/l9Fc3qEBzaVS7x59FO6F3VemFkIcbk3r54USgTCbVZyVwKLXtl50KJcPUvZaoXa+VqzgSg0aDYPz9GcOuVRd5sLRZYtIXEce6zMqRdKtLy4dCpD4Q+Yq1vCrnZd5qaGy1M+jMf+yp9QUPc4Cz5T5cY7LIWq19wxqGwnunPjTT6M0/3Jn+SHucD3mnl0WfJ+FCe/sp5lNbz+jNHO5MPKUPhtFotFnZA2lVHu6rCDOZTejfo5+1uAh+U3ySjtn4Los52vK4BMoXepXcgpPqd9Gd+FKuTfx5M+WB8LaOZVO5EatCps7oDp9GIT6ZxBTkz8e5u2mfgmN7po6Lun1Dyx9IuabX9Vrc0dEB09y0eQ+WfeDsV2WFV/P0kqo3v7nThWuwAeY+7KLttQ/H6+XVarVarVaqrHmjyYwVC18kDJWkLPu3FB3VaqG5KDefPbqtduvk12arVarVarVa+XVarVarVarXZqtduq1Wq1Wq1QJ5q7y9SsnKyVF+vRYKyVI8mfehnVXOGSsErvs1Wq1Wq1Wq1XqXqWq9S9S9RXqWq9S1Wq18mfdQh7i+NEPIeqJlSpdojhOPIKSduu0IbY8p2Sg3ogPjdFp7nTbpsynjUqO6nZOyUNmThHOEDMuUnZMY2Y80eYlF/P3unwmi02Qo8/s6Zf3XtXFsZLU1woNB7qs35CZHkJ6LClriF6/wCURXx0IRGfygALlBplZZlQWogDBU2FD2ZXpWfUuDYNuFKlNp9U2emQpHvdFp5NNui02aLRaLRaLTZotFp7lvh6fP1HotwxlrI17osdXIqE5aeiex9e5rMQqXiGmXNw5AeTTVYWVlWu5aFXOIWCCgIavQ3+FTbDQU4mFMp1uGLRabc7IWUUH1LmieEhB2TU6nmn0nYbKkGfd6LT4gw6VNKi54XF4d646b2oU2iyfmKxL3nVyqcVjWwv1THWhvApdVgHqty0zVq6hEHkhsgbIWNhM2kbbpyvUVc4kkLikjutFwhTtx5Wt6pkCTzgJpyI6o1bi3ElODZaArpFQdOagttctFotFotFotFotFp7nT3nG8BRT4ihc7H2hOdSotaYmYThV2PN0WprqrpEpg13hgLBu4hKBbxAG4lXDkrnZKFUc9UFKkqfc52R5Z8tN7+eicRIICd6j/mhz6IuaJLMucOaIGfyhUY4S3DYVp9bdfiNdvG8IinTLu6xwArjLoPzFWtH4JWAOl6LWuEDCr0mDDNXq2FVOFqt4+oKhZy5hRrXhVqTXy6MqyUAOSMxjPEntHIqBzTcztwsrVarX339oTATACdRohhgeolVS9z2NI+RFlZxcBoVUIp8TsHpCdI4XK9pFSiTbKFWmbgvaAscpaZHwlz3WhWeGho+8o72pnsUI8RbPJytd4mbjDYK3V7ahCf6RiYTm7vh1jonez9n0RspQ2NAoZTgEaBFtdgbTeFWphtrFn8yEXN/1zGyte72gGAeauMur+sJzXGapU9V+U+oQ623l1V2i1wpWvk7LVarPkz5Co2wFCmJDe69DTVqNw0fKn0XNczkcINLZnonUmUyT0W9LDT3ZglHw9RlrbfUU1viDd0JR/TUGnGZUspmm7WOSDqzW/iVcfDvAUXQe/wDqjtAnZ9mE9mn+SbWqNmk08I6p1T0dIU3Sp5rDyUHu5YMKWttb07IFjLLU17QKdukJs1C0dAn02i+4QSpJcwEackKMlodT/8Aqqb6TrmOVO4kNnJCmjWhts5UF0wg1NB0VsuJOk6KE3OESh5HEDKMjOzG3TbCnVFTz2QNtU1R7PQIObTtf1XA8Y1aoET1Rs9IFx7qrTrM9edcJ3h6NJt3VF1a5jmaShIkxGVcNETbvnDl0VhG6HJcTWFp5wonesWsHofelx0CcfTT+UL03ND1aP6jnf6VOi20ADAavDuqPinVMY5Inwzi6oORXtmSOyx/C7rG2ngEk4kqr4pvs2SqNCq42tEEqCXPpzqOSfRcd00OkSnMovlo0KsLpAwi5XIdEymH3/8AhNxMmMoUXBt3K1NDtQo02DOwwu6I6oeYwUZWFlQF32FCZyhlGAzueatDw0n5ivaVt3TOOLVyoVhu6wi20HRHxb6zWA8YZzTYdc13UIt6qz53Lm64ym1m+zz6UA+rKc6LuiF7AD1Cuo1hUZ9rlB4XjkfdtaMS4BbrwzzQ8PTw6omtHiy/JJgqtVEVXD7uXdfq6gJZdATm2aZbOwh8NjKqspkdZV1ZvB9ymVqsmFwcTgnU3P4XarG0Aeoqm9wDmuzgoAKFPRDIOOSDabbnckxzmWvmCmVW8tVcFrr5p8rgndVClY8gb9xXFUgN1VwbFDq7mq1Xw9MgRGEyk67J1VCn4kPLTgOTan6gEUvU1y3lEsY0i25N3dTgGmFO8H6gDDUKpqFzepVlomIvRhWnC6p8QajeSBpvc1rsQEX72HDRW+LpcI+dqBpPB9zTpU8umUPB0BZiXwtUGzZSHr7ohghgEY5IP1f6XEqyePonTUtlDxNguc3mnj10mmAAmtqUw0TmFdRqFkn0oA1uA/MUQeCBP5RddEGC3mp5RKMg7BVAw1Pb47X5VTf4Wi2mwfNKa944HcwqYAuv5FVAYGUXNBqEfb0W9bdBdiUJ6KRocrX3GNkypU89mceVrKeShvjaSNF7ch0fen/p23mpxOs0Tg6lJ+WUZHGDwu6JxNRxuyU+9jXnlcmbot3xHp6IuLsnJKaywkDGeabWaDPQbLwTAyg3wzjPOUHVAbNXFNaBI6ol7w0BHIe0/wC0fEf9PeWkZLJVlbl1XtOFSx4Pmf4muJeeRRc3nsrUJtLhIVtTkyY6qrUb6nPmOy4cknJVOgRLWm2SmikYAjCdYMP/AO70TqtR0EkxHNOdTHC3Oq0cWt5qbjKFY8R6J4rSabsmVuxu2uumeydUoPvYDb+6moKfEchwyE1/h3Np8nBO8MyYIzCZS8awOqNMZRsAH+KrGmyacyJKqB7n0nuxLeSipUdfqJTTzRaVw5aoOFqvV5tdgGyT5SVxi9x6JwufRA0hNIrb8cw5V64dEaNX5WVhOdVlwAwO6JmbkTbc+omm5vD1zlGkbbmjkjvjbHfVeyPBanbwWhvNCm0QAF6S8nSFv/Eu9i7NqNNtO6CuFtvcJ1jgKyzIWCUA83DuhdwlSwgjaW37rww9T+qJp+gYGwPputcE3xFSpvCRa5eIoMHBqi7DQMq57LgXEjorKlXeS3NvJU3sHs5gMQJN1QjpgLdVGBlJrTCqUqR4LLifuKq0msDuGTAQa2nNU5JHJU2053ruqDn4noqVGpFt0oO4XeHHCfyneF3dO9nFdyhMfUqUxUHNP8S12vJqc5t3F9qZdSOOFw6oWWAvyQ5F9N1zByVSkflO3RcB2aLTyYULiKwPNaEM5T6TTu5+ZyYLb6TRmwrxDxG7OIOw7HoVTimxOYX2iZgKl/2x6nAItocbhqYR3k3OKZVfUIE+gogMHZFwOiqOrHd06apU6FSWgZTg8zHPur4uClkg9lZVz+VLRhZUsP7L1FvZAVOE9VLTIQBFjB8rduF+lcfZPTYfNw4kW1DwnpzV5bZZiegVSz+nyW7+WVRghzp9JVKq+oGgyHwmCmwWPYQFuqbdW4J6qpSYZq3ZeqdrTVeHGPymPqwapdxTot5TMuBwU0V4FI+qAneIp1WGoeXZOZc00zpjRNptx/isxjqr7S4VTBt5FCl4djC0Gbjqtz4gMMYwiAeF3n08miwPOdjS31ck4U4qVOqdSLXUwdSnAty44O0CnPeVZoDhU6TTplzlWuEM68yj4dlIUwWrXVM8Twhn9yaW1Jh+SU1rvm5qlQ8M+Gk5aCn0GPLqjtZTS5mR15oCTxag9VUY4wBxOTajDrmByUO9UKWkvo6I2DiWi0Ut9Ka1zrmo+RrxggyvBeMFQDHGAvB1ruCRAT24bIwiHYbo4lSCC1YMFMZfLWGUxkWEakLw7KbyMQT0Qo0bX3gSQnUafqPqfOnZBjjYwPOVQ3M1g4SYVhBa5B7HlhCfV8V+xTnUqkxyIWkym0t4KZ1EDUbL3sz2Tm54ThNPwcoBoz3VS1hc8GLgnsDpeW5vVObr++zTYc4VIzdyhVK1JodmLijUeTJ5rd04xkkqkwVHVXtGvyp2jnMyRyUM/wDUWYDeSd4zxryT8tyqVeR5K2RPV3JNLasPOtvJG4F7DqOygTcTkdAg+k3B5K0w2J1V15pkj5UW1MommtJQxaZW8HPkuIR5LZ0VGjVdBp5Cp5wDlPLzFPNrUGnie4ZJR3DLLR/+lFQQddssMO6q6d4PmBRdaXNbmxEMpupmnyI1Qq1Hmj2Iyt0ym6rTnWFu6TcPHX0lVXueGA6TqhT8RTc8HTKoupup6czkI9EROEFZ8DG2S27lCJD3z9o0CuuvIOvNNeXneR6SuayipW/xDdBOqaH4YPlCgZQrVKvE4Tum9FTIcQ23DAqrnxg+kJ/iqg9mDKd4eiIp7ZYbSjvrnTiU5/hMdGpt/A9nDCgYPVWXk5hPN0OaYVpF+dVNPB6KCwXdlUa9t1ya8uYHk8sABERw8jtaCbQTqmQ69vyu6qtRquD280ahfxlwAB5BOY2CAMu6pjmf4hirNJFUmJkKq57dy8ekAclfQdwzHEj7MujmEcQUPFbq57zhwKh73ta75vtKdUe4zOcJ1Rs/un3MdfGLdEKm7kNFvCmiHTGblUc+rug3Qr73NPTUK8EfhByBCB+BjZLwXcuFCKmHH0FNd1OSm1d61xA0WFlFNlNybeiDT/CZ7VwecyBhOkGp8oqjmopkXMiXuQ8PRF2cxzVGB7Rw07ou5nZos7OEqCA4Jl5t6qnXp1i/M2prWPbxnixon1HMDmAouaC1q9mHOeE0sIZOqIyQOia2rTa4htolPNGHsAnb4Gp6qbR/BT6jhqVITWPZkFQDrm7oqdS27l/kUC6rDKjZdKNCAxrmggxyVDdG6mz1yqo/TtfVqZnoE7w9W7djIhMqsfY4uAcFi7PDoiBj8K+81ByJWU+q9/ERwhqe6wGn9p5ptO9u7Ppnqql9VrXEzGia/wCYGDst+Ddc8M6ICrRD5OCmtaSR0KDwWjGkqOa6rsmyqb3NDmd0/wAQGB9Q4a0qpUB3pdrYfSFoN0MAN6rdNpl1SeIjmV+vquET6E1jBFNui43LAkrRaISAsYKzlf2r9O4nd6AIeIp090AMwUXNqbpo+UlCk4RTAi9vNX0Sd0VYwbx4dOQntbmo9ucf6VWpllRvyIbyS0ck51I8TjNoUKr4ZrZc/Q9E5sxV69FvAC5n3LorXuNpXAeNzoZPJT4id3TkGOaG6nDYcftRpEa5HdMdT43H1EK14LXd08YhMfUqBrxiCmtDzEYgaoACBsl9Voddi0aITqiXUQXFF273lNo1R/OyUPgHnoipxjqvaMeDMAg6qm17pP29EWtAbb6u6I5g7G7eFxCNMu4Dqg2kAzkAj43xFQVOgHVEN4KfQLJhayVwhPrF9lNuFuqcuMqx9PeQ2SQjbwnoVxKW5WCAm0qjy9qqP8PRMDpyVCoJa/0kKrTdFxGhVSq98E4ACp1TTvcMNJPNPaavsYDnuRDMNv0jKp1RgPR9NIjQdUOX4TRXLmueDhDfNIplpDWD/lAtdLxqOyypa6ITTWmoG8uqfTbDKbzLjP8ApAUjvHtM/hM8LEVD6rVSezge3hKFKsMpoaxpLxp9qglu7bpegDVbf0lQ2HE9UJ3cu1A2v5Kq+ZypUj3sDZA2OrBoPLKK3bWF4OSApe91Is0HIJ95aWk4PNVGRDzzlFmoOdgn+Vqs7ZGCgHPJAWqydtapWZN+WtKruaz2xzd0CZXJm8WBvUp1UC7xBJkN0Cgm17cRsw1Q3Duy3By2qM3KpQB9m9/NHefsV+6Ln8WMJniHw1sgWdSqgotBqu0+1qcxwa1rDxPKp1KALW25W6qN45m4ovqAuY3RUKsEudIDZ0RpgmYN7loGluGyiMO/GzBRfW0cv1VNjXte20lvJCiONzDkOQqeIot3kc08sa2zl+FTNQsmliJ1TBSawtqZyNCgK0Gm3hICeaYy3QnaGSJOkp9N4Dbumzsse977btzcHNiUUACWk8wiL921pmH/ADLxMinUbZFyLXtDi4QJ5K4lpJOgOwIojXzY2N4YlUBWi+AITRSth+qDQ1sszHReKq0zMiRPJO+6Uyq9vA7AciLldOUyqx0OavB+ILBvNSQFTmd3MJ8VQ4gTAXEwtTac8IVJrHMd/wC47mUA72fh3zaBqUHVDe5hhrRyV9PLjz5KHCS3kqbAW0nibiVSc5odTa71T6lMcNTTshi+1yDuFhdqOiAeeHqmP8Mba0adSnUqnoP+l+pqFr2v+ZWNAfnOUBAVz6TS7qqhp0qbgnXg3Kpuqu7OsIOq+JNZn4UMOehCltMVLenJGWwWo7AW6K4a+777WjugLnVqduAOqfGkqW68lF7S+JcVTaKbX0wECQLbk928BfMhDZojWs4IRQR2cIKFzhn/AEmzyB/cqgy0OnhyFS8OH4/4VBjAPZkKsacyWzPdU6TmZc3Nyq+Ie8N/tVLwpaC/WftCPQGFomy3AOVdZLBgBbwA7onVMqVJ4TxHqVx8Ta4k9k/cXYPC080HWmQdCm8Fr9B2VRk3PcOInRW0aZFOmeI/cg8tNNr0TTDn0vvAVrm3sHIpm7lsaoFjXBxHCERWloHqdCa0N0wFY+nPFIPRB/hafK4uCbRax1/IOHJM8RVDab3nRHI2N4HOt5jRPmh/VzfEWlXAU2sYOXNOa9zd0/5ftT6bKga5jSWGNQqg8Rc9r+aqNp3WkRxJzbSvSVoVImF3Wi9K0Wnl6lHBWhWhTBCAqP4Gt0anEDCa63Tqr327yoOmiFFhkAy6QibecwAr31m3OGluigNOqBdRqMHWEXVN6bRlyqMsqVJxadE8BpAuXtiWYkBU96TLhPCml516I/pgf3Ri4DVbzvoVvalMiqzqmeKk4kHYT0VlKn6OypE50MBWtEb3mFocqA0yi14gERJVN8xe2I6p1MNyRK//xAApEAEAAgICAwADAAICAwEBAAABABEhMUFREGFxIIGRobEwwdHw8eFA/9oACAEBAAE/IX6jfcz3Fe4vafUb7i9mX2jfbA9s9jEHMexns/zPYx7meyPY/s9iexHsT2P7PY/2exnsf7PY/wBnuf2W7Y9z/Z7n+z3J7k9yPc/s9zB6uDO2/sX239nuf7PYz3P7Pc/2ex/s9j+z2M9ye5/Z7me5nsRDl/Z7n+z2P9nsT3M9z/Z7n9nuf2e5/s9zPcgjt/YCLtLJt/ZS7f7FLtnuf2e5/s9yexPYz2P7Pe/s9z+xPBh8BivIw+GwxklLKlSvDKlRlRJX415qFmYuqirEZXmpUqVK/KpX41+BaN468OXzUrwErxUqVEiR8HCMV4JGHwGWSXGJ5TykqJK8MqV4qJAzP1OPf51K8VcqVKlealSpUrxUqVKliKZUrwqVKleKlRhhIkZV+Cow+EiRtBERLAIDmP4p4rw+d+MolcRV+4781K/OvwqVKleE8VKlSvFSpUrzUqVK8KleCeDCVEgiXEleG3gLjaM2eMSVH8H8wuNlRXh8VK8V+dSpX41//HUSJKgfuZr08zOtkYTwYSVE8GkES5V+HDBn8HxUr8OCDU2s/Cvxr8K/BleK/KvFSvNeK8VK8V+CpUobczH6TNqMsJ4MJGK8EiSvMqZR5qJ+FS6Sv7Ep8V5qV+Vf8VSvFSpXmpUrzXmpUqV4qVMecyj9niVEiRIwzKPgVEuMJBHpM8NErzzK8kupwK5uf6RgrNI1YT9StIY1jZyEvwX0E6L0FeMRej4PmvFSvFfjUqV4qV+VSvFSvFfg+BGnEV4QZuVEiRIwJUTwURIl+EuOIBlpKfKvPE27fQn/ALGzLhdmCVK8LiJDegllF5ajFfSjUv7WhfMDavSCoVwLleF5Yo9CU0rh4U0c2Elrr7oILMxJX5VK8V4qVKlSpX48yvPHnEe5iszPiV4TxUqJK8ElQX4BEh/AAtqBWoNeWb1f6Rq2rmELMFV0lLr9SKOKsUtWCGFvqPrbuGLXvJcESSzUqAG4KCHKi7lNMnjS445Xab9Jfxop1K2lGCCXoPUTGH7S9B+o7X6H8D8K8Fp6Jh4V+FSvwqV5qVYQW3GGHwJmJ4J4VHwEj5Al+GqjGMEyQUmI/QRJD7cxEVH+ZiqC5NRuItEPUBwd6PM1MGV4JeBwYs5gwFRFAT3f9RoG1NC9Q705SK8rxc3A2NfsRDXSum4Co/BhXYlGVVx7h2Qof1CgN4teEv8Aukwz/JqzCwLFzlcC1Xsglq5Xmo6xDw0eKwbFkq7Zckr/AJUjDFRPBhhKiR8DDDCeDJGkfBZc4KjKfsb1Kry7VP2udxJBoLtmPmu4hHZTHapTggGXWZURTOnPqO7NqKI4GORimcEhhzLaG0/2IS6aInc3c2wP+5QADcDLisJuVw21tE3DfbjELnluBWg4dImp5p1lV3cGlB/JlCu+ZZAvalzavY5msw8E1Qbl4zYCY8KjLCOF58Gn5V+TDLLLDDDLL5TD5gxbGWXyRhvAj/NcnEooORYorl1BbNyzGRmFQsz6rmnmD2AOIJUHSAVBvWIDQF8TKxrgFmCw45kVA5FwM7bNQgTnGLHKuOmdRNZ4IuFpooIobIOoHsPnzOHnrmbHT7GYj9iYBj6RGIiWX0XiIeoGUanOVSC49z34ZsmGumG7QJzHsgbJnZ3HxqVKlSvNSpXhtE4aMsMv4gXVBMFw5hXhYYZYYfAIso9y8/RyoiYoZxfGY8WVRLk8OeorRpOxuWV03/pMGiMs22suuoanBmX1AYLsArc0q13BdO5Ubm3uUcH1mdsGK7jqFCmfsFVcLVLUDLPOF17ibYm0ksa6qW6L0XxHJZOVBa7CVI4co/lJWWMfsKVASbbswrZs4YY70x4Z2QDNUDWLDco7nxfDmV4rzXmokqGITwTbCM1EjDFTYHiSWhOHlHwUbVzQE8CRIjscAl5UAwGUoBq4OxVJttYlGL8E2XFmDQXxZfpaWsAbOjUVNO4kHhzK2xfeGZyVRUdckRQ6hCT6S7h3l6gNdUWuplZw3nmZTQGYCiJuo40nJLqsF0Sq67Ry7L1DT2eHHuXbJ3lmE+nIxolymBFMQjigRsaXVwzNS4McMFpzK1H8a/KyHEuLCzKFxinE6JpolklOIU3BkxAEEJcpCmBTKqCgqce2FBXBmPlq5GNLICVfMZQ/tiAAWrmVQxqo7Dq8zkLqHuDgWN+4olHjG84qr5YsoBtIA+qstrTg/JVLQ15nWrEpNqoDimJkRaN2ykOXUbHTBoai1+XGpOEokoUsZII1HuKqLYTqChRdvpAJQnvCRp5DB1Jo2vcNDAdNRpRrglRFtGY1Dz4zNq+CEDIhK8EzHxUqV+FeCCMgjTD4GH4UcMaieoYlV5qpXKPCqkDFonBS01Nh/Y0SrqNV1V3B6FC67Yju5DEKBojUvaih6FTCVSGI6MgY/csRXlZvS4m4swja3HUR9YSJsOZyKVUzEiUhTjKpW5Ud5Vk/ImqxeizAPPtEHxWpjDD3KV0mJcwQtbYbQK4LzNrA8LFwbwu1h2W2q5h9QEqqhamv6lIOo9xemzqPqqV5r8alQleVEGCb+Dy8+Q1CSC01jPjxZWzFLaUVEd5DhWm6jdMiZCnEyeSqnEcXFq77jIGfpJSDnqLnOoOCJbzHByl20N9zHTbiaosPCZp2y1eldRT/AEhllTl6lIdsps5Yb52gTdsX2eZUXkvFQOWts/r1NCyq3Up6z/gmZqvZEVnJomMy0CKY/gmfyiwdS8CEwaE3WDf2EAMMOmNeJcniv+CpXgg1FuKHksMPkHiXEhJmlTCUj9IRzvYdROU9oZnRGiUByzDK73NYwNym9LhJBoSirk6gNqi6pSMRBtRDY6IrxlAcS4ErJjO2Y0L4lNTYmGsUwqriJrYambsuK21PMthSS9Yupntr7xPSIzCTjq1OZbAno3KtsM0ahSkRWWZmCcRFNrSy9tV0DcLaq3oZzwixlgjj8alSvFSvycIxdRp4lowxcPJWXB4KEaFbwsvHuWuJKrOah+nGUf7RsfcpBMF9zVZ/+YQ0RWquYtx0Q2iJGRzLMnLwQPVXJcRVeIcAWhLSGlrNegRtjqU6xcVNOZXeHUVbQ1DWv+c4xvhw1+okywtTEEUy5XUXEh3XEpLJw1UTewmWItms11Lig2XLSIxWJXk815qV+Cx/hs8pfE8E84MS4Q8zlEjI0NzkU38mePMam2RzO1ym2xlEai2TJ+mZwuMqfDA5ZkxP8plKkq2YhBVfsxttcTXYIaDKgZG2cR+pMVMsogOMzBn8JUof5k0Adcy9cLqWJV8XzHP9I2vaJMUVWeI1/HRHKoAy6RZiHfszUJp9QewLDKDiClXmvFSpUqBKlSpUfxei8IGLKJe+YsymSfEJBGmDHFLHOmxE5EE2x/BjH2Iq/cZmEfjM9VBe5ZzD9vCH8lnyxbia8ibkm61EBd36lAVqD0DTOJR/bQpFBe0tbD45hDgah0FxNOQYAUhKCPEWv3kUUs9sZFNeiO2k5lSxBdIBTAjMWqgFuHUHULazfMc3nU9TJlJTKviX6g2iINeKlea8VKlO4TG3iVflmvFz4xCPkaDCBRbR1Ka5jl5nH/qFrodMKpa9xU20DiBe24vBXgM1oYqoRl9JYCqSrRhQiV/bBGagDUZQX6nAf2Ac4hnd3Gl1cssCv1yyne2Svvl6FuI3QhZytTpIXywDU+swjeWcBmBUAjIcuiW/Xosy5dv+UTadCd5D+JgVX0Q6cjIbihKnJGK3cYNQWS1i+FeDzUXe4PuXxIV5O7xUCbSomJkeClF0ROllrMuFH37MsENywQHaHFamCw7DHtUtqy+EyAjGMKNRfRMKCTIRXEWuqlCKPcZGivUHSrsnYx7gGn9RDdQzMMz+5CoIn+oIYBzU1WojcWDLcXqIgiLuEBkzhQHmrdkwhZxOFO0rtPDqD4X2paNjDFtQfSW7JqViBXiq8hMPkk8VK8vMokzPDRFvFgW+EtHHyRSpVjC/sJU3qS236QRu1ysQRTWyNGN8Yh1KHHg5lXZrmNRUA1cEFEUQH2JHUT1GbOPCjiDGkCRRQYtrM0bTQVitLOJMdEnoxAdShCptlNS3AkGBNRuFxrF08S74QqKQu8uWorME2zuemJEYRUrwxUcQL49JTct4qa8maJtCUxGVkK+EQZh8FUiFKr3RKWqwzPqUXzcs7uEwHXEIvKMCmYWCQOCUPH/Mri0uPpHxmXzDgZ1oC2CuyYPHsMzrSdJ8kBlk7Z6I7dS5MZR+5YJcDfsTmDGOKpuLMbWgZQq0D/yqOmSCChy+BWfC0e0fNSvBq3HLEakqPkZVNJngMM0h+Cd8NXYIEGXUzxYzjVEqdQty23EqcbYStEyGKm0xS8l2sQtKRI5DfnPgrw4YI1FwY4CI5JTMMtizFS1MhlWK26h9I8G3JEVxfGcgxASwGq9yt/UyxkW+ZQamXUqiw1EMufJhJlKmXhVxPxJcIo8VkcGZ+ZKU1y5Ry1Y7OMRUU9oGM2OJWdGYdFjcEFTpRvCpUKbTFLjWLh4VuVRMwRJizSG/Fn8bfwLTEbxdNzbiKR0saFyolwz2gT1YlS3fUCWv5HkSziD1ORqBpPRltZqIO0rMryb+FZleK8KlfgZV+AOcWVSjmUTsllwtUgGtsWwaUOM2m5gfcYIoCb8E/wAIeD+3ixwzOVnwwmTNPDOCXMfAywHmbGd5aOmWksuValFK3C2ZZl6mKBtMSDlSslKC/DWrYUC42SpUr8hHhK/Mr5NMshFEumcaMOBQtyzxm3uaUsKJW6WZjibU9uhx4YNQzN4MQAlpqJfiXcCiLnMXwExIvwQElRIpBiGbHUHAGNTJCsFMKQFRVxxAP2MtputfUAkKMxYUlspriYFcTeVK8C3hXkIyiSpX5X4EVwmznwWxz2ASgui2YDz9i5vVx8XrlAeFSojHHcw34cJpfBAtKmWR8BImIYPAbJtBDwYTGVdEsYeaKsPEubgDjEdBoQu+5ateCzKe0D5lhR4zaV4AlSpUqVK8Phj+KXE8X5cZaN5RMWMMWb6i87cMnzs35AykJOSKcdQZ9niIT3wXlAjYm0tlEPiv8OWV4CViXNmLlyM15uoIR/IWCOmXbLgBBk9w6+EZrcEVLlmDUVHPi+CpUrwr8BjGVKlfi/gnhg/nCNykBI53MC2JuGNQAQg5DUrzfuGLfplFV51X9gOv0lKcy7ZveIMRIcwK88WO3xXn2+NpNIkDfnlOUCWKfxgLr5Di7DhUpYWzqOBKh6IR9yziJmJCdJljFSoeVX4qlSpXl8Phj4Tz8qBk1QLzV2S/VYCzFc2Z1mJuOamsiP8AMt2Q4uKUVXQzArHuJ7FThL6uYblmYMm4cFz7Fz5GhLdRvMMvEuKBcAIl+F8AtxqBa4MymGcHqBT2l+Ee9QFwY+RcZyIeIqOEylRJagwFlDKcsVifhiVKlSvFSo+Ej4ZdHeUHknCpa/1M+MipjW3UpW+INErbnrcxjL2xD/sltpcyOpa4rmEeeElq3hiWbzQmFmF5a8W4Ja6gZLqE+UcgZgbJDS/hJdYyQHh/aWZ3GlVngcQ19yguhxKtxHWWy9RlMs49S4QcoLoA2pY4mKEw1icQm7I+URSy98QDiAkQ8K8P4v4Pl8VPrmYvXEVAxWhVTGBAePy8Qe2hGUveifbRYq8SuGJ1/KZodELZXomfWJbqHieaETHuaF/qdyEsyxVqksOYe9wbzOdDdyZlo4JahZd3Ls8ayrAheRb8SwiDhEyEgVLqCI0WRxqK0loRr5sdKGpUalRMJX+L5Yv4P4VKmINLR/mG22YCei9REO7oqJgmLTBDUw6vmJlBbGJhQ+1EUWd5j11PcSD7ypbMoYuUxxKiPFzDcpUYuCNpedzfYlZdEC5MUr/aNcWljZl7JU0KuLeCoFLzKFkcJVC4BKEOAXBCOf4h3AFEoR1Msr8Qs14LuCEYPVBApAMaeNFzJN+X8qlealRPFT96P9yl0MB0yAT2oWLM6UINixTab5LxUIW2FfcuDnIWpt9LowTFX4i0r7JXvLMTjqC/BMlEUZJiQBz4CS5S8Iarxg8mZ3MDpPZH2oh4g0hGsGWTy8GMCEr7YVyYovRGpR+BDT4B8mpqPpL5KCYJjgS6Lw/jUqJElSpUfFRJUr9XzKR4IyXNYnphJa+ArKFxygiNBV9xw5yBN+NuSoJ0cll1CqiKNSxe5YE/1CUkF4lHoqAJRcTAUltFoOUQdvFNGbsClYZs8IF0r+kG6u0T9Rz3BPuYTNU3Md3OuqMLBgPUFusS/ek0maPcwiij4DuFKV4CTUgdw6lj+cEr8fiNeIkqV5fHv4I5Q12Zh9ExJ6jDL4Ky4LCf+VozgrcB0/7eGVwUBxeI3q3TFnjHiO7ziYqOdhE4DMb1Gcy1hRhuZDtWoYqf3KOJjdQ64hIrbNTVKHMwDmplEPEdDtmCKmz7IXNBQQftY09x/wBwVqXufAVJlHwDFR4wkHvzFhuWx9v+CrwHXiKmEqVEj4rwVdVQxOmqosJkSy68IyJU1Wowxc+xl2HzMyNCMDJZP/WcIgrEOfXhY3x1N4mJoj7IKK2gmKdTAuaUsYgVfgjhdTZcffDrEUutyzgeIjKN78GUWA0ywZloGcxgc3bFQ+GOiWYn4NZwUl7yjS8PLxXieFRPCyYigWfgm8UifgXJzXNwf8y/epbCGLI8+5bYjvUP7FaxTF2lzLiPZU3kxsKwrIazb4gAhALX01OoQbNJ15l2ssZ8FGEELnHl5nxKfoc2eo6WjCZ1hgo3lYZLqWRcyjwEMCyy4wRLNSyJwj4MsXlJb+YgkalIxR8CRPA9ykSj0Z/ChmkLZiXiegZvtTMu8Q7kuHCTlTJRDK9zEQ4YNvnKVR8WpUXfgGOoVnuwCgYjip3HvP7mvxEyjVzLE2IPkABxD6RVMGmSd/C2PhCeJtC0vwUFIlxUVZZiPgUUlwYeWeAfDCHjfJMMM3C5AIJyAI6+ZD4hOJW+BgQEnBxLo9yg5zEVSiWUxVLRiwzLDwXJa4jVqPgSsWhEHwzdCTRczzwLHrVyILQYic4kzAvMwqYjOSM5QQ141fhvixEqYiIElGUj4EPBCVDHgzj5r4LKfANxOTAJUNFl3wI8eIMXUa1dR/VxHX+kLljR/gjfaDE5mQmLMW5kmaOWoPwGmaS6bQUNSvqNKX3jDK3cC5liZmisVKtkKi9TC2XkVqiEXJCEiEEw8DGOooypE1Fdx5lQfGHhlK8XLgy/Ab8FUTwl+EsXLxGMn2l+3axV5WS7jsMCsypGrWczJNOCV8Nf9QxhuT3MrrwUv4Dclyy+5nAZVGoCX+GvPhISV7jTUVyihij1UeEZLYafYg0uHL5AI0KgJlLphKqajGkwjSeye2W+D4GbRjVriXLly5cPwJXEjCPA+ZRPYBU/UhNovqUt5UohlfMKq1NWblAxVVxBYxC6qlMJThLjiO/HaZEVbuAqcMGHZHMYxtLwilFLg5ZAToDNJ9+5b5D/AH+DCJWV8TeJ5W3xcLTrL3MFO/8AkB4suLLiy5fg7iP9TfDIYs0HCVUhH3NZdlmHEbV5gHmAZWpTKPCMsKm4eGUFjPqNQMyaJUMzRGcoeCZzHUuIWFyQrphqOrKwYu0v3BwrPuNpaWn35FBGAmEzczIrzzOMH/guH4mYuXFuL+AAB1UXDAmEtXMpEKDPZK7PUYDsg60rk4hPKDZxDLzWfFWRalrMOWGS81LuYkMyAUUngBxF1M2dqOe8EunuvEWycR1urqED+AuXL8r4Y7ilwcFPszn3PeT3z3z3E9s9hLOZ7Ce2HbPWntntJ7495PU/CCHjAHul4nvcTJTHG3gNShlu5VxxGCmob/6UQyZJcQ7Lhcty/VzDrDKYvsUc2B42x41phmRG/Mz7jHCj+jjgqsz1MEgEZnBMdsL+p7SHd5W9s9vje8lfM909aPYT0o9KdFHoTop6nhc7LOWP5nfi5xVxBdmKuU9rxiDtRujsJU3CaYrynaRKHFeYNo92XJsFZmL0Y9PMOCDhErcosW/yE7QmNxMdIGHNuFJYdQsaZc4lJB/cPDcdnBhUzUrrhOEYTcx+BoblJiVHjE8f2sxptZr6inrTc33YpzK4Zvdg+c9+Pbnvz2p709+U8p7X9n/2Jj2j3f7F+U9mX84uQyl3KaTgY8ISaDL2I80v8yziG3OhB4xD7HMVQTgIO9R6RGFpTioRqGTlnNFyXPnTD44qF0hKBxicxrcHLhxCF6dJLyINjM7LNe4eFp4Xf3D3bERGxKJLCvUusS1mF4UCngzltW5eOdKuyRWnBUwS5mMol5HzGXc9UVElRgl2WlpXgqXmHgxVxLIHUTjD0hOBxjhIdM9Hhh1+4VVs7lR2kq8kTHAEA0RWHXUtGEdClWjMVWdlaZR+03Eq3pFNObyRk5PExvUxAT3K7MGFoZDBBAFFnUVilqqti5dc5iQVcXM5EgM9RvaN+pSNzDTxiYJaRVluCCw9z4NGSO0vr4IcTOAiGyJ4qMfSMNQXREuJ7E21MJXgDGS0B1AeI+ng/SRLmDJAnET1PiURbogeUsdpwMS2IYNGiG7Ej3MnMKZrE137qhi4MVppYD0xzIKaWwklY31AZ5i1uO8ixmHpee9Ev9noSiEQGDCrEROvSWdZ8msq7JUrXyWUnRiDRj5qFcTuiZ9orsjYVAlNC9s4Ea/mFSwStcHMXMuJValgalQbvS1KaumDOiK4hoo1ERaa8KudKdaZdESaJY0iTSIanonW8FewYg8Io0i5ToqdbFNR0UatJTNaqTgPGGaf5A+EF0RDHxAIclkqd+MQntZHwglUDw37RnprG+0yAAb5HuFtdRzLfR8dtwc43KhRcZeCTlxHStnZMLdIHaqkqN4wXT9QDSRoQrqqlPBD+w+KvJUHmp1zMhkspiqzI1LhiBKcIYYw2mX58RRcSyyhUu2LtJMpFkQ1p4jBTPTEc7aIyGWtQxPpHoZTwxJpiOGFbeA4qIRiG6gnHiBwUUqWG/E8pAmghhgnfhRuZqXMojjcVzApsIIEvWY4ojuqI/jPqEM5qyVO7rpmD+BLWDzUAzhmex5c3UxI9vgsvAZZNh7JzjwlQjYg7iKATUzDqXr0gxMG9EPMsVct0wFC/aHYL9w1qk3B6fQU6xCvBCYH1mo6mIa8bNpUcbhUgWcqId39sa9TVcY0qZpzQwwSSeV6hMdNY6dxEvXDzKkPiK5IlnCbTCYKmnjOERWiOlMeoJ1Ep1IX6maDceGDJqOPFE2ls2Fal/jkrhsqZ3B7+ixFajl1DJM8rQkRGfcXFOU3YTF8sGF2Rc4pajCPIDFFSqHPNZ/ctpwyq5Riu0bu6DOoHoaJTuYNx1Ev6Yx6cTIsDUzKE4DU92MjWWMBuqIaY9Y3B95/HgBzCoYY4RYzGzLRlCsrCYZsRTK+1OWGYjlpx9ioodDSNQhsOkOeUvZXmBocQ8DibeGEYVYs7iUFjGrCWpfqIeJUbmKFnJFjUC8zHAvHgHYlzFQTZ/YCo3q5aFhfSZ7NajMtTtjj7LMDjWTlnIC6Jx9lHQ0a1DLFGnTE0M3S5iltiiIsWzcVOOjslEqO699L/wDkLhiertifFyksyIUaRbIqj5KZDDjVQQGlXKlk66lChKDG0j4uKuoowQcJtuXjeIZLZQY3Mss5nNGaEVKcwiDCxRMmyC41LagrC/TWITKAMFS7kTywumYOyFAGe3i5YS4oqnup2O33AZUsqYhQKap8IhiMEXbgYioFpKMIMI28URLMZRAVMIpEHcqIjHDG1Q57Dsj7fVXZDuEGLiBfcapFSrdzPvAXjqYP6XppCoRQfQnzB7juWMAIW65mFwzhh4aracL3LWgKbeIPmBL3OyG4bZe67DsQBOlReBinTU175mRzUsTygK9MLYjetXKzrsSvgTMsl4ahIh9Tar7E1WW3GoIRlSmM6mYXcbpLaGCZTaWynKcnMyWlGqaR8YBv2eodTdZZV0kHNC4KpFNBdsw4J4QypnSFbuaF/aQyyKEfZQp2sEIuduHrAvVs4hZWLSRAs0yYJ7XqyVH6eEELMkBcAgECsQlVLhCVKlSobH5oL+ymGPVDxLGICgGT7MPXSwEmPhcDgQxa/sb2X7XmN8LvLOM0BhZFCuUPbpK+gV9OozMAdUseJV9Q+Dz7TCwyrRtzPgKt01Mori7zLuGBmZam4LlYcXKOjhZL0OcVEYgwk051PUIVFhAAQsvEKGKwHceHty3Ac4IxG1MMleFQy7XyFpjU4CMznW1ATt4KXqVDAZz2jjTUQQUbjLkue8O2YxY/LD0bD6iZWiq6frM0A5sW/qU1VIF0r3KsFQGr5Kdo0bUcT5b32xqx1GRiFcotnBLotw5iuqysP4QnpVNEjw5ejYQ0n6yw4G2YRkWIZlCUiY1hAGE4oLYqX2NX7iMBU2OcQ2uj/tcSn2ZG6XiWb4RmwRLH0hI2Bd8JelZ7cSnlBQZ2lXWonOpkFGYAR4KQYcq7SXyG4T1Hl4kKn1PUedkbs6JbM2SBSiRnVzI12wWcDBNsqwW6iAFV9FOAlG9gRQ1FpXXqawJUq9BiowZnSEFKYvsCWGA7dxgZ2YJKrEX0VNVMfA7XFbUSypudIMXAsyji9wTX0zCNtwEFTZvBCC59JUsxWGsvctHw9nwmqFtqn2aVSf1I8y3ZHVylWrpxDdbFY9TPtlinUS91AtfspKYRpT9l7AqnmNQO7SRo4ENJLgS29IfYC8Id0IjswCEWSmF+KhhC7GUf2JumbIz5sNsrtuqzTBvHr0vuWzUJzisM3H6lWwrLK05s2xUCZvR0ymK/ZYe0WBofYENtBOI3V6TmcM1mLfWJR9jZe2iZZQGxjphXj5DOzzOSPMS2DPqepbc2w4i0DDHF9y17UHME0KjFTLeGM/SAfqJCGZmMa5eITVoNB4h9y4TQ7lZN1iKBacVP8JimA4mDX2wNH7hCqA9wEYUBLjqVAbkN3zLfzLOj2ytaFwtX9jcGxrCE1gVNSmpDtT7jiaFVwZV4ILdS4sRG1Aqolcljei4lQoZZKTJNCoe4Wbi4doHS7m8uQsfuXEXpmJfn91WAlwAQoOdQMCbK4mO0leTLMMtwZ8sN+kxNID/ITAlbYaJQU2LFBC/lhyx6AM5BDto2x/IKEV2MsUsVAdHuE0fUuyPwSB31qK6wuEZhIaP6lQImGyPgj2itjWJd/mqWj4zPCFNj4wA55C410x0S+4KIaIaecnDlDfBp2kxVdxyyviHY0puFaNhMcNOVnFZaq5kuZ2JvIov8RNmom8f+aioU72WDBCECpggzGEvw6uWyUyP9sslKo4EHKIsrEMKC8GLmNK6Dg+iXkZldzBON+70QDOAr/lU5LI9TNMAaK9S17p5okHszMa4LBMtf0QnUnoMJnlZzBkVYM1HOLI0Lwf8ApKh2ukNMpzL/AGZIT3C9iUJkyhHnNwBnARUVDp4ha1Cri/e2P87dbwlDHFDi2oObAjv+CJSvqYW5cZABuu4RgLaz+CDHHihV38ldgLOGI4APTTBKJ9tiJ0IvBYOf0Wy8FMq4PeAmwjliwYAyF7H1LuWO7QNidyo9ZRSvcRWC3uSh3JMlQs1l6vqVOoGQncupODADLrD1GSflHDqleP7ShrDiDy5gcmJ7YXsy3jELjSpZcuc5LhiBUcMviUTUYNjqEeQYZuLfivr7BviKSqDcrRuwWsx1lwrqaoVwkSlkEgbWUeeEVtisFmF4CN5Hgjwfg9yC3RM4BKtAcXlBQyKUPLKXsjDcD3QYlWcQPaG8w38cELZx01F3Nx7GMp/9XKWyNPDBaoOmNTHiaNlfyA2rpjlQZdbr+CXC/wBkhFjiEYSCH0S8TDtv/omZf7mLII0ZGXTF60gdPSF0BW8+5bTcbw+iK2M4gvtgKJTw+iLdAK2z0MNEQXt9Y/aXWpMXVVa3Ue+t1MLBt6nBrpZC1fVplGFcgCyupgKZmIGZXN3k/JmUG1w9w7oPMXB+EUTo68RJYRAyXM7W13HPRqEa1Hsr9RBaoHbiIlXuHMjRYGWvFKfZAINeFmY5RPmCjRfc7OrualQz70O2Na613ShTd9wqbtC4JHRqUW9RqRIvuVUYhs0f6hfsF7itSidHDGc7xAzUreNu2C1q6oYrtgA44W6XqK+RocSqLXnmKe24ZVxKMHPWiHkyVlzMwQ4ud5mXA0KfF4BCs5Wo64v6QOBuSAU08RF1EX4iiyiSuPPDBxvQeupaSY629JVJcmlPRDYaeVuyFVlWvkiKUqtq8DGkBBajGiVzgnoq9wXGFGUvJ+QLxhdp+wUu7UtcL9RU1tdXyYDeiLltA3/uTTohDbF/PrPP1M8BeaSqNFNiIHgw17pSQwaMQAjVTA54ZXQkYI6zLILsuHZhhq4tjEUu1lTMowLeAg4ixi9Mdl7mMgbOopQhvQHdQAStOVvv1PrE8ShvGSKh6ziDEgGXJgu2GTBIJ0glQ1xwCyDNf2nbUudOU9ROv/qWVuzDoN/qMPFwOCk4XNk3AkDuyLChKWu0OLEs+HhUrk0L/BOFzWItkH8s14NYzLyAcRyNjuKZjMJ6dReytIuoHbm4UW5yy84mR1NVaEiyCm1l/U3lMjt9wQ0v9qRog3bP6mYKcVuvcuShpGCWq2MSysDtjGcTWpMWkr2y41fcC83f+q3ETBM7VvUpqwIalBIaRIfYtkDooddSqXwalSlAlUykKupqA0MtGcQ1+jhcRAOR1Cv+JcQvD98dyjxUypmFoKhlnfF8DFZcwoOCbYGY/wAiL/SJnf2MMynZ+Q7IvdaJMIb6gjujKq28wlyvdzNUoNv9x2zyrg6qI/bLRpa3PREJxrg/XMxhti4+GXswozCYiY880JK7aONQItKqirhhasL1KlmqzLGDSlthcjKwckOkzVcmPuYA8nqXLLuhqFoK4ZYJVzLVFWj8PZq5ruL0n1xMbmbgxMRBwwQSQ4tibW0vMK2rrvEzieHhXuLLGGsEz4b1cfpAGPaNyyNx3xRL8y1ylzWM8hjt1mp7g9dyW/mJsCzdMGe92WQ8Nt9uSNqEps+RBQXoxKNLOv0ELO9JfaBZDPi0m0fkuPEV5lc04kPYuMmHEacRXUTmUEfAWKYtuWKhoKmea4Xq4Sk8OSzuY9INyR5IoKx6nRS5bpcbrcoI7idF+pnlZ9v9I2tV6CVKZNAyrNsXy+005HmuYKYBAN/Y9BWilmNBKYO5UqLGpa5IsahTBBY0tV0y6W9WVc1TNSb9y+IDQOWZsYAbJZLwTtlRvs2Gkiy7uICPKv2iEM1FfTMsKhJJu6UPSdkaU1BA5eJpWhfBFS1Ooh5TQB1vEVNGEgNXF2K80zA0OZsPcQMVcBvRACNMMfUTNgHp+/kL/Q2I6GhsYPswoUPkqBNeMNqk1zvshOq6aSiY/de4qR7eTuu4KW/ajMerRa/IYlx7dD/zSpspS8I9T301G4VMobJj8hIjUt9R+I5MmUW/JagI8y+b8GTCcn4FskA2cQO/2xSVcGUL6mFwccJ6qUq053MnJ+9Q/wByZokGFBxOkETdtWIlYdwf9ygRpbv/AOIfoljX6JhirvZS2wv44F3LTytspjFzpZ6hMhJsmr1iVRoTpgX20ZP3B1WCrVMPofAByzadFLsPkQqYUlRqLz1OIDcGBiik3lYfYGxF+zuemv3DuVHGSPfUCYrUFo9TYCmwt6GUHc1QTERHEWJb19xZoL9UdFRh37JbRh1oOI9eKSwGU48krFwms8bjuJeQyL09fIym6aw/sDVVL3i+8QbZhlFP2CFF8h1FCgkbgV4idkRHI7hczlyY6Mf9XEHJLk6heH341atSpNPFIs9kq5jPgS5cYympa5xG0RjN8x0u4kK80vMqxauZ9x5D2ugeiaolA6fZVmwiP9hAYdiFsOcMN8ksGIZKg0C/UzC/STplHY4Gu1Ny5fp0v2m/aLS5bdx86r4Js6GgymHMOeG+R5vqJfuwfU7C0s+CIN+4s/OaL9zFkgOz8hUelBcWvX3WKvmNsKGxrqZcV3tXhKSUNI7mdy0vXyafEFgJYVsZRpXUah1YjQ4BDbHjDmce6czLwhfs6lCJpYx3ZTgXpN+JfRQ6Wkxq1TqwgCjcDJ0EsfDqC+JYRzXuCFa+CWsK2UQVOB1Uvnn3EAdQ2qlqs0ZnKsIlaSw2zUzhYGkAdxBHDG0uE8CAi8MXwMuYQ2WX0HEv0Stom1BFiFxLfctQZrzoueghWXqWnpvDP2zloZeVxCyYgWDMurx3FeG+ZW5McT/EixiP76nUq1tiKD3CKa2zawqLLY2/sHtIFFY6Je3dkM3UHEhAEQaQm6JSrc8xwsszshbTqE4OerqeOoN62TQSlHelfuIkviIMgrTMGjzAq5Y1oZN56JZ4uGTWbQGFb/c0Udjyga2kxaAtPA5KgXlFNJU0lE17SnH4w/cKyPa5DLH1EDyZrOopZUKZpoJf5Isz96inqtVX0zfwCvCTBJ7kW7hwoV8v6mSx3wMZRzFLERCeZP7h6VYQ5RCdsR6tW2ISGuSHMk+8Rn4q+F+C+bSFu1PQIzold2RbYXzpQ9y/VQq1PaoJSz89eSIItsM/cIYBd6YljOobufpOo2kZuFuAUXczacYl8eEDXhyTXMA1NdBNvUHYtgZKuAgL+gSsw9K/abu1JYbBb036IRpcT7GNN4uJVxG4YA8LwlwLrJNUblNZ4gHCqlW64jrwaR6xoDq5SPShx3MWI2jY9xiptH+QFsWs8+ojXjWyVHJ3pDojpB6z6wIZouReiJHEQFWdwG/XUmjDU25fMuIcfyEuTRejBkarB+MU1GTkyrc5d0fECmkPF7lTE0k/oowVrpqgPrMDITIyfYsNNFT9lTCXP4Xbu2O3qF6ctkWigHEryRUxEfEnuU8GDqJbcGuURYvGC1Shkolon+dOHGNpKl6kGeyxxZ0cQNVGVEV4XcfOsG1BSvUqocTAbvqZo0/kWXUxWLsVqFRZcIKSwFWsthbQTcDvDLUx9MIs7eolHan+2WGdRyczvLWYSpsq7hofFQjfbWZZzl1MCg/zCIJIXH7jNtpL/B7mHcdkqQusxqY6pu2k6jz3FlJ2wc9hWl7ZVmkCCh9jO183wweRXOK9e4iRPZA1OVjpBwLVyZZtN7oJYAbXTkmpeOoS54xNOV3FqLtIzKMIUJRDuDlDjN4hgmNiVdSpTTXqMHIZHc3UNqZSV0pWd2IX+lC405EtmF+0WHNeFqjdPY7gRdMkNlzGzOFmPXHrgkr2RB3FaTJYxho8ewxDjUqBoj/JjBxUTP3CVg7EpPRHdypQ0a5hSjgdGYPQA1VjKBVXDmVkZcxtZBpPM3qED3MYrmYw4YMGF62tTbulv/tLPvO28EFYlLaM8RW49joSvhvDWonKtTt6Q/OH3MzUpAbX1CpELZO1s5yF04Q7lQaHEOICAzjuCs8zo9TaP8lYMERico9ZlNQAZ947siSaiXVEcwCZNj3w7wzOIKi1RERcma7l7hAMLnQPz0xG3Mz0QgBrSy+4djL/ANWXMg4DNTOJMPKTB46PqoA1am6BuOcIWxbA2WfuUy4x1AoqFg3CW5SkAo3xiC2e0lpfZA8YDD6dzQzqLsmeqrM7jwLPUqf9Ef8A8KDh7imA8J8zlH8lrC/koMP+Q738nYRKzKrhicGFNH6ZVn8Il/6p/wDChAeXqAE9VtlnK20CIGm14Yg7AlVJH1/5+XqB84Aoj+oo2x5vRKW3KFDmDJlynqXE9tSFzeqirQ7iM2kE4lJma42xSEjn13LN5scIFilYReeY8BLehwzgxocjFOYFvmXIxNTG8QAYW5BaS+dQhyhdYWZA+yybFZZTk+S7k6Yahu1bxuM+ZoaZcDgeFJqM8hZif//aAAwDAQACAAMAAAAQIRFiqmPlIyjkFnlfvBqGuW2rn4gAs0dPCBGdjBTlUNEMKuofMGWc+RDDApUjcn9Od7X26yKi3qUPIOFO2DjlYf2IeXERccAZB81E96eXy31//wB+/vAK1Bz1jDQyMU+gRgX/AJxxHObqEXjl+9R3shCra7H8XOUI4fawIQSgSW6sK2gRmXL/ACWxCLeyFIZBuDBPhApyM3/ptCVk7DkJ/gpnYZrQzMNZKAACEAAD0PShpkr9nKwu75WcgGhtx2HAbgcI7kRQ1pBt8wtpnhqKZZfZIJ6cSUuu9MM88XHe4BjgvdP9cAqAoPQNj7rVMteLC4B1eUgkslYyXixdZkqsDNdg4A3J8zDG8kkaBeKGNt0R3loMB+8bATIduTX8MjK/YSutUWzSzb3kR3dltVG8NcUEo7B24RLRzXYW2ySTMLsAJEmlrf2mW6nhsSHu973sjMCyyajC1kU/aOsaXSKsuUO3KUQW3VaF9wrg/U6ddfcxIEW/tyua/wA+azfseUxCqP3PdGQlkawM0tJj7iZsuSblTwUkb1j0IfoBcK6unlxcv8PCRAj1MbV0wRzPy0TVM9b6rC0i6plCbq+r2h0fnPA1DoE0wq4gLIDejBDImC6Xx9p9mnavE/trr/f67E7uC3ZC0f8AgUcg/wB7hVYsTfBWtXd/dAR1hhaHBJ+SAQdoNoJnR0HDiqBg3zK3gNN9LQA/Xxuuu3XXmOSWAFGRPg6P9OORBsVr05Y641vyYZugy8rkPmnagkzKuHI7ZG38lQuVkI68Dc8+Q+S9Mvj/AHf9KwDtNPFgcYdBrOgXAsIbBvw6FomHZYEa+F07/pPCLNVzchBO9V3gcPC+ZfRdjUdqmEfcUuZVm7NO+Ik9zroa2FQo3mva3gqzgtS8Mc9yg1XtuUd0BAw34Klk97Kwe1OhwywUX4jFqLHMnt0Ui455oYCSuC9D9Jad6Y07iRc5Ihdeu7/g0UYXK/trPsYXginF5TknWzzSOlHAMqfp/AUvMrwJj+K5aPOd991+l1gPdA4WFjU52/fxHzJU190qGLU3+ZG7rrIJ+AhN8Fcyt5Ni7sBmTaSJKvDqPZODQZF4MYCE/wAWSDGE3Mp7ksiwp+kUNQQ36DzRWS08mdhncK2onydwY4+5WcVpa2Hzjj5KiUeTDzCROyLnNCpM4VapAWu1DlAPInwe4IVHGYHNiIZGd38W+teuGBTqlfmwyzqL848eanK3H0JdMEomD5mJGkWg+Q79enZJwnQInU72MRDnqjCYPD4vmpxLrLpGQpLJKYwSiWG8zRRZjU6xH+nD+A31B9X+cUEiMo1YoZ0kYq2fXvbiBmk8vlT+WWg0IB8JyBXKHda0DroJnnry0Vw52gjnmWLPTTsrR0AI98Ze0IszZ165OFg43R/gNeXMT48MLecomg6vPyN4FzwH6KD8D75/yKCB+N0IB99wP732B0KIMD7/xAAkEQEBAQEBAAMAAgMBAAMAAAABABEhMRBBUWGRcYGh0SDB4f/aAAgBAwEBPxBJeXWRnJ23HL2E+iF+wiF+wv2F+2v2F+woVolfqEfdqFafu1ahf21+2rVq1J9Mray1+2rfx4niRs4sIYbwjyXr6vDsMMMMMNue2wMtttth+A2227bkMu+wDy234bb8DcoaTq0lEdgfYvMu7k8chhhtgeWdjDyGG2G9j4223522222222YY9jqn1Orr8ePbhIfZl7Zq/UQw2xwBelv+mYxH/VmmD+eRm5f93XcP3OQw22/G22222/Jtvw2QdZ7xh9zqb0hbJ5dZ/r2B3S9S4SPGGQ7/AKfv+IqJf1NYbBP8EPwsjCepoQP0y7w/wym2n4xusH79W22w38vk2222220kZms1bSf3ZwjsD6dnLEY9sWM/+hQ/IPAs+4uzZZ8PUgIjKKZX85O9+fT/AOz5gn0264T58fo/9jwXJoOJ/wBgP/y2eRL6fhdcmneJtXS1vohvqjiYP1mT6vW4fAXCQt2Hs9j8ty97OuzyeFg8f/bgimf1Fbf7sHoSM+sMbbbbbbb1Cfe/T7K8OzwPLFAkNDbXeLPHSc7WsADv/BAcD4ycvrlmT/EfOZeMwbNglBaPoen8ynnqd1C1jrbDbbLL2ZcH2AH4BgeEJnJ8tBpCOopziBbnx343Lq2E235zZ+PC99jGNk1+hfc36hh+dttb9+GG4svJxENXRATgI6wpbz4Vt7eXCOx+y7Z8Z8e38smuxuG/UxLEtttttltlz4ympJ208uiAt4Mjjsdhy3unxFFuykIHLrZBZ8e3GZJLUBuXn7LEblx3G234bbLb6sIexJOo/KRSw3rBFstmZP0E/wBwXsPiD5PBloxvUqdLW2O2O/Aj7Mzc2x5kAalinIbkixtt+BUeNCCvJcgh2wtGiG9g1grampe5jyFmz9mYZnpH1IPSE5YNZDGT9+D2YclkObsd7K9yB4z+LV9p179ThyT8+EGWDGyHkeWnbR4xBSyziMAfC/lvfg7ZJCLYYZTUEI5LDMydM63BCIe2u7Ozlsv1f4WLJ8DkcD7h6gnGZHJGDC9ts+SfgufB7AcbBkx+EiNP1EkR2zxPXY1yyuSPq3ZWZkyQjyEhr2URcvgAX1kw7bkO2Qd7ZZJsOQls2ON6+PqIB7Kdi+FvZlbls4EUbaZN8hP4v5WSQvZLykMEF7NnFkYl7C8JgOfOSkDfphC+Spa3PkmT9Q+HIDmQzWHWRrnwoE1+AT8s/ZmFhJJMyH6IJNMhESA8YDpYOkwhLSQW7ITy15sephewnSU4YecwDWSlWokvuZfYBK3pKAezmQwxJjMsk2Nfh35JJEN96S0fwuC+glu3UR1EBRvCXLZe9KHpMkHJVsBTt5Fkov4BYMijUhic6bM6MJj2AORHF+qT8skfHf1LPZUn1J3sLf2bD0hzLB0jPZ7GA8tSTLmyk9MiwzjPFBMJhHsYH3YKfYXaiBhOoH3ehPkZn3N0eWj34F9Wm0PYE4S+J+iQeyWVfbn9x6yFoX0pn26dvISGS1i5yCMKdkDSzXYM5AtZ/J15MQ+uH+pjjyBBbBTIhP6QjxlMJ0jDDkD0h+CAklJMi8gjn6Q7f4ITAQIg+70jtlj6gpGp8WxNlEU/cCPv1GqziUuQXlxH4RH9hPWOwkbB9xyLcvsli/GGvIfwTY6/4hy06W87PTIAcvC+ruy6X7QfUK6kTOSxtkfrYuuHX/MchdPYHYRblg9sBLMFI+me/gEg/BDKSKWj0IBfjxto95aEBkDsu4Q5tg5LghskxkZy2XLs5doIaCf0gsvtgS95PA2ooyV37tHsI1jK+rNl9b+Faz8oB78E/mv40fglj0FtfXYF07H3WYQ8n3MtwhTz4kNnYEwF9x5gIDvqsA+7GewP2Nvb6NkLFPYNnfbMSAaT/BKNU/jYgKf3eFW1fu3NVsLVpr1FyYp/3GX1/baojcevjEhDzSEYe2TJRchcvpSrZhP54+45kZLUPHXI84H0vIdlf3a+6/tvpXv+WNff9x+n+7Q+/wC21fv/AGxr6v7gvVf3YOjCE5HKE+75dALJ01sn/wCbxrr5EyMjCO51bhYZPlvQ+FjtyngS961MbQ9giQZtkLdlnI1WZnRmWzU/5CcHL78XighuD/yC5v8AyfqR75b/AFyCPt8BeEWLxGdFu0C1bhCuBBcJa3OSriRfCEgzJtjlnSEhiDvt+1F8dvQZYYyGPcuBIFW8TyAcLG4Mp7K9hiEchuYlnWybto8YxzY/H4XRYIQVBGED1kHT/dsaiMSAQsmkOjICW25hcMYYxS15F1OSkDJlj2IOzLR2CgfJRvUld/IT6lk+KHvv2GOtr9mKv/WVmqV4rE0PuPixtvxeT8+KB1jNTwTJBy9A3C2AbI3mhUpyQPsZHnkeZGewHM1gumQjMP8AqfBxsH+EOQ/b8bex8EgC9uDhGuJBp7KdlQQJGHSH9lq6nxoGGjYYPqF8gZ7UvGIwjGsXXZWEwfZAi3q2N8tvhEOzBj2AnY9w7Idf6hAYwE0lBy4h7tto+Hl+08DYGR4CRPS38QOcdJRpbceMg5BwsIJ7nJJgyH3ZH7BfJe2fLDF0fuS5B9gdyY8Sx2Mce32PbftmXKw9GV9mFhQz43/E7g5/mQDS5bMSx5AhtBl5mO+fDLDenlkZZfSUeREwX+EWAS0c5auM9Q3rcj37xOCZepVfqV6gt4uNtmHkBfR9XmZDpM6eQceNwt0/G1UsfjPjKBKTxj7IX2RCzSUwYFAeWj9GHYGVvLUIgy2bQCWLnL1ER1eSZNZDh7ZMWPGB9TzyU6QbLj5aOPk87D2eUtfb2UkBpIAISeo0TyddtGJUbY+H+Mutvwdbsjvw9Y/BuhAS4gNX2Ap/h8EOxh5Y82DIScNJNbrjYdJTjBSDF0CF42mcjsD5N+a+4s+NttjOyLlwSyPS8fC4kNcjfsldYCA4WHSTLQ6TDsB7acEQfYVdnDkCaHksgw07fsmkCEOOSVYh4gCA2MsWLkrLXW7+BTy9LfqU+TbCItNYd4eQB2BtlzkXEjgkSBxdeyE7YLkXi5dmx5EXsB5KiZPx9ly+oCRAyT+D5GAbA7GvZAOQH2Tt9QKRO/CAWWGxSNv/xAAlEQEBAQACAwADAQACAwEAAAABABEhMRBBUSBhcYGRoTCxwdH/2gAIAQIBAT8QBBIhiEdwPcKsLLCw9RnVhHCwWFgFgvUCxZYWFhYsNgWFhYSG8QD6gCwssPli2IQ1EHL6+E13aef3Hy5Oo+tv27bM8Db5GI/HNuvw9+CcL0sMORqXgFfCHfw2GyGeWZ+Iw/hu+N/BuIcuVxNhiYR6XJDsQeA8tgOZ6Sf7F6J/pbBv+TmKP8ujF/slln4DDb4XIdtnw+DfVgsIg7DD5B2Fj3GrYbsf+D+2vcPhwXJI/wCyxi+Ee4YiJ7Iw5P7M4sfp1KYS/Pf4bbcpS222XLfKyGIQgIg+QBjU+zBNP/uW09X7e/Ob35dJUUXH9Q45B95sDAPs/wDyI6hkHMQ9323w3ZwYd48H4ZA6PhIQr2G+Fp4CcOsRjp+EcHgdEXHncu5tlhuG9w5H1y+yWDQbKwK1L9OIY/n1jEBfZxlu8RknMr1YzIzibrBt1jCQXz/sy9nvwWeCyHLd/Dch4iBapxOn7CPJG8kBk2O/HFsw3Nthltsh1KY2Cuxw2d5kMdD6lfL446s/DM/8Oy5KYndrDT931iO7cttt8ZBhMjGNPFsj68GaGXDbZsI8Bgn8GeM8l1HMG2I8wiEQBiIlvF+rbW1ufAnx8ycxrixuDLCeUNgQQk9wWgc2bFiEZj8XwOTDGA0wepORsSTD433b4Cg95DgmGHUput2mOEGxxd+I7se2A6ubiceYbuEjDTw27s+2RwznqHIYPu5ayq6S7zASEefGeHHED8yxIHL4V7ltZiiZg8PBKPcq4WnbbK2wpCxlFhIcgDS2TY4t26i1d54kHOYfsBB/CECY6gncd2ZLnPnUZlZzB98BbbDDksP3ey3xGnLLrw9S/wAcTGxvqx4s1AfJJW95KixZbZHFnnwEQ5LPg4t1lzF1MtI4O+GYOxm+ZIcEN1EfwBZxDbkO+EM9yQHEpPye/G8HR4BYJLZxPG25LJWXCW+Hfgl9EFZA93FhHg2fAOShthhh89iWrAtyFgHkZLqB2SZ4UmSMeAvu2MxfXhi6/Yzpgss4SBcTZTFvbX77YYg7DbDsMMuHuZWcMJlh5IV7sPETZcnXq1NgTkiEPUr1JwZa0ubsgI69xAOiUco/dg0e437gFsDSnuBb5JFuww427D9kQ9ZDM+tzYh3JcTyLAyy4k3mCaRkbnczC7LIxhjhOia3B+1h2gHBkKTsjzlneFKWs6GDIctttuPcDbbbI/BxbQbszNOZl+4hyBjsd5iOEcHEAcwBxYNhrwHZcw6uQPpuOiJrGJJ1K5I5zbuojwQ88Ltwuku8wHbBtIYgfOZ8Ec88Ae4UIcW/LbGeMaJCXsl8CVeWWyxPsd5sA+8wHJcniTkt6m09TvcG18LwmcrgWqcMOIgZ8D8ZqSGTvbUlvdgJbxJjksjHUZuL3N99lwXokHyzk++/5YhDXEBAThpcRD+pZ1PAYJd6nmTOPAQ9oYZASfYcgp/t0zcPcQ8RhJyQa4XbwFyWShWI2UuY4FsW4zl4LDmMktOjLY4jOwJbCL+LLNnd1gjYUgLilxdnJHAZzIRvSE8W3cucEdVYcnwUGT74Ihir1LipavokljlYgnVgwnC4SYWhna/VHyv0S/l+iy9X6I+UfCflK6TpsLkuaMOJI47hbm63QFtcy735gtZRBa8FnU9AS7Xy38t/LXy3KRv1fxIHLTgCFwZAHOTTeTxGnMM6v1384mznP/UU0l5yRa9TpEXKku8wBetCycYA3JBk9E79nQBfYS+iP1QPhcPUF9Fn4R74f8X83Dq2ympZuHTLfco92HuwmXbCPDOvdxasY4N2YX1GAckXhtHTIWLyTlaLR6tBdWnLZQQl0gXuP3l7WPTwBjzSSSpv7gONn2vjYNG/dL526yx3GS5lDmUAXJa5rZVJzEcchYWrpCOpfaddwHcaaSxwnxu2CgET1sDKYNj4YH2tSRe248jFVWZfFaOxLghDYc8KS129Mj2IABHdTqTpjLRGUKUzHWQ7SJjPE8QHEjxG2uWjADXVvghcwAgk5TmWZwhvc/WT42Cye7sX6LXgX6I1cWwIcQlogX1c5l0N1m7n2x79tKEK6XHuWPuQOMKHFhmHLhmZGAcxPwgQzekt4yS5XCz4myDdH+wquwDkWOfcu8wfsh34AqnBcps/6Fqxh4QWUGGnMn0wGkHNyFkcSNTuw7kxjiDPOZ1dZDxNuQDW3cdRUBM9SkA7mvDH+iWsi3D1A8P8AZorT/uRaOYEbBvTOiyYDu8xzhBqGw1LUoR5Gxe7TfDIWMcg5JnKZ0hqPUj0lr4ljzZLflnSZuB1DbtHU3hYHtgOp096geHUrogEafRAeDlubguR5/Ypc3+TVxsu0wMFCQS3EFx7hy2cbDnPdoaS+lyjNHVY/ukNGZOYXsjsTZw4TurDaMhy9w+XElxs+ECsLkHuRc9WvXuQQj33cY9y/xc+GP0uOIKW7bdLAVxHZvYQuS2QDGEKSHEknJYiWELBsTqXbNgtwsPSHM+JeZEXc7WjDqB5W7qX2Mr3dnNwd3KFz9wDydyjjPJxHNZDqHIRxaeGIWeotrJwWAaQhnw8mQWXFpsW2ZDrcRPHAmdZBqRwOpYwtt3uC6kTu0+bRpIw9IY/lw5GNuMPItHEqtgsU4XsSziU4g+i9TbvjPALOoi5OEkYJdhZxZqJM4dWTgLtZbepjVhMba4yDaEqbnUANO7M4ZSA9z2SXODHu6iNm3iUPMcLlu0xCPcQIZZ0CGGRzmb7LoXqwdw2BkoSYoS4Be5F4boCB5MwRLuQshJzcHiEPEvte7vcOETJ7mAyd7nkdi2x8OfAtqbsRAuzcuZzKzcSwhVdtQ4hyyg5Np4eQ2Vk15Qr/xAAnEAEAAgICAgICAgMBAQAAAAABABEhMUFRYXGBkRChsdEgwfHh8P/aAAgBAQABPxDqftERbfcXu+4dq/3EDb+4vb9y1u1e5mB9kAbX9xtup9zm/dGxHq3HrGnuA/ui3P7Rua+6Bo/dHu/cV/Yi2P2MST+RitUe41f7E/6yNn+5nVJ/2k/6CNf+6AzI2lyPN9kbf9jP+xLH+xFf7o+rR7tiQSONswwgPsiOZBc/ulUC+X7kX3+IBf8Aujf/ALGf95P+8zDn7p/0IpcFzJix9yX/ANjF9fcw/DEJ6+xMMlR/uYPn9kIXR7TECcZ3FVMOMqBSEnlEqJ8MvP8AYimf3ID2e4/+4w3/ALpXqAkHi+xKTuNtzp3DvUoxUQMTTMcsEb5SMsTkgpqot4+pmVL8RVgUERrMdx5VHwjbEStkF7IpzEmagziYF8ym5gROoniPqpVSlZlZicbj4TxU6atXzLXJNMC7u4/gniIeIUj4z0ZhuJUMH4VWJi0ndJhxADiUZuJnErqKOJTKO5RzL29ZmShCC2ABMhNXHDX4ynvuI6NSiAJQ47meri7mA4zF3W5h1mXcRHRE7bhT1i7smOqlrVQdh8xtRbVGog8xoajDTxzENxG5ZglVioi8RN1NrqK/gmagvBN9RyleGbQL1LAOncwYp4g5DQeYjed8yqiXKlETH4K4ZnmMN413KpUUSkle5aiZOo4alIUJV8T5TXUzjliyAKuzqE1o6I+EClpHlU71iOOoSDOIBqU9QXctx3BuVtRDTLVqKyqUtsTdQKzxAjEILxL8BLGYtUGI4yRlXMVSrIOkfUIuNRrVRKiPMS9zJuVRPCJmoGnuZ08xoaJQrldQa8HMHFHggqIU56gclzEefw9PwripRKIFymVUyYn4S5W5vhlvmb3C3iAeYVwQOyfCPnGmDmU1rEAyvcxcEtAvEBTVTJS4d5WJ4qYbloNxTHBzMOordR3BfqIqcVLNspGyUNQ7tih1EvgxA2xEXcJYgi0lzZiVLSAtMIxHaYcRBKCPUSoL5muKiZlMS4hwSuiCXAbmK2E/cFh2YuIL55gbiLslLz+FMVcoiVK6iVKJRGLfkF/hpgDmVcr/AArNxLlVqV+NkqpfEK2f4Bi40zArExalnEULdDR3AGSjSVo5Gom2WCP3EnMDNkoUqN9EybidKwLNRTRN7mINHExAaYDTkhYXkj9xOajXM0lHOPwcsxMwOO4NaCKYGtx3ZodRlMC5SJZv5leLlZ8fglfmo5Vf4pNSmaX/AIB4hjKxr8NZqIQLiVAv8Gk1NvwoidTylOp5SsQwxMNxCEIblWZlrjwqNdDAQMLJXECstFY9kGRp6nkmSKRFrOBBh/cyMWNsbq3C5JsLgRsuDFc9zDjmHkNyjZOK7/CGWYqUxDuYWW8wqtWsBsFXCy4DUarUyvESvwmrqNOZUqo1xE5lXiNDn8pxUAumUOPqJUp/FeIie0DuZcTBwfhRA4lt1MsVGvcrFEohDAouWeIjUK6hbFfhwsmbULDkL8EbBfB3HZZVYI0xxEWC4ZXxj8Azk1HRHu9xKxqNDEzsQOY9VUN3CS4JokPFtiuImIk4RtnuJcQfcVNlR5izcvBJ9upbJn0hdXfBcWFCuFzCW6+lmGGlyFAdxeDvQ0yw+atL4IKoVbQmIYFbRZL9AbxMQckTiWiFVMMSl51Ezr8scn4rFzL1EcQ8JVOioWLm1ysyi/xRxuU8ylzFuUO4i9StZiVPMiYlY1H3cBcGZUAVtziJMqOTkhE4VqMq1rGrn1OklnE7dTrgxxxLBJh3LWIWWPkNRKsq4YuoRLUdGoBUQnEycxMOJXcyzKA1EKjUXx1W6XQN2jSO4U37SahuaLZMLWgLZZcOIBfWYJZwqhUFt3Ua2gBTJQWqO5mjfnRE2+4D1cRUuxYZjfXdCiFuHasU/qF/bAvPqFFU0Iw/MIKB0kDdSzqBW47ncC5VTLUYSFNypli55scpl1NNSgQGJiX2ZlK6idMfgHglYx/gCjDXUVVuJBewUYCK6iBLHiJ4id1FDglmazErqYYqNoI+H4QdTBVSwpmErUK6rEByEFgwrB5hbbS4rCRKmNZgAVqo6YbFjiBvnIHnwRuxwAoDiJqujIYhexjhUfwUXiAKAooWr3KvCSMZeo+NIU04jzldmy+mCB1RuGP0ivkUVrFaxflLC6SD5ERFB0WVywei63jPKwYEikMAVbWHY8EtkdWpTupbKnhxsqyyGDUQRqCsSs6gdRsxUOUM7IqoLhVaq9RSp4jZu4UidSsQ1ghaPKU3HiV0fg+US+5RWYruWxJdIrxMH4u0jR1OlBpKzHwj9RyyTdp/DTx9QPPmZmVRAuMMTAt5ii1zC1XMoyyxUy25LDqoQp4zOx6z7AgVkq22vMJv1u7TJGFWo2sdsdiLlFCRYxvApfgW3aLyxsOrsI6ioCYTxCrNts54EFOHKwdiEeABavxcPUdFLDwSmSi0+geZYKhgCH+Yx3pxiqiJl0I3d9wfr9FDGGaNueAQzl2yh0CEnZdmh7XqXlSUD+iX/gpwIo5bvA+YEGXpgDxElDxCsFAVcYjSMLVbJXKVXUbqLwEuUJPERA4cPcst1+Kr/JLlSqxEuJUw1HXMU1FMtIosqJVylg7Qe4V5iNEPVTgZ4vw3sS1ka1cyyZNQjDPgQ6USpW/LG1CBOM/3AsKhySwdUDaM0QCbIYWh08QQa0Cb9wJePKxqVsEGzqXdWB9Kl74hIlwdkqcsmioCoWC1TmW2SgMucoiWTgio1E7aoRiEh1ANLy+4jzf6qZhdIXQZHFHUaiNl/SuWWCwD0AWcj5IB77jhuokyh0xlukFoWL1ZHdIdiixbf9TGOqsCeJQC5tvD4cQOzAJeF8RIy5Ixq01mBCN5eiYoFQoFDFJQjQAr1D6UM3Ec4uO0/JnUqvw9P8sNM7CZWAN1PHFuUY1LG6icwawRtExxyTNA0wRqdcDJ3Ky5VljHEBLlLrEfqBysRcAjkD3K4As8s3eQTysL4AU5XqXr1MvXiEaBulCE1FAeiEqrUK87gwCAX8pTeMBRYSsgyLZafEWNir5rTKbrFrJMySIfMAMILHETgwU7inNi/wChGSQo14ePV/QbF1cBs0YM3hOyGvAarEnEFhCxhU0RbKbR1FMrUc2r6isMTI38PULrAfNsGrQml4Qiu5RfC4Y8ChBmWQDAWig7jluG4qwDsYGQ/cUxIjj8xY0+4aQLVVEGJXU6V+O+JS8zAxEqBca/kRlgpLC3XqINIjBYTmOOruL1FaPqKrJHvuF4HrEVoeS9SiL8JyTzx7uFwTO0yoy3DgHEVjPapWluroPuBnZatT0xR4LoL35lEL8EXBY0Q5CmXXhTxzLYarfkg2sdIcritMhOUYyMKXujxFIKAJkWAkgb8XcdNqJo4qBY9gryzKhHkSLgSs3NDBBBNF2aqWgWsazSDbdFGL5Zc4IN64FYNmRHmXVLR/Qx0QLB15h8AZQZTuIncIsB5lA/iC/c5LSxYHTL/wC8W1ZT6K6Wq5qFHq4Q9ShewNuFP8LNvg8R0V1rz5lKXC7ojcAF43mJUP3FJIZ1qB3Gt2fMWmFWoXdRFfwqmUyiZgBKviFGLsJZlUQl0iS5jeCIDYxZhKnHUzQzMTqoddjiFCH5JTODqNonPiWtESVFdMSOIjqOeYF4MzuIZa6gAwKRbcXvSpuZT75rzUd83sl8ko5C6t6Is/6FAjMxMj0rMLYXTqFe1YnBzErrfnNxMXiGCtXD3leXcalrAgrlQIB2xtRGkOopyEgVXG5gCZvxLkFBivMW7fe9kQ1o+AjdahcvMxnALoyiyXEArUqbvcqOpZyqWOzpjoJi00dSgUoOzdSmtVDs33LM2v2OUGm687dBwRA/YAnAQA0TJYs8QJvNhpO4HDFcQ/uCGyFcpqVyuxlcpfTghpQr8FGLKveY+JVZ/CdEQWMU/h1KYCT/ANEOsfkRvSQXEevcFTKZyp8Q1UBAFGo4HfiBHNvUOC91BqmOiAFQjiOyJSZJoRKBQXK7Jdy2bYTpLuiYSrBavMX+th/UpGoFvctw1RV8QLYCozpFlcEBV7zqJ16g6CBhbweDiOJspG4GZoHh0w79npvOoxpVQy9HiDdoRiyr/mOgAEeTglsJGDwMy2VIdq1URlsFE9RKyZSuFzF3Low2+YMJatYa4hYU2g8RCsSIwLcXNGMkCwmMF7ga9uCdWGEWGJzwUPDmVhGbFojRUioBq5s7UGAcXFAmOV0HuBXK+VSHhWXEn3FmuF1n5i7mdAfmL7CqENOZk6h8rwwYqMimI+MAMwQVqDipVkflMXxEBiJ+S0ogyQr98QcQ1CjALKir1A4RC3KvH6gLdRBEmT3zB6EZVACoDQ/GszHmOEvcRXcwhYDLWYhIBasYzXmWGtxvqqWFoXZhbRFSpVWkjZJVt5a5hXhaOfMJywUsqPMBo9IYlflj4ItGckd28wQdEPeXVNwzmICRC7i6cQ9w8ON98soyVF4tl+GhikaI1pUIMoMOOYQ0nQPbHeJYB13HS2WnmC4AhW2APeGVlaEPCBgWNvi5b42h+IoGGgaxLWC2Ba5ynknuNbDCF0sahKiGbOoNsKCj7EOVieFT4YYBJbL0CKwOLZbuWz0KG77i6hbC2vEDIkq7pETivlE6V+SJPcTERvOY9NRs4/DV3KL3MHG48qgN1uBzA8Ts7hq6rUWhZTBGriNS/DO3P4BpiF5gncFcsLuBpKOG4q0R6UuBayMVSkDv3FZ2mHJiBgsLNueItJQG+lg0OHMHc4euoYtI0BClw48MD96LbklF8LfUd8aYZZGg2PM3nKtHcvpbNrDF3jEtbXMQlqbbgKgHEFlUpGb1at5YEB5BY6KIo3nuZ9bV05YWmQohr6pY+O2N+nJcvUY7w3bGE5LLxDCXIDyAgL0gxXFAVpz4gt1q2BxLVcCk6XA2MDaYDl8wRcaVFMe1pAC35ahxTui8Z3CC5M3gBESiwWxqCBuDF8rGVLODlGyJOYvuCV7VLpOI0GxcMTcbG4glkbuVzA4Yg8wOOZst+Z04iOIeqgTN4iUzFW9REaI5AVmAeYPcK4VxqMcrvcB5qLdMC6YFVUpMGyHMsNhDXbHXVWLvEUm21YuhahbbmIR8Fy9hyTGnZ2DxLx/NNJAo0d+krw2B8ncQBrEara/qLUtd5biYUVYXdRRZuJ4VUqu49KjYuYAb7IwCwYjitHg5e4iOKbYh2tuoI467jOp4VC0eAY4lJY1cMttmxQwTgL6O4GyVYWVAdC6JQqm242wjZ32JdYyUIwPEt7yFZM91EAxQAHUCRbakZ0cxSz/MAw85kJuGm82axEyAnRIbDqRsrydEfWUl2pWuVQzZUplnIiN7iXuUnzAb3FEsN1FSuZkxgeKlXmBxxAetwGZEqt1GheINqYvlnIh1CNsTKHc7ISblhuW3EbrhlK1KWhhN4yfUQG2wobKgstqwEvgIUZ7jl1l9RYbFg4TiZ1FrbqLcbMGZAtMFsMTopG+QWYimlBayZfBdyjdxHVIGCwVbtWDlaiW6gmc+Ibuibya1CkTwkLiwyKKi/Do1KNibeCPSYDISigrPMyDHOtR4qtvtMQKthzD4VJhanBbDo/MHZGVmuo+b4NkZqQYsujaDRKQAvqKGcvIte438cAwB/MbHZsfHMEoTTU+Rgy7ytCfPLGVDptTx+pVQwkSyyaamTiJxKxc2iLmUtktzxApuV2R0xLvxKxmGsynhmCClkCkPxKjjuUWmZ5vMHhhXmXtXOIdyzcsNSywdypRg0X/7FIUIo8RXBxBnqvUxqJlWcuInABiW5Hp5hXbFkISgrSCjW9dR2rVGCXQcEVKeIgCJQkE1KVgg+AgwBqACgtbY2yxBcOretWxsqEvsRvIOiw4w5FgYZgL1NmnNR4Go5gBOoZxCuIqQEfAQdxk32ZbWzGF08PE1IC29W6huszpZYFTcCtHqZAq4GF/UHRhgoBEXVBwUxtWONdxThpFN7uP3TZKeCo9W29lplulQMPcG5SBpxKHcqy4ZXEgg1Bbfwb7jvxNZ6RMwxHTJMW4eSy5VcQOXM7EVauWygqEqLjhmLghhbxMEdlqWmzcwscuIN/YlyyjuCFofMb7a5OSGLXDNxWFVRPEBrLhaBrRDGCuUJV83FoaY2tg4YLcsbYocwdcxLQQ8xKAFQoYW+KlWgtLwimonSn4lRcJnMSg0OCJooHcoci/aF/vDPUTINAGHzGgqsANx2LRgx6jhvCr59ps+aVzKCpJgY4xRmm2Y5mA8sA+vIsTJxtHMDLuQHEDbyrcAywlFqjHiNS7QuQePcV9Tu7ZR9IUYLJ1jkSghgdOcDxCJ023fqEhUMIy5VFg9FKdqULZLQ4yqacS1sVjErEAMdy1Sr4gi34naZtPuANOITobjUtzMLUVauMcr+J9xNEYpqPUDW41hvfLCtleoZ3kNwnkQNuNhkb2QjpRkGwQdDwQ4ZirLddMZd7OyNBibITwg4IYFU8QQsr3KpFGDEOIDvh9xPOgZuHrqvrEqZT0bhc0VqiCr2eiWnKFhW5oq5pNEx5REhcbsiNqAWqw5sWrbXzL1yNigYYhpSn7gycmGyj6hAoO7NTME8G6YNtZxKhXHVx3Z9sQQ57iwxZFeo8JLLVh6hPCUUzvqCyVYSqNDjnMldFlkEJjcU2nzBHW2rzXpxGznwWZlNqRmP6QEAAOamUf1UMQFwEpCArrEOs6gX6l5iw5iXNcxLip/FO/wPsi3KnlRDQTeSC26h3V5lCUXK8wtBmWyYWLY6E6l9VJLU2xZ7RANtR6zorWLhgqTNzHpLcVLWYbNLoQsuBQ3j1CiUmEOIZ7U2Soy4Z1UBheAG4Fqq4OofxuUlOF6CZvX8SyOtqWwy3TbWCNAhDioEJi8SlEuEEB/cRaqwwNMuUUPEIUan0SZxqMhsjtscLiogqAZUj2t85hkcOaMuqItXxGkXOcMbtvEdywL0ENwixwo+plq2NWUHcQaF8zHVy6uGXEUCBUfqGRiHC7v4hdrCGADxcJY3YtQ7mgVgc+JbeGqGZbDTQPUSUNzSYlylahxSNLehgNHcLICDShzKY8QGJb6lupTqLeTc1mUgIBW5ieCKWnUaVAWVEJmV4jYI16I1GIWqGLAljqGiqnYwq64o2h67kcV/MvgAHBeIXU/ghSBzmmDU4UmIpMil8xwQJY1n5legbSMpRGnMFFDgqDWrM6hQI1VZJgQweJYVweKmmT4l9sX4gFpYEvoh8wgwNMNbDfiXxinYkJV3mqyQ61NXVXCUeaswZSDfDFlceokU+pXsLXAQJyEutWcMRhaoMIV7jpqVQMFrOo8yeSiA9KZvJFUa6zjCy1gJdTZK6ECwwvpeCLHvEqeEsM4w5qWlsexct4zENpEXJiNgs1EhHcBS3UrVVCKgzzEMDUuq3iJ03HGqPXE7zFELW46PEuKWDIBZOZriFFjGKZUPcpVW4RgM8zDVQrIVBtamRIBCAjziWIlKLG9EDE0FkvrY7jrBunyhUZHPMSxnJ4MRDrAQh8h5ELu2+I5NGtajoD5i3dbxcG4cHxEbQ0c9wzQB1ccM6cxqxmDVpUVxxLTJqAucEtFq4Y407xKCZU7SP8AdFssXSwGhBJTHlIm0+YU3qyBSJCsYhM44QqVx3BmxsjQBfa45+LqCCUxA1uj50RLujIwJD7U8EpCJBpWrhoaLV5CRMSVRC9xGDTEs0xrSo9CeCdCAusRJU3tNyiIShtglWNnox7A9/htcvFalscS2aiwOiXCBbD9kNbJQGMxN4zCHEJ1At+I5QRc4Y92Ab+oRkIeTnmW4KGOSJRLBV8ykaBE0WcQc0sW4RL0RriHPAFiQAjFB5pnzEMCg3Mvx/MMWASkgWG/MvfN68SpKajUECAy1mAqJggLWodeItwkF2QRUXGNjrJNyb9SyATxNXJBWoOCRWKuiYyqnMtQN6lBJMID3FOkPcvjZnph6RDRl9wQSaTAkDRuXPUQB5yPMMik5FLCNOjOYSkm97MJKsxBMLkEuCi9QwinSBa2ZnWolNblsLMcSjipUUyhxEqkiDifG4h1PNQ3qJNS97WMN3GYLFUFhAbgrdwhiIJzUHdQWKIZgsh9Ti/AGy2G5VlodR7MJuMqMivQPERwEoBtg8uKokBtKhArKViimLEGHLCzK+uIWCfEpSynxHScwcsiqqFaY3fCCFdpEyIdQHiAohF5g8IKIlZxK8jECkDcPFLmeiqmHGIyrVN6hkiw2VzBaYeHYxNc14lfpe5XfiDObN2cTmwJR2a5nZaP3C0crwCVBpQobAnhC2TZncA5ylxUS5Q8owaydEKmlCoyBockRgkq5qVHBN9TC2YUamsCV6iU5iWIrdzpxAGvxqbZitZbwxQq5dTFTcNkGFaolqiy+QqMXVQMDdwYsI36IHFgDxKmloECqucglOMBmG4KQgRVdStWBLUZ2z4jGkboglC66uFSFDnMAABRvEImr8xiBi4wmKQimAhHSyNsjMGPCkJnABKuGmIosTB5YBdgpgcu/ALo8x6PkPMoja3WIL2oZdeI9NaVCDTEQ4BDqMUUggK1KNV2Y8QelHlRFI04WciYnEWZoR87WEeJepUHDzNNMq9wzqOVQfUfGWcwrxEWqgK4giBMc7gXmONfjUY45grmYtmJT+4YtYe7hJpmvcZam4lVw0YF94hiMig5OpeKqTyMUoDSDSwi1ABGtlILxuVVdwqsfg6p1BwYkqmOYGV08RCC2m5RYLbKds+JYutwmuSJISiB5almSFmoLbleJmNTCysQcwt4lIYAxFwR2JiMD2r0MBDkRUqLvcHCpd4seIbUNMYptOYS5LXDKuGrXiMbR9K2YWcIQVbPFBsBeojbyv1MslfygqlRztgSIZUzLmYFgQ8ShkgcyqSW74iYu4lZl3+EsgN5YocsF1GGxY6yw63+54r5hO2CN+ZYtPMOG0Q/UHEC8mVx2DQ4jrihhLxbTasXCLhRxMINLilZS8Hc0o3oiiIq4/e9S2wKS2wFsbaaxAqBZhFyQc61A5wEJWsxXDNapTEpalXFZlgF3FbQKoIFXWIFdQo1iAGQqrGELdowBhyM9lNcacksJySvtrZ3BSRlOCDgqlM+ERvOqykTlcQFxYG1n1AtMeeY5pVrUvOMxOklIpoI04/IXeZiQNS1ywRrQRcTl/glQMllGpVMt3BnMte4PnDshdoIvNZ6cQa68ErdjSPJp4Z5lBwjFzKBV1MeXUBW5sJuFAMBjb4i9ijikiCjymSJWCVohvfiFEWHVpqIDTJxDxhmgajVtkPQzGsOGeOWWVKWCKOoheqhVpKgcTnmKvUeiwlDGRor1LxOIh1o2DxFjTTl4gcp3TUatKrMoVYlovIGG2T2QbhVB6l6nJggoMOqi49cvM1JbaLcyjfMKFYjXRLMynpBcEE8QHUtMTSDG4W7ja5aecpGJcUDUaYO4/j5qXZmSBq2XYRf7y2eCHlriPdWmncZnCAzZcFkAHxMk6lpKmV8QQ03SGEHulQRHfd9Q1sT+N7tCxBSZSAu7eYZQbbgCxdwxpzL8C4YzAE1uBFuAJKqBHscQOiATG4F5KYG3ES8RFThI8JcVH8gUOSM+BhO5G/UdSWVPuXCFJRjI/L5jSCtkSygyVBkvSOPcI9VQH1EZVAvc3nDuLyZ0y1wQWVQhSk1L1Ly25ln9VA3VQq1UyY4cSuLiFpFEco14ZtErUSDGvUrP7lLc7iVBUBWo6ollsTuVTy36iBrJHqLaAAHCwk6UWazKqwoz6iw+w6uNBBl8gQS5OXmLyYd9JdaG8gIYNTjlA6kyQwsSB0bEKl0Ci/4lXtT4RarC9RLhzA0KiB2UwXFQ3FzKWmI9rS2W0I3REql1DVXMFlRMRbZmRwxayOJWYhuVs6gay1sHM7Ui3p02QBZq8Rje4yzGRS4B4mIsmscws4EKcsJtzAuFB3LYWhHKRJYckFdwtYxs9Lg3mUAXKKxzD8H6gYBlg2kcYv4hblRq43WWIiI2SxitxpmownEc9zDIzDiJ3mchiBqo44uCDozZ9TCZEaDzLAeYiFWxlPcY1KtogEbYnEKJYY3VR8XL4JVd3lgcVfRx6IHamZeXQ4pijvLOcy8WmnuQEu2jy5Yo22pOoqRZc+ogtcPLCqURpvmIzeDWY4eZ1B3YOZUEJLMwCwZvOph3HQ5ImFX6g+nyYFbl55gQJMGT9EYCJM3KOIGCXBenCPYiwooDJuM35GyDjwpDBbbco0sQAc3iFuBycmpYDq8sB1IkwJF6AzL93HibgxHqN4oySwjX1iVSmFqGjHHUIiuJ3M+LTTUoqkjCVcD+XX4BcazHX4JUo4j9y1YiDHKqILzVBfsnmaF5zGaJ6DF9x+RAjzUFlSPEOHULbS+bjARzxE3s4LL+YoF9WIFlkVYKZicGN8pWYiGhrTowB840wqOC3zECrLoi4CyosA5eYBWie4KoxGMg1trkhK1YbuVc99+YAB52vMQvNRqpN2wapYbVtmG9StVV51GZ1BHiF3ouhmgx7IKHEEMCFxLgymLmwdMYVLRuWZgAYc9AoFvcEUFAUBGy9THDN3DZZB4iKEGuIxgmcReEM9EBwRzB5ghflBE4Q8EVVqDfEsI51U91UQqU4/C1MDcSopFOJzcRWYv4dxFXccruMNU2eKS8sFT4YVwsWrIhY06/iMgnEtiO4MKV2y5LDbX16maawHlHiPVywSZnGrNLLMkadMxkXGCQjAphGOhFnEMAwjA8xLJcEVVr7uEwc7lmhDiBBFaEs65PcxyprOo3PKzAgNxkEHm4+B4YurhMLNa0G6n8C8GDLYsdMEWx7iqMFkNDyJEO3cSIgsfj8mi6JTTJnYNBBzsAOIEDdXACQqtRkGoReMR1FIwQZiPBiPgGSCAUXL4j3UBUGuoAwRAZ6jsEVWYjGdyxJpmJcriJURuJcURe61G+IlR4RJr8CcMVxEpXiQCGD82x5ywDiXAJgHyRnIuWJ08RfZ4BuDCUMqid1HiVa5aXEpkw7QcSuorQeojGtfXKZKGBOTuA/R08JWZa4CBMsMKLoluHUokKUi3UteUJwGIkKqzHzPBXMJHzNrDqXTkhrBQ46goYGcyeyKgIHY4YGNWDwaG2Hr95o7lYqErEQ4l3ryRkgbJthJFVMF9crCCpir9QBcFEsoiiBuKgp/7GJZUAeISYlzmW3Ha1mZ8NPiMpM+oRgEEd6gnSGEs13CsG4DliW4AIGtEM5CKOxqWMoZ5xrxPkgGQn8ourIjiCnET4iGeCNJQ1gH0YAIMjzEyKfqyRVsfwENl/UEZbjykOyH1tuwlW2rdQG9nPX1LsPotWMuysQ0VC44BV8zGNgbV0ENqS0mJKSOmWxAiVmFdCjI4YlavcPCb1FwN1HZRMajCqg5eoxoaguoYlYN9SMU3aAPdQJS1yJ3d7IPUqicTRkhccPQJT0odwGgXHC7fMvU3EOtKxMx1pdsR9g7nskArYKLFJUcnq5iaeIqqrgsMcSwCmAFdTPEqqgv2lK6lmVZjfdEWNENwS/gfcAv7lgC+ICW8y/nEtlWRCnEKagaEyYqZZpyXMPDLPKMMwpqPJI5RIlO4L5iXggPl0Hupb0yAyZgITml8kYdwK+o1NQYGKlgRXOyMFlmfEu5dNUiJi4ui1Y9ACFYKghQLrMsFtdU/SPGiGAhAGhthlINOWUAaNRZnmI4cRkViWbrc+IDmYJeZdqall7IG6snOh9QAWPOAwzxwUleq5g+FlTjEDJsD5ioKYonMNH6GLBHLBCGGNhu4ddmyDhB2fRD7Vo0AR1tGyBY4o/SCDxAB4QERIgoYvK9wrwxK0VLEJvkg3RwRG1mgQtWLUdbVuXEZzZCvSWZv8VndzHiJnBEO5nUE4uItLH0QlQoJQSETRLO4u7ZT8wFxE1G1xBKagy+Zbbcuo0j9iLS9H8R42IBpgcxFvDFDbEVVbZwxIJIAHOGBI71rEavTbzDIGjQkGzABQdEYh3cclwx5lyvOLjbavEoq3bB2FoTgq2kRKi94ZizQsS7i9NyUJZqF6y4hVnRKzSYHJM+cFdwWABxRL9hVSuq46EPlCAA1C0m7VhC0xJCI0U1CZ2sIe5WxwYuDMqMX6iGFidke4YW/MUhfqINLDeYHcUNxUB3Aqn9xbOZjum4G2pnFMG3bFWefC2CC/EEdcwLUpxcs3qEDAK+ourm0Y/CY7MS49wRgxGETEzXFqPcaeovuCvIiwqygMuYcbkY+I1LxGqgxCCtME6jDE9oyKo+IJYAOoUaCniX29sQVl3qwwXDROI3EQdKIYx1uIBblId3iBQ8xkgt7hdXOpb+OcilMGqUoYlQAerhuCGkcxfunMtSIOoq2qVGJNXUXrq81NPKFEg2TMOS1d3EIlWGG3Oi/qHErT7QdUCp9w3mWalLi4nC9QxQ8S5NxMLgHMEM4h1U2zHnYlZtIBVkENNxXgiGIOrmLYzmQ1G5Som4RlYYqDm4Q7hVhIe1IjKKcwnmCxh8MIcyjEwazDKBSj6YcPL8C5mQDD+IKXC6MHRbHm9oY0JEXaLerJdWhcMulbzEKoHVEIsPL7iqC7aCVC0lyAqoACYzLa8kyk0zPuArMMXIUMp+g1BuLT1GiC3xCVlIaxmKhCAKXUH3DtEOdFuQksHwhID8dSrMll+8YeU1vAiltIPaKryaitrATAuPlzB1cSczVsDIM7k2IUIseYmECu9SyLmzmcsy+XNrKDaTiYKQGMytuMVBOINNTt9wMNNwo4hdVzTnEXzqDe43LWeRYbuAuWCwDqWyGiOazEEGQJrJCF/8AFRkxLBEgloI49bB3DZS3mPsADiNgGHESANLiNsGGyILXncuNgbqAM8Srh3LoajNhuDRDMFl9RIBWbhhenmVIXrxF5L9QY0Z+oDMB8QkMzpI2UKZoIgwHfiKUlR7is8wArcPolg0aHFDzFeENCELpS1eOYYKAXmL4lECgKJkmxcYvMssxF1ApZNUiCzca6dwvilou4drYISc2vE54mkxJ8QUhl8TnG8QckWbWUc3MHDFa2IyXqZ96lsbj3f3KG7hhVzBVwrpZwmBvLKudBljpSmh0vLM9z9xBYv8AylFkgGalGF0uNLmNjqX9MC/IgILkLUV0BuoHt5qASyVhGDQJcwwNRGgWMm1oyg1FthoiipVFFox1qIBeYbBWYR1uARRmbECEFJhM5VA4llxvyglDW5mgII1iw33LsdpXc7m08Th5ZefMpzJZ8OovJcNouOVTFKzuIosI9yq1BkXcXKTHw7CIq2KuIUDBrTFbMU64l9Wg2zDBxCgghuHWKwo1cwL6/CSR9Je2w2lh9LO0yndst7Z5WPDbDotiFepnOUju7ZhI0q+YTVtSdYjwKVMOIDSECl5YxS44W30wle0g4HUUlrZi9Q4RqbDFRKtrOpbpTl5lsto8sChSv9wDZACCASgsjLKBvYRpEzBTVYjGHEBTUAFLvUWx1AJTBLETdw1sxMLu4qI7RaXFO4otKXdQGXEQO0Qe4IIBQ6WMU7I0w1lBU6QbwADoCcJJTzuAtETliUwxj8CvMTlEOl15gIB/cCkYtKylq7xK1Bw3AHMGrvEAN1fMBGI8Wy2yPZmJ7hSoVYN0ymrhTGYh51AzhdXATUdrEMNEOslxDkr6lDr6hYQOLSHAbKW5F3NCqxF5u4wyYOPic1vxBJtikiNxwlwdRqBnwPMIEYCsyu2Z4i3Pbq5jdvhTcNVQ/aHjcXG0WVEC0vUe2fbKZvUVvFRFQuCpaGal36MQoMQwbg7xKYv6mGxx5jdWpFNtVMOUthgmYtroqIOwGr8xg/KI11RlrtAUl3B0ypzA3uVBUIdv7hBhmZTATcVMMuurjZjBZuI5FjLuWYltSy7j0p3LBmK8VG8XVSwhY0xpzETKe0sZuW7gu5fVw849WOWyUtRdRXNxF8QLzKar8LEDgJRw9pdtkUGK3YrHkl8mAlWQIAwosZYWZgngSoNTk5j1lLuKEKF+4JbviYS6blYtLzzDVyWIBd+IKVwxotpmUvcOxUN1FrNmG5Os3cI2xMaupaXcyUkZUp4jZOe8wCpg0igoqZIMkQ14GMkLVal8rT6gg6AvaZhfZHOY43Huo4wxa2/qYNwbtS12sASzUVcOIpxKcQ6FT9kaqrYQEdSYOWazC5jbbPJg9DFOBgh3GjuXdLFeYZbm+WLi3mcLcesrWZaiXhit3BVLm5UepFPqUDV6PliqjiNRbS0X+5VFhKjQ9wRXKOC2io7ZCjUw3SBhoTA4SDilCGWTRLVxXbMyvQ5JVt4mlfmJ+szBSFYEFro9RSn7iBeNRyMswBrzK9sMAZ7GUKB78HmBSqr5hrNCt/EJpYMN+ZZVFqPWfCOiuu3kInbUO6uFeYd2NpTrUPOKcHMEazmXmpZgaqXi1iNsRpEcEaOIxd37m0Ht1MqrbAGWkT390HdfuabP3Mn+6Duv3LnEh2s/60qzX7ieP3MlQpxX7mG7vmCmpBmfujtQ+Zbo/cx5ER4RBp9xUSte4koxh4QgLKDLBMGnJDBTKNQDbdwg100EA1qLgotrCZFF9zKAS3xDxnRuIi+2YSs5qKhFeYWgobhPhgIfarFsXhu4U2ZqOmrwxiFalMFahCwQiNVyS6pcltrUR7tbgpOEaJdW7p9zbMKHOXMFYDF5YmZhg89xaIYQd8oXUfdK+T9y7FJkwPuFw1gmK3PGv3AP7o5lfuHXlGYLP5mNV/sljg9y3f7JltnzACZPceX1XEGq/cIrM8Mz0aP2sJeov5jtkJVbPMCbKvhgKm58wsx90WaUzWX9w0nCq1Ng+6Nhd9sEy1XMAtzcXEoQyZj1cbqYPMacM3+eFT2Tgygi1R4qCw7BaQLhxLFQt3S+47QK63K9NTQtsMoRYQ3cXTbDYZebgCsqo+YFBzBg22JkvUWkv8oVBmlMCQiTcTc60Sg1HOdy+YLysWWLi4aMwA2MRKNEUMLTAYcHiDVgQrDMa5dVHKZbSogGUDwg5CA6K4l2N06iMI6uaMAIZjtoUwz5gN/iaH/ui/H5iBn746j7ZTv7Zd/fH+wxzX96d0FmFPuW5Bc/ax1fvj/YJvnGsyy2OFYYguU87QdWtwwMEgcRRq3L1ha8RdgpBuH7lNRxCx2lQIF5gi0NQ5m9s2Q+nI4lRarnEM0X4jC1BVojAFLHmZgW5WMcwOJQjwQOLiJA/SJQU0mILxqUeiiib4tYtvoiu1420zBPna7e4Ujd7XliVsgc+ZvQqtAYZtKl0tFJRFDq5ZlK7g8qIwJOGSEhVF57iXORyXCYTTyuoUb6zHrnDFpHBFBzBDLiJlaFajpVcNLLrsVceIk7GE8wD1BYepe6JU4hdf6g5JniDlMQRSplWp6MybQe7CfSlrzGrHEDXmKPEaIh3B1LLUoVXqCbuD5MuEYxCxRjcrVQ+KnWt+JrMfUdc4+pen9IFY0+JwWvUEafUNyJmIFVL6IA30maUrgcMph6SdQuL75Y/ID4lld3qXm+YoX1Lc/rL8ldqyzPIM5fREbRgCqIYAByTuVZS3EwHpOIsLZFmyMVtFpxLswWUY73rLFx1EROyda4X6GUBGA/SLPq7cYguUWMEGCZSNMqVYC1qNkLg8SqsJKFZWCPYKMWXkG4yzu8ZhoJXZEIVnxEU1CdeIjTLXMS7vaImNDollbRZmnUeJfUvoDEZJALHMusYoWpZMwNaW9VKl1t8SzJ+oEtDxUYpf1Bi8HqDKKPiU0I0wYgDiiLXUAcBA4StAmPnUa6tL3kgrrxKg60xeR8TMv6y9R9CNG7fULh+phFX1ArSPU130Q8cTmya73SEaDNiLKkUzVjBGsRPjEVC/iHcYsrUePTyvS9QJFS+xhOFm22sJrLbuHzZ4Qv/YJESWPbAjjmAK4TMEg01K5iAvpy1qLq3wzqDgL6sMYodJKv3AiB5E9S0+NUINQ2GrkAIstY5/EqydcKckcayVOqgWNdqBbcW8ENLQIF5iR7pCIYKpwwyiml+YyuSEiuiPSDeyOw6F3MpKuARcZiNrbqpRVRFojhfMT4zsSZ5slWV+o3gI6sBUWYKhmqQzgzDGqOaQkCYOPEo/lEsbi8Qtm71L8XeouanqIgn7RJTT5gygQOtD1IZlzX4mYAQyhh5nd1GLG/UKFt8THLHqORT6g0Ce6idO84iGr8TUCvCL2FXKTAanJiJFBXXiYODHLFV1qURIXAEPYRSIrCjmGip4Duc9xcMLU6Yt3cA2Q7YZPLEKSYbbduMQWy9hTz1BabLC8S+E1dEYkMJMWptR5nNKNcQzKwKqph/blBUbMBqKpWlAzXmLWG44vmCSjmmo52BXCJ/SCAYWqxYIBT7ScMFQ/3OZXHKJVDMZKNhdxXCQ63MHuc0QwlkarqWYwMX1Bo0jmKZcrAjsBeRDJCrAdxdH9IHb1D00NoutMfFRY78eIHcAjBmivqY5KxcXKhXnjxKcj9RZwfSDMNXiLKyS8FfqLWfVCgfRD0rlQLJlkQqBapWUZVnFQur5jtCTgGH0rAgu43iszYJuLAC4AI7gXRosxGwkTzKXdwgsUmo1QaiQpUSVa/1FLRKEULtYDIbvtKJFE/yIc7IgYlH4LGvuUayTVR5CByv0rDt8RxDBKK8VwzA+Avisl7lsiwquEMcEBoAtroajYFkDAFw6qBW6qU+KZz3C8aBUvKKcpg69sQ2rTruVHCsSN5tNWMEdfNwS8FCcIFK7qBodSZHqUmLuQHIBmgjU6DRFiNmmKggA4i2ltAIY5hUrB5IKgMsQ0ltsMSuD9wuqSA8u5hIgZyt+ERI11VhXPmP59lkgfysyPHdqzhBlCVKwLl6QogrNHo8wOBz4nH/qDVDV9T+qpWaksp9pxn6l1cB4gVBfEZwfwPqAsp9RUlT1COL+JvFz1GUa/EcYM+oBf8IEVYzqBpUMqwu+IGRagdBxEqLzAssKk0XAVisuYEZchSuI1l0cxqPDIAwtTKs/lAz6rLkBZn1hLseeblQHAE1XXECuh5IXTMu5xEIkAXQN4YjSbdco3fOoRsUkwBeB/uN0nDgXRfqUOPKzVxooqy1OiG+ies7lxVyvxA5JLpDwUSvLMPsBweIlhLYeK7hu+Nh1KHQq+YpeQ8waobYkAdwbjJMKHetxFbs6h99coNaCdwC3ocRA8ErotJRVTfmBj1uOI0OY7rriICa1DJalnUSxoSTkOB5iBUKgDfNEZ4tAVPMGwgV6B0PYHjzCjMo4bhV9TFfJrkE6jFzal2mLi8n6jBkhcggTcNaairQVLPiWwWZZDaEZtG4GWpgADH0D8QMzhDmyXzNoiMBMUDXiUo/WLsMQS9QmGoIKQloGeliyJ9Nxap1uxDKreRiEaqAAHMWKU5QA234IoNRDTnDx4jNa2lZvoTcPKduYA3ThxGj1srQNsETU+vGQoZZs5HLcqd62aHzDC6NHDEKC22sA6tCCDOQNjXthc7NhQZQeIsVY+CcQPyIrxGjDqDgZS9w41YCvJw9TCB8QDELCIO0VoCpxMFG21MAUNYWSrHfJcFhpXbCMfZGqAvzFCgbfMy1VwlivcKMFNRzbEtcoASjdUGHSUHcJUa7idlMILillyIiU7Ydn7pAiFHKoAujuNBQNfYFOoNqCDNHF+GMDWLVsFp3GGohMdwc1EzTjOyqcK7jtmpRe28Q5YFke0Fu1q4iptjaEcbiYwwhdouikh9CYALgTAEI1C9pQqoFMm5yycXUG8QQiH1NcRGAQLVXaqWvk2L9qmPvwQJAyBki50eImuyUg34QSgqKXV+4ajulX0GGJCAgeVOaYLUIpo5OaY3OM3QobHOeYurpEpsL9TN/GKAMGCPmyLMOUaL5rlA74YM2wWRli6ZrWsHGmU9qUSosK5zGF0nnYGsY4ibRana3bmotNVCVBLlUAQ8m7u64UdkdJ0KNPiVFTaG8XFIKgHb4lKoAoQBLloKRxBEMkwCXH0CxKroD1LdahiuY41Q1VymLQ+dwQKbLslcVnEEMPCo+uCAV08S6oQUw1MAcQLQjke46jj1FJVswncOugS3EB8uTsYhCaXFbVG7lyro1Rx5GPLFSwTWXiIuSCUXjUJhlsivbB3uqFrgOZVN7mFDCDp9RUdXRVyFS/vaUgaFdwz+E5Q6odRE7YUKuio+UFpdH1KIdCdx+YNcTInMBkRpglaUmLvmMqqgMuJVwMHKQCUkTK3ZFVAF3UFq4DNsC7QsEqrZOjthfzwShy+EbD82oOyMlawgFoiwtFOY+I5INhYHuHioEWZNXEvvgA8JE/ivCw3CWhDq+VVxKQA0pAZPnmFt9FMhklHELokb9xBZTkTSvFxrAqesCx3m513yYDlHgYmVNApeY9OUdSZ6DxFy0aVCDKcjhR13GRulg17h7ello/5EJCAq3cAq7g3xK7mDycQRKRNviHlh8wzgp1CiodJAyDQx018gLpBetN2tRYCI5qB6NjvxDSPyEGqUaal+aSFUjCeMwkv4C4Lkik7RZUGJQazxBbKV31LnFTJogoFc3YxAnEUmEa0L2SzM1RWlI6JRBb6MxwfjhUvPtEu6RB7tdQ6wABWOhyze3YiLAE5OoyJIJNpu/VQSq4eEVceKHDo8RIk0TQvL1L5+kzu+CF9J2R8tkWqFDNS47lnmwlm9MPIiJ3HuHmFVP3D3YdhmK9yrlgbuV7EhOxgaVuE3BToIyhvCLYbypXLtFW2bOSOGoEorOUmoptJuYMp7j1y1lW8nEBmIB/8Alx3dosX3j2dpoYBHGmcUwKmOuIRij0lVY6ZxBpQMxHm4TdEbiLocZl7ofLGsE9xKUqJxx2Ii3ZZ5d+Bh5gFexIaJkLI2uE2ZWnollm6zcrLcRoW8+IfUBJYx8B7mHtClA5lcBOaHInuGsq0PRKLdtbfqUQCjFOvculENVLbF3d8BAQVLusLBEtrdLYAwbaT6CAKxGE6iFoXNZhlgthNQqArCNy1ASt9ReyAleIQKsrnUFNnAsY5W25qnBDMqi0NQjC7qC20iPiDJs2wD7QNgESd5Bx5hwR4A/QkfguAAg2FZvDRKT/ldD+z5heBlRN0dTL9rQVOLx5j+Vk4E8RwW9TQ7iIolrzNFuIBWqML4GoBs1gye4B9uxYrqLXQZTOqSFJJYXSCZlaWmD36mKCjuNyuYSlwkxcAucxVUWMtLADIsSouoYoWbqWL42jlSu7QyDFXu5yqwqdsMNmBehPZKQeUmy9uOp2VIVSzqB4wR7LC1XAGaLpgI7HCtu9To5jyRhX1gWWFOXMstXDw1ZWLQut23iPlTbLJ1bG0oTJW2OqAGlEKiK1vDUvLiyXlahjVARd2GpV8RskAJCtrebj0kOqsJmo+nACiSaV1E/sNUs5zKEyQLwo8SndUdkK3AxgFo7hWsmF69RF4GRysp+DZzqUYULQ1FOp4DRDQxtiGiKHUcdcYPCGsYlW4hZGDCNZgAQFgu5liChagevdMD1mFhuUraujUx6y5US6owStiPhVieFhYcADpg9ws9F9kaRvMUyiyHzg7g6na1dD0lw9oTHkTcVaiiIwo9Ruh40yqwdynmGSw8vbEZ0BZXNhMEwBBXkCCBKRARmziGRbLYXdcS9RVZZq+I3q0ZzM+gF0PBB+ZCA9occw8pDFhLVpSKJO+kMCiyi5bs35gYKhGw4hIXi5QFRIKXM5AYhREXnuLQlXZCqXMxbmtgXn5hNnA3OZE8ECiATVgxRzCFaWYbLqV21NOO4gYjSouj3KZ4zEhvysCu1K4mZHMmhZslcRKVVQmbS8m5T+LiKOa8xJzTVuaHtHDVSCwswe5Trznk4D0x7Lm0AzFUMXabmbHI2xxFyTRFPIcDL47ctfgY3HqKy3RK7eCNBXA+JarVG26PBAbUdnkXxiYzQUMrNjBVJAz5IfduDGl6mCWA6gjqi8MEVhTI1EXj7e5iDHlijrQ5uGEGjRAqdgYzFTM9ocJoYLzC2Sjz1HJXFUBlSUB3yxcqrqpdlVwcsGEQzW2ArCoiZcECeyI/4hsY38QjXZ2NwMLzGx7DiLW9CNEgywwieCx2sqjI4gM7BFz89zCgVi2+jkledICBLehGKlWUWl8ShjNi2coNnMdlAEQqeX1EmpShwjWSVwas4pWvURKutVp0TA1k9BupZUiozfZB8qAsXqHmuuRcQK/heA9EXe4QhXmXHHosaQiPGMCDZidkatcwZ0wFGIDT6jWxqP8Azi1BInCU7Knb/UGv2FBDg8sDdrjKhxByfm9C0q/FIgps4DmMWTkgoqS1sQOHMFeaiBVmzGZwTpSkoai2ezayyX5caiRTVklfLxFL4BtXWsuglqdUVAVdO2LNku6MgVouB9QAUErlZGCqacTaHS6jugA11KRe47+rkTqgdxpriR4ukH9QXQ5F7lH2BYAhx1KK/WiDzMUzYMBgVaYSvUKoYwE7lpimDxGnFRTMZJjmmYG97GU7o7DkJedJ5bhRLNbOphVLxSx+Mb7hogodwWHR7gC9GWZk3kIOGABaW3CyyGl7hIjSwgoUGjXU5DMCWlEbIsVe4vu9OqtGZhz8L7BhhN7AgDlqVmBkaEiPiDDNoDFsJmscnFHicBaeGohVqlAmT6Yx9yyILgi/AAgR2RZ15FRg2O7ah3pSCpMb3G5ZWBTwR95xUdGYWKRlilt/mFJUUUvmDV3wXg9Q8dxXcLo8Esz8Y974Xct7qQtKbElt8yxFTtiJjOS/JZGjVthlNQBxY9wuzSHO3uAECxBgVdyyvUdDZTnU+aNMBGdhi/mURrOF6gEIWKcQwU/F6o6i/QKHAPXhDG1KUUNr5icqJJS1BcURpfpWzVA1G6EQwqwjUTONiwM8F+ZnpkI28m06i51ANCSx4NMpRWOfH9ipmjQPukdpBLnukN4U5I5ZTeaaTdRtiFZwbycxyJZ2lRlRmonqygA6vzALZlxanXJWIk4B0M5z1cWijZcjjwxzFVFqXqUPMKsNR5tiz4G/iB4iVUqh4uASRQGErJD0AJQZIhOjYUyGiuWHRt6RiVTObYcFBxFTWWcx9N3FM0wpWYABLcXHvRJx3AgCNKXFL5hAoiTiKbuglCrETLpzTqL6sJzrn9RlOJsDi0GsDDecRlEZTn5jsqxhNrT4qIQIH27llDUOIOmxDKkjCoS0eJZwCDLvRCVFsFqV4RUN7y12NbzTBoZCjwB5mrPWItoJh6iwUNYZh9dKkAycS02FgAGRfmKhsb0Ha9x6H0a70BiCgpVNVbrMaGw3zt4fMNiETQrjd7EBdVjDHbtwDO5m1zCJmFq2sqdwd9UptKg7CnJhnQsSxI//ABCU+U5aloEppj2Cj27YjQOIEZByp4Kh9mO3XY/EwNSl2GnuWc1ExNh5xFphoKE0r3BjpkHHzT6jI1C1ZsdMwlUBIHBsiYJeQRsXSmYJsa7yibGdzXnIJUXTo4lW3ERVl7ILWawiCFDFENbICLzbCZtbBWrqnctpoJC8oczAW0UeUXslYnAoWea6l4skCQ9y30wsPw8XHp+SC6FnIGS4m87nh4BxbxHeNlRMXBVJeyIQ5NY3BS0XGEMdVEgASsBp2TBme6gRJvmFqC9y4CPqVL46gAoMysV26gGUOtlxMhqCiChrMV6yGjMqhR83xBr0u5QsCMn2abrI16SgdsGwOceotZOwYSAmlaFpUqTmP9teIZaXoNXi4z3mtYfZcxOVy+2YDIyt8haY1WvCnERsl0HCsCQh2mezlKRyK1A4VgtHDMie4rxLVZ7ht3jiAF+ZmwVmSq8gOPZKQxCGDguC5VNDcEL2PJB7B3RTi5TmctObc/q5c3lDbAyEWLGWmiMDHQMRsDneIMcjaHMDQFZn0uJdYHZwFzdqYE3UAXSlWXKGpXa+fEX+gQ6Ymt/Jw7eUW7okwTFjmEeajXKPzK3nKsS6yjF111fmHEL8SiR7lw5gWr0vJHbih0q0DhiX8ekbJfNyo/QCYPRDFB69Q5+C1ca3EFmp5VBjo5Ee6xDpAUZPuVhoD0+pcbzEwDOe4UNIEXy5iEawaoHn4g88KVk5L4ZTCB4beY2kK0y6abIdZy90OMwGZIEvmCCNwhFQ6aYmsvz3EGtxHCNRLYqKHAwBlGVQCobF4iajTECwQQoxKWidjCdNBmWd1q7gUqqtxSvKKWHbAxp1zwoToxs8gVg6LaiD2kicFI0UK7N0dRIFS0qrImQLSLxLo8BTI3xKQnZY3hVdgaj5zvNMUu2N/K1segnWiAAbWLeCIqgwGmXMViuBtVz2OdSihJVtpQaaZlPUNu+LihXCM+T3Gu+pKB16ioc0Ihj0WUtlkKWleo+c5YoPmDUUywG2CCmKYV1A6JmWM/pFBsAbYjq/3EeVI0zFAdQQTNxMeRLhC5dHuX4DulUg5la4XqKvqWrimCjLKD8CmDqXBRBZXiJnOwMLBkJdixZSVTN1GzMxGtQeGOAuYozbacYUCIOlTUClND7isVWZ7Js/4Wh6liS1Kxtq9zUO6livA7ZpDwFmywiaJjDhrFwIVtgQclsKWcAq2AncZTYNW4QQmomyU7rUF8I2kmk0VUVirjq5ohx4gbMBZtiNp83YBN1B73zA0gVAUw00sNEZrG8TKhXiUSP0IDr44iHCGXhdEKIEP1ErHMoy5uCZJdplt6jk21e4J4YNJQst5ja2QXZCtO5dfGkCxwHU+Sq8IQQ2x7cMJ0KUtAuP4ARf5aLFWdy+wKUiP2iGroFXP7hJq4AzAwSCj+5xKrCAbbZMZDzK7Krq00LnMfQowwsDmItQTkpwHBAFaBvEV1KDA8xx4AG8dQBjTAcuQeJWPewNHN3L2DOkXDbVxyfSFXbuWQSBYLqmU55VcsbhJIDYwOSXNJOgjqV7yCDlmfNNAAHqCZUUKPl5bg8DA32jrzHZNtXyzFipy0eYQCNkBNss1pQWHTHlMBijQXDLr63FLsuBo1Fn/wAIQ/ATlVaROymywuAdyS0wyOFMwYnRCVMwaxwraqNWPJGSNDGR6jMgMqaq7bjU+Ra5YNbGPSmxeTgTeSJ+KwqBNpjFzPkwWsXlyylnlfxugVDaOm1yvB6qoy/OA+8HSVmskYMKqB5eZAjOXMEoQSnVRbm1bBDGBYwc3BJdzDmIDkZng9QVkBBWyBCYWI4pi3a/EVCOJvc1Kjpi4ctRXqXnMcQ3ncNYaDEFR2o2ea5lV4GYQyJxDDQjYK2AlmhATzByiFitgkaYpqyCrWqpZImhQoXDLuyWCv0hukQUVf8AqC9fNnFfwO4dv0tuweBK77HLBSweCUaG4h8eiDCtopaCrlqG3uGXatsokQw28wQqZyDEtqpphdNwO0dEzDBbFvS7LLIAP0ynFnli3hlloYSDs3Ji/O8xA6fBXISyZhsnoQIAQs1jKsrmlAZOUHNwm3CWQHYNHuDnJqUzCjuLcEVopddql6kKze4Yx2ogcrzPAp0dXFBJkHfUvnqA1mVYT/Lo+4qqy4NWSzVSqeGjJnD6OZZ5wAGfV4iVvi5mG/PcEnIqBNQ3sdxIVc8EsoxB2cKElrLlNcuww04wzCZorTxClX5iVEMAorNOYFDNMLPSZhwKLRziNKQsCp35mOrAHrL0kD6ynOmnZXDCvy4BwUYqAFqTWQxSLRYxim+S+IAi5JWhdRtpYB3qDKF+Yr0hmKmSFllzFm3iV4ageGEGUhMkpzGqKmsxQjbBRaIZLbojGOPaaIFPEinn9ETiwFDcjuUu5AwsMvtCqpwoalmt2xRo7gBLQS4R5kFka/lfL3BUWANKw4DzCtlG+BzUcHbFM1Fy7ljuuUlc6ZtO0UYoYreIb5d8CdMvOi2ZJys1cil8xKhXLmWadmzFURKlrvQlQEBLFIKgSwIvZnvEpF0SWiUl0yKGfUzqBkATpdQWNwDy0c0y2mIcL4UX8zmubZDI1qPBZUtfF0jIal5HwviC7gJDa+jiBl4+wavuLBsgqu13EnqMw3C+It/sGOahjI0uBvcruSZBYLXN1E9sLAC4D4iqEvJhua58R93pBxi2YkLPPUJhFOWwrkledggRdPhMRhlg7IaGJTC9QGteETHkxKlb/iA7NLouhwwukKsKGzz5jU6Ao/Jcz3go2PiFVhRB0tglX5MlgvkjT4RYKHGcQbdviezpjZIhsnorsgMS5t7iHY6J1FmpBiSlgYrZkgCi1FljDl3FMU1O0jyGXyGJCFdsXC39xXXe2FZW8sY5yIDHEOjsOOmO6Ah6wpzGihVkVgD1GfoAemdj1L3PTFZwOrjbAw6aeHmIWFvXhisNtW7ggLgENh8RFmaL2lDrbyEtTouX7Jwyl8slPl58yqLC0yJfu0S3fZlovjNtXGwvUQcrsbTcDszeFkMQKbAW0O3xE2AKUb/2MqPjAZQKHCBBLwyB1Dg8t+RiH0jkYaB1EjyckHOI/YQdzPThe4hgFMU0xXzGbxoRB2xpKOdRYF6BgL05W2vJzxA0E7zSzfnmJOKBmK2eUDrEg5tpte4TJ61i3q61AXkBVireYplY4quj/wDZmmujl2GnMsVLLQoTxG03iOnuNS0pq5jn/aheTVxYNgGwZC8VAARNsRzS8CAmUziaTtuWd0hFZkfUZuKkTVTuzuVdTCpX23BiNIArojGvwoU7s4gBwtqtaFu4eKUd4lDFL13E8anAtzi8w5kEIqhY0l2+CL0WMnUM0MkfIKQt2TiNRKbuVeZTlh7WI4SVy3McIIpiLdkPMtI55hIBe2KytsNz2VgnAZgWyhHGdSzUMAKtFvEqqWEXQ63Gb4Vacdqlj9rWdgLVsEXIBsBzT5jCLrIl5gjRRh1NDxL4agtWUbQIRc4HYRscoLTBjnQ4Hx3CBZ9wLVHWoMF3yw1NlmDuEMRkLaBphS7I4M3R4xEnMxlA55rmV9afROaPEbmgowDTcZm8i8nRCDGanPmHUVtUiLKkEiVzXmV1UJibsJZ9EfSANvmWbYI8s7g6gA6wNIcMI+me2NHIcxvOLBTNo1bxB9ikBd5PNhTyZZXp7XB0it0QdNwMqG1UKPYxCsuwcAjgDcKNYN4LZ1GGpyD3MJFSXZeC0I250Vqm5XuaujE7zBcnkkUwhoorAdzTbG5KsHiBFsCCDWWGiiAN7gEWvviqNnL3DUpst1jX+YLYWeyseZhStnLwvuAKBe6UQVjoChLTd4DY1p6iKURUBxCADtUv4UCzELCoWg6l8bQEhTFYdEqUSjmJq7ljWJO4nQXMzaRqioh5M2hRiM4bbjiC1aI1cVVLWyKjFCw37hC4WtoN0G8R1gVCZoQ+eIkNRAMAvP1Kee3maUCO7YBvwTEhS0uvUQAulF6Y7HBW0ZelGtUJTZgRSIq1trHcvCZuio+QCtkagA4h7ULWuYm7A5C4JpUQWL2QXBKLA1mu6itFoJUOXMV/cwNn9IiWmy1DIf4lGWE+5bf3H7miqw19RT1tlsqcyU6yj1ATjcyCHvCGT5uE3g1vDS5ZPnRytniXGzTSLlHnqDnFx2RtDHMsWHwZlq8fUGg6lVU8aLTZbzjghyjFwTRDgIa1DOsVIdWr0jmCQYRw/Mr7Foo0+uiHuACC0YeUuFMsAuh3Gwm4eXZDQjjOA17j6YmYHoHhmn8KGXgfiUsBv4cKziMGgZWpwyxWrAFth0/dz0wA5IVYWJsN8wCWsYLeTnEzjrKUvT4gM82ID0WCqEKpbyauJLtJq+WoqIxmOxuauoX4EELgy5GGNj7gIgxkoqoAuz6mveHyZeYpaHxACJ8THTKJ6R8sKalqnVKYTTVJei4ZVAfOMvSEE5WzByN5gZ9Yj8h4j/NpOGUiHM4GDfJqyAdayN3D0QpqADBLQvrUKg7EGKPeUZ4gOD+CF3FJBQmGoi6QRZ7jtMiTMFWHgrBAoBbaqaUEAnMM2Fk0VMnlFUxogOyw6JdVLK44EHKiy0Z4PUOnHXMFlxu42S6TWbPAJTSNTmirCLIaAt+QBxKm8azI2vDUEzcAO6dxAQoC3ceyZQLkyoqczKfCNpAIbkbdTPvo2Bsh7xG3lxBKweECFN4CoOEMXvBYhHSRI3UPXUcBAlykB00SptFoo77qAR2F6eSOoE3AEvwVFuaLRENnmKpbZQI5D3F2aIC8K7JQ1tUCLdPcc/kjF5QcsR6t6fZUcfiU4dvQsZShQgVTHcWfkCxcl8RMTGgFETbEDSx7gpfyzXhEMMN/XzFcVzcrL+C2TdndRf4QJD/ZxBzXRQm2Cr5oLN7Jb4sIo87ldCsZ/wBTOK+bcrIOV3h9SclDGtYMioVZm8pwhebSgW/KHbS9qKafkjrAPRByD2RhzcYIfL0CagI5cWKIFvfOUbP5S/REygJe0pospgaM+YjWFBVubhzyoql4uG3Fe9aKEOWqi1XY6kcPY6gLV4Fbqmpm6qlKjCViGI/hDl/uBzJSgTtxHaQhDBdHzBsbRMEEcsc2AmhOIkbZQvVbxAl6hVHQRyxPOaq0cXXNRory8pyVUUKQDCbYssqREu5rqK6PbGF4Iv6MeQIH1ERR01VRxAwDdBqNM2SWzWIe+0IlU10fMtfbM5DBWoaAhglvzE/AoKi2KQNAY/cPCySIitTrUWOGog8Hzif/2Q==;sketch=1;curveFitting=1;jiggle=2;shadow=1;imageBorder=#6C8EBF;clipPath=inset(0% 0% 0% 0% round 9%);imageBackground=none;" vertex="1" parent="1">
          <mxGeometry x="353" y="-1060" width="80" height="80" as="geometry" />
        </mxCell>
        <mxCell id="SMO6J86sen-1DYdxAcpB-15" value="Full Stack Developer with Qoohoo [2022]" style="text;html=1;align=left;verticalAlign=middle;whiteSpace=wrap;rounded=0;" vertex="1" parent="1">
          <mxGeometry x="544" y="-1070" width="131" height="20" as="geometry" />
        </mxCell>
        <mxCell id="SMO6J86sen-1DYdxAcpB-17" value="Senior Developer with INDmoney [2022-23]" style="text;html=1;align=center;verticalAlign=middle;whiteSpace=wrap;rounded=0;" vertex="1" parent="1">
          <mxGeometry x="464" y="-940" width="131" height="20" as="geometry" />
        </mxCell>
        <mxCell id="SMO6J86sen-1DYdxAcpB-18" style="edgeStyle=orthogonalEdgeStyle;rounded=0;orthogonalLoop=1;jettySize=auto;html=1;sketch=1;curveFitting=1;jiggle=2;curved=1;fillColor=#dae8fc;strokeColor=#6c8ebf;exitX=1;exitY=0.75;exitDx=0;exitDy=0;" edge="1" parent="1" source="SMO6J86sen-1DYdxAcpB-14" target="SMO6J86sen-1DYdxAcpB-17">
          <mxGeometry relative="1" as="geometry">
            <mxPoint x="443" y="-1010" as="sourcePoint" />
            <mxPoint x="554" y="-1050" as="targetPoint" />
          </mxGeometry>
        </mxCell>
        <mxCell id="SMO6J86sen-1DYdxAcpB-19" value="Founded Purple Shorts [2023-Present]" style="text;html=1;align=center;verticalAlign=middle;whiteSpace=wrap;rounded=0;" vertex="1" parent="1">
          <mxGeometry x="173" y="-920" width="131" height="20" as="geometry" />
        </mxCell>
        <mxCell id="SMO6J86sen-1DYdxAcpB-21" style="edgeStyle=orthogonalEdgeStyle;rounded=0;orthogonalLoop=1;jettySize=auto;html=1;sketch=1;curveFitting=1;jiggle=2;curved=1;fillColor=#dae8fc;strokeColor=#6c8ebf;exitX=0.5;exitY=1;exitDx=0;exitDy=0;entryX=0.5;entryY=0;entryDx=0;entryDy=0;" edge="1" parent="1" source="SMO6J86sen-1DYdxAcpB-14" target="SMO6J86sen-1DYdxAcpB-19">
          <mxGeometry relative="1" as="geometry">
            <mxPoint x="443" y="-990" as="sourcePoint" />
            <mxPoint x="590" y="-920" as="targetPoint" />
          </mxGeometry>
        </mxCell>
        <mxCell id="SMO6J86sen-1DYdxAcpB-25" style="edgeStyle=orthogonalEdgeStyle;rounded=0;orthogonalLoop=1;jettySize=auto;html=1;entryX=0;entryY=0.5;entryDx=0;entryDy=0;sketch=1;curveFitting=1;jiggle=2;curved=1;fillColor=#e1d5e7;strokeColor=#9673a6;exitX=1;exitY=0.25;exitDx=0;exitDy=0;" edge="1" parent="1" source="SMO6J86sen-1DYdxAcpB-22" target="SMO6J86sen-1DYdxAcpB-23">
          <mxGeometry relative="1" as="geometry" />
        </mxCell>
        <mxCell id="SMO6J86sen-1DYdxAcpB-30" style="edgeStyle=orthogonalEdgeStyle;rounded=0;orthogonalLoop=1;jettySize=auto;html=1;exitX=0;exitY=0.25;exitDx=0;exitDy=0;entryX=1;entryY=0.5;entryDx=0;entryDy=0;sketch=1;curveFitting=1;jiggle=2;curved=1;fillColor=#e1d5e7;strokeColor=#9673a6;" edge="1" parent="1" source="SMO6J86sen-1DYdxAcpB-22" target="SMO6J86sen-1DYdxAcpB-29">
          <mxGeometry relative="1" as="geometry" />
        </mxCell>
        <mxCell id="SMO6J86sen-1DYdxAcpB-22" value="Objectives" style="rounded=1;whiteSpace=wrap;html=1;glass=0;shadow=0;sketch=1;curveFitting=1;jiggle=2;fillColor=#e1d5e7;strokeColor=#9673a6;fillStyle=solid;" vertex="1" parent="1">
          <mxGeometry x="364" y="-610" width="120" height="60" as="geometry" />
        </mxCell>
        <mxCell id="SMO6J86sen-1DYdxAcpB-23" value="Get really comfortable with your computers." style="text;html=1;align=left;verticalAlign=middle;whiteSpace=wrap;rounded=0;" vertex="1" parent="1">
          <mxGeometry x="544" y="-690" width="200" height="20" as="geometry" />
        </mxCell>
        <mxCell id="SMO6J86sen-1DYdxAcpB-24" style="edgeStyle=orthogonalEdgeStyle;rounded=0;orthogonalLoop=1;jettySize=auto;html=1;exitX=0.5;exitY=1;exitDx=0;exitDy=0;" edge="1" parent="1" source="SMO6J86sen-1DYdxAcpB-23" target="SMO6J86sen-1DYdxAcpB-23">
          <mxGeometry relative="1" as="geometry" />
        </mxCell>
        <mxCell id="SMO6J86sen-1DYdxAcpB-26" value="Learn how to write production-grade backend REST APIs." style="text;html=1;align=left;verticalAlign=middle;whiteSpace=wrap;rounded=0;" vertex="1" parent="1">
          <mxGeometry x="595" y="-520" width="200" height="20" as="geometry" />
        </mxCell>
        <mxCell id="SMO6J86sen-1DYdxAcpB-27" value="Learn how to develop good web-apps." style="text;html=1;align=center;verticalAlign=middle;whiteSpace=wrap;rounded=0;" vertex="1" parent="1">
          <mxGeometry x="334" y="-420" width="200" height="20" as="geometry" />
        </mxCell>
        <mxCell id="SMO6J86sen-1DYdxAcpB-28" value="Learn how to integrate AI into your code-base." style="text;html=1;align=right;verticalAlign=middle;whiteSpace=wrap;rounded=0;" vertex="1" parent="1">
          <mxGeometry x="63" y="-520" width="200" height="20" as="geometry" />
        </mxCell>
        <mxCell id="SMO6J86sen-1DYdxAcpB-29" value="Learn how to deploy your REST APIs, web-apps and AI-integrations." style="text;html=1;align=right;verticalAlign=middle;whiteSpace=wrap;rounded=0;" vertex="1" parent="1">
          <mxGeometry x="74" y="-680" width="200" height="20" as="geometry" />
        </mxCell>
        <mxCell id="SMO6J86sen-1DYdxAcpB-32" style="edgeStyle=orthogonalEdgeStyle;rounded=0;orthogonalLoop=1;jettySize=auto;html=1;entryX=1;entryY=0.5;entryDx=0;entryDy=0;sketch=1;curveFitting=1;jiggle=2;curved=1;fillColor=#e1d5e7;strokeColor=#9673a6;exitX=0;exitY=0.75;exitDx=0;exitDy=0;" edge="1" parent="1" source="SMO6J86sen-1DYdxAcpB-22" target="SMO6J86sen-1DYdxAcpB-28">
          <mxGeometry relative="1" as="geometry">
            <mxPoint x="494" y="-585" as="sourcePoint" />
            <mxPoint x="554" y="-670" as="targetPoint" />
          </mxGeometry>
        </mxCell>
        <mxCell id="SMO6J86sen-1DYdxAcpB-33" style="edgeStyle=orthogonalEdgeStyle;rounded=0;orthogonalLoop=1;jettySize=auto;html=1;sketch=1;curveFitting=1;jiggle=2;curved=1;fillColor=#e1d5e7;strokeColor=#9673a6;exitX=0.5;exitY=1;exitDx=0;exitDy=0;" edge="1" parent="1" source="SMO6J86sen-1DYdxAcpB-22" target="SMO6J86sen-1DYdxAcpB-27">
          <mxGeometry relative="1" as="geometry">
            <mxPoint x="504" y="-575" as="sourcePoint" />
            <mxPoint x="564" y="-660" as="targetPoint" />
          </mxGeometry>
        </mxCell>
        <mxCell id="SMO6J86sen-1DYdxAcpB-34" style="edgeStyle=orthogonalEdgeStyle;rounded=0;orthogonalLoop=1;jettySize=auto;html=1;entryX=0;entryY=0.5;entryDx=0;entryDy=0;sketch=1;curveFitting=1;jiggle=2;curved=1;fillColor=#e1d5e7;strokeColor=#9673a6;exitX=1;exitY=0.75;exitDx=0;exitDy=0;" edge="1" parent="1" source="SMO6J86sen-1DYdxAcpB-22" target="SMO6J86sen-1DYdxAcpB-26">
          <mxGeometry relative="1" as="geometry">
            <mxPoint x="514" y="-565" as="sourcePoint" />
            <mxPoint x="574" y="-650" as="targetPoint" />
          </mxGeometry>
        </mxCell>
        <mxCell id="SMO6J86sen-1DYdxAcpB-35" value="Acing your GitHub game" style="text;html=1;align=left;verticalAlign=middle;whiteSpace=wrap;rounded=0;" vertex="1" parent="1">
          <mxGeometry x="534" width="190" height="20" as="geometry" />
        </mxCell>
        <mxCell id="SMO6J86sen-1DYdxAcpB-36" value="Acing your LinkedIn game" style="text;html=1;align=left;verticalAlign=middle;whiteSpace=wrap;rounded=0;" vertex="1" parent="1">
          <mxGeometry x="465" y="90" width="190" height="20" as="geometry" />
        </mxCell>
        <mxCell id="SMO6J86sen-1DYdxAcpB-37" value="Where do programmers hang out?" style="text;html=1;align=left;verticalAlign=middle;whiteSpace=wrap;rounded=0;" vertex="1" parent="1">
          <mxGeometry x="173" y="100" width="190" height="20" as="geometry" />
        </mxCell>
        <mxCell id="SMO6J86sen-1DYdxAcpB-38" style="edgeStyle=orthogonalEdgeStyle;rounded=0;orthogonalLoop=1;jettySize=auto;html=1;entryX=0;entryY=0.5;entryDx=0;entryDy=0;curved=1;sketch=1;curveFitting=1;jiggle=2;fillColor=#dae8fc;strokeColor=#6c8ebf;exitX=1;exitY=0.5;exitDx=0;exitDy=0;" edge="1" parent="1" source="SMO6J86sen-1DYdxAcpB-1" target="SMO6J86sen-1DYdxAcpB-35">
          <mxGeometry relative="1" as="geometry">
            <mxPoint x="284" y="15" as="sourcePoint" />
            <mxPoint x="354" y="-85" as="targetPoint" />
          </mxGeometry>
        </mxCell>
        <mxCell id="SMO6J86sen-1DYdxAcpB-41" style="edgeStyle=orthogonalEdgeStyle;rounded=0;orthogonalLoop=1;jettySize=auto;html=1;entryX=0;entryY=0.5;entryDx=0;entryDy=0;curved=1;sketch=1;curveFitting=1;jiggle=2;fillColor=#dae8fc;strokeColor=#6c8ebf;exitX=0.75;exitY=1;exitDx=0;exitDy=0;" edge="1" parent="1" source="SMO6J86sen-1DYdxAcpB-1" target="SMO6J86sen-1DYdxAcpB-36">
          <mxGeometry relative="1" as="geometry">
            <mxPoint x="284" y="15" as="sourcePoint" />
            <mxPoint x="384" y="-40" as="targetPoint" />
          </mxGeometry>
        </mxCell>
        <mxCell id="SMO6J86sen-1DYdxAcpB-42" style="edgeStyle=orthogonalEdgeStyle;rounded=0;orthogonalLoop=1;jettySize=auto;html=1;entryX=0.5;entryY=0;entryDx=0;entryDy=0;curved=1;sketch=1;curveFitting=1;jiggle=2;fillColor=#dae8fc;strokeColor=#6c8ebf;exitX=0.25;exitY=1;exitDx=0;exitDy=0;" edge="1" parent="1" source="SMO6J86sen-1DYdxAcpB-1" target="SMO6J86sen-1DYdxAcpB-37">
          <mxGeometry relative="1" as="geometry">
            <mxPoint x="284" y="30" as="sourcePoint" />
            <mxPoint x="374" y="10" as="targetPoint" />
          </mxGeometry>
        </mxCell>
        <mxCell id="SMO6J86sen-1DYdxAcpB-44" style="edgeStyle=orthogonalEdgeStyle;rounded=0;orthogonalLoop=1;jettySize=auto;html=1;entryX=0.5;entryY=1;entryDx=0;entryDy=0;curved=1;sketch=1;curveFitting=1;jiggle=2;fillColor=#fff2cc;strokeColor=#d6b656;exitX=0;exitY=0.5;exitDx=0;exitDy=0;" edge="1" parent="1" source="SMO6J86sen-1DYdxAcpB-46" target="SMO6J86sen-1DYdxAcpB-47">
          <mxGeometry relative="1" as="geometry" />
        </mxCell>
        <mxCell id="SMO6J86sen-1DYdxAcpB-45" style="edgeStyle=orthogonalEdgeStyle;rounded=0;orthogonalLoop=1;jettySize=auto;html=1;entryX=0.5;entryY=1;entryDx=0;entryDy=0;curved=1;sketch=1;curveFitting=1;jiggle=2;fillColor=#fff2cc;strokeColor=#d6b656;exitX=1;exitY=0.25;exitDx=0;exitDy=0;" edge="1" parent="1" source="SMO6J86sen-1DYdxAcpB-46" target="SMO6J86sen-1DYdxAcpB-48">
          <mxGeometry relative="1" as="geometry" />
        </mxCell>
        <mxCell id="SMO6J86sen-1DYdxAcpB-57" style="edgeStyle=orthogonalEdgeStyle;rounded=0;orthogonalLoop=1;jettySize=auto;html=1;exitX=0.25;exitY=0;exitDx=0;exitDy=0;curved=1;sketch=1;curveFitting=1;jiggle=2;fillColor=#fff2cc;strokeColor=#d6b656;" edge="1" parent="1" source="SMO6J86sen-1DYdxAcpB-46" target="SMO6J86sen-1DYdxAcpB-56">
          <mxGeometry relative="1" as="geometry" />
        </mxCell>
        <mxCell id="SMO6J86sen-1DYdxAcpB-46" value="&lt;div&gt;Module #2&lt;/div&gt;&lt;div&gt;BackEnd&lt;/div&gt;Week 02, 03, 04" style="rounded=1;whiteSpace=wrap;html=1;glass=0;shadow=1;sketch=1;curveFitting=1;jiggle=2;fillColor=#fff2cc;strokeColor=#d6b656;fillStyle=solid;fontStyle=1" vertex="1" parent="1">
          <mxGeometry x="338.5" y="500" width="120" height="60" as="geometry" />
        </mxCell>
        <mxCell id="SMO6J86sen-1DYdxAcpB-47" value="&lt;span style=&quot;text-align: left;&quot;&gt;Introduction to&amp;nbsp;&lt;/span&gt;Drizzle" style="text;html=1;align=center;verticalAlign=middle;whiteSpace=wrap;rounded=0;" vertex="1" parent="1">
          <mxGeometry x="33" y="480" width="220" height="30" as="geometry" />
        </mxCell>
        <mxCell id="SMO6J86sen-1DYdxAcpB-48" value="Basic installation" style="text;html=1;align=center;verticalAlign=middle;whiteSpace=wrap;rounded=0;" vertex="1" parent="1">
          <mxGeometry x="424.5" y="370" width="190" height="20" as="geometry" />
        </mxCell>
        <mxCell id="SMO6J86sen-1DYdxAcpB-49" value="Introduction to Node.js" style="text;html=1;align=left;verticalAlign=middle;whiteSpace=wrap;rounded=0;" vertex="1" parent="1">
          <mxGeometry x="543.5" y="520" width="190" height="20" as="geometry" />
        </mxCell>
        <mxCell id="SMO6J86sen-1DYdxAcpB-50" value="Introduction to&amp;nbsp;Hono" style="text;html=1;align=left;verticalAlign=middle;whiteSpace=wrap;rounded=0;" vertex="1" parent="1">
          <mxGeometry x="564" y="600" width="190" height="20" as="geometry" />
        </mxCell>
        <mxCell id="SMO6J86sen-1DYdxAcpB-51" value="&lt;span style=&quot;text-align: left;&quot;&gt;Introduction to&amp;nbsp;&lt;/span&gt;PostgreSQL" style="text;html=1;align=center;verticalAlign=middle;whiteSpace=wrap;rounded=0;" vertex="1" parent="1">
          <mxGeometry x="63" y="600" width="190" height="20" as="geometry" />
        </mxCell>
        <mxCell id="SMO6J86sen-1DYdxAcpB-52" style="edgeStyle=orthogonalEdgeStyle;rounded=0;orthogonalLoop=1;jettySize=auto;html=1;entryX=0;entryY=0.5;entryDx=0;entryDy=0;curved=1;sketch=1;curveFitting=1;jiggle=2;fillColor=#fff2cc;strokeColor=#d6b656;exitX=1;exitY=0.5;exitDx=0;exitDy=0;" edge="1" parent="1" source="SMO6J86sen-1DYdxAcpB-46" target="SMO6J86sen-1DYdxAcpB-49">
          <mxGeometry relative="1" as="geometry">
            <mxPoint x="293.5" y="535" as="sourcePoint" />
            <mxPoint x="363.5" y="435" as="targetPoint" />
          </mxGeometry>
        </mxCell>
        <mxCell id="SMO6J86sen-1DYdxAcpB-53" style="edgeStyle=orthogonalEdgeStyle;rounded=0;orthogonalLoop=1;jettySize=auto;html=1;entryX=0;entryY=0.5;entryDx=0;entryDy=0;curved=1;sketch=1;curveFitting=1;jiggle=2;fillColor=#fff2cc;strokeColor=#d6b656;exitX=0.75;exitY=1;exitDx=0;exitDy=0;" edge="1" parent="1" source="SMO6J86sen-1DYdxAcpB-46" target="SMO6J86sen-1DYdxAcpB-50">
          <mxGeometry relative="1" as="geometry">
            <mxPoint x="293.5" y="535" as="sourcePoint" />
            <mxPoint x="393.5" y="480" as="targetPoint" />
          </mxGeometry>
        </mxCell>
        <mxCell id="SMO6J86sen-1DYdxAcpB-54" style="edgeStyle=orthogonalEdgeStyle;rounded=0;orthogonalLoop=1;jettySize=auto;html=1;entryX=0.5;entryY=0;entryDx=0;entryDy=0;curved=1;sketch=1;curveFitting=1;jiggle=2;fillColor=#fff2cc;strokeColor=#d6b656;exitX=0.25;exitY=1;exitDx=0;exitDy=0;" edge="1" parent="1" source="SMO6J86sen-1DYdxAcpB-46" target="SMO6J86sen-1DYdxAcpB-51">
          <mxGeometry relative="1" as="geometry">
            <mxPoint x="293.5" y="550" as="sourcePoint" />
            <mxPoint x="383.5" y="530" as="targetPoint" />
          </mxGeometry>
        </mxCell>
        <mxCell id="SMO6J86sen-1DYdxAcpB-56" value="&lt;span style=&quot;text-align: left;&quot;&gt;Introduction to&amp;nbsp;&lt;/span&gt;Firebase" style="text;html=1;align=center;verticalAlign=middle;whiteSpace=wrap;rounded=0;" vertex="1" parent="1">
          <mxGeometry x="163" y="370" width="190" height="20" as="geometry" />
        </mxCell>
        <mxCell id="SMO6J86sen-1DYdxAcpB-58" style="edgeStyle=orthogonalEdgeStyle;rounded=0;orthogonalLoop=1;jettySize=auto;html=1;entryX=0.5;entryY=0;entryDx=0;entryDy=0;curved=1;sketch=1;curveFitting=1;jiggle=2;fillColor=#fff2cc;strokeColor=#d6b656;exitX=0.5;exitY=1;exitDx=0;exitDy=0;" edge="1" parent="1" source="SMO6J86sen-1DYdxAcpB-46" target="SMO6J86sen-1DYdxAcpB-59">
          <mxGeometry relative="1" as="geometry">
            <mxPoint x="379" y="570" as="sourcePoint" />
            <mxPoint x="409" y="670" as="targetPoint" />
          </mxGeometry>
        </mxCell>
        <mxCell id="SMO6J86sen-1DYdxAcpB-59" value="&lt;span style=&quot;text-align: left;&quot;&gt;HackerNews API Replication&lt;/span&gt;" style="rounded=1;whiteSpace=wrap;html=1;glass=0;shadow=0;sketch=1;curveFitting=1;jiggle=2;fillStyle=solid;fillColor=#fff2cc;strokeColor=#d6b656;fontStyle=1;gradientColor=none;" vertex="1" parent="1">
          <mxGeometry x="314" y="640" width="180" height="30" as="geometry" />
        </mxCell>
        <mxCell id="SMO6J86sen-1DYdxAcpB-60" value="&lt;div style=&quot;text-align: left;&quot;&gt;&lt;span style=&quot;background-color: transparent; color: light-dark(rgb(0, 0, 0), rgb(255, 255, 255));&quot;&gt;460 modules of TypingClub.com&lt;/span&gt;&lt;/div&gt;" style="rounded=1;whiteSpace=wrap;html=1;glass=0;shadow=0;sketch=1;curveFitting=1;jiggle=2;fillStyle=solid;fillColor=#dae8fc;strokeColor=#6c8ebf;fontStyle=1;" vertex="1" parent="1">
          <mxGeometry x="279" y="160" width="205" height="30" as="geometry" />
        </mxCell>
        <mxCell id="SMO6J86sen-1DYdxAcpB-61" style="edgeStyle=orthogonalEdgeStyle;rounded=0;orthogonalLoop=1;jettySize=auto;html=1;curved=1;sketch=1;curveFitting=1;jiggle=2;fillColor=#dae8fc;strokeColor=#6c8ebf;exitX=0.5;exitY=1;exitDx=0;exitDy=0;" edge="1" parent="1" source="SMO6J86sen-1DYdxAcpB-1" target="SMO6J86sen-1DYdxAcpB-60">
          <mxGeometry relative="1" as="geometry">
            <mxPoint x="429" y="50" as="sourcePoint" />
            <mxPoint x="475" y="110" as="targetPoint" />
          </mxGeometry>
        </mxCell>
        <mxCell id="SMO6J86sen-1DYdxAcpB-75" style="edgeStyle=orthogonalEdgeStyle;rounded=0;orthogonalLoop=1;jettySize=auto;html=1;entryX=0.5;entryY=1;entryDx=0;entryDy=0;curved=1;sketch=1;curveFitting=1;jiggle=2;fillColor=#e1d5e7;strokeColor=#9673a6;exitX=0.75;exitY=0;exitDx=0;exitDy=0;" edge="1" source="SMO6J86sen-1DYdxAcpB-77" target="SMO6J86sen-1DYdxAcpB-79" parent="1">
          <mxGeometry relative="1" as="geometry" />
        </mxCell>
        <mxCell id="SMO6J86sen-1DYdxAcpB-92" style="edgeStyle=orthogonalEdgeStyle;rounded=0;orthogonalLoop=1;jettySize=auto;html=1;exitX=1;exitY=0.75;exitDx=0;exitDy=0;entryX=0;entryY=0.5;entryDx=0;entryDy=0;curved=1;sketch=1;curveFitting=1;jiggle=2;fillColor=#e1d5e7;strokeColor=#9673a6;" edge="1" parent="1" source="SMO6J86sen-1DYdxAcpB-77" target="SMO6J86sen-1DYdxAcpB-91">
          <mxGeometry relative="1" as="geometry" />
        </mxCell>
        <mxCell id="SMO6J86sen-1DYdxAcpB-77" value="&lt;div&gt;Module #3&lt;/div&gt;&lt;div&gt;Web FrontEnd&lt;/div&gt;Week 05, 06, 07" style="rounded=1;whiteSpace=wrap;html=1;glass=0;shadow=1;sketch=1;curveFitting=1;jiggle=2;fillColor=#e1d5e7;strokeColor=#9673a6;fillStyle=solid;fontStyle=1" vertex="1" parent="1">
          <mxGeometry x="338.5" y="960" width="120" height="60" as="geometry" />
        </mxCell>
        <mxCell id="SMO6J86sen-1DYdxAcpB-79" value="Basic installation" style="text;html=1;align=center;verticalAlign=middle;whiteSpace=wrap;rounded=0;" vertex="1" parent="1">
          <mxGeometry x="424.5" y="830" width="190" height="20" as="geometry" />
        </mxCell>
        <mxCell id="SMO6J86sen-1DYdxAcpB-80" value="Introduction to React.js" style="text;html=1;align=right;verticalAlign=middle;whiteSpace=wrap;rounded=0;" vertex="1" parent="1">
          <mxGeometry x="79" y="1050" width="190" height="20" as="geometry" />
        </mxCell>
        <mxCell id="SMO6J86sen-1DYdxAcpB-81" value="Introduction to&amp;nbsp;Next.js" style="text;html=1;align=center;verticalAlign=middle;whiteSpace=wrap;rounded=0;" vertex="1" parent="1">
          <mxGeometry x="128.5" y="910" width="190" height="20" as="geometry" />
        </mxCell>
        <mxCell id="SMO6J86sen-1DYdxAcpB-83" style="edgeStyle=orthogonalEdgeStyle;rounded=0;orthogonalLoop=1;jettySize=auto;html=1;entryX=1;entryY=0.5;entryDx=0;entryDy=0;curved=1;sketch=1;curveFitting=1;jiggle=2;fillColor=#e1d5e7;strokeColor=#9673a6;exitX=0;exitY=0.75;exitDx=0;exitDy=0;" edge="1" source="SMO6J86sen-1DYdxAcpB-77" target="SMO6J86sen-1DYdxAcpB-80" parent="1">
          <mxGeometry relative="1" as="geometry">
            <mxPoint x="293.5" y="995" as="sourcePoint" />
            <mxPoint x="363.5" y="895" as="targetPoint" />
          </mxGeometry>
        </mxCell>
        <mxCell id="SMO6J86sen-1DYdxAcpB-84" style="edgeStyle=orthogonalEdgeStyle;rounded=0;orthogonalLoop=1;jettySize=auto;html=1;entryX=0.5;entryY=1;entryDx=0;entryDy=0;curved=1;sketch=1;curveFitting=1;jiggle=2;fillColor=#e1d5e7;strokeColor=#9673a6;exitX=0;exitY=0.25;exitDx=0;exitDy=0;" edge="1" source="SMO6J86sen-1DYdxAcpB-77" target="SMO6J86sen-1DYdxAcpB-81" parent="1">
          <mxGeometry relative="1" as="geometry">
            <mxPoint x="293.5" y="995" as="sourcePoint" />
            <mxPoint x="393.5" y="940" as="targetPoint" />
          </mxGeometry>
        </mxCell>
        <mxCell id="SMO6J86sen-1DYdxAcpB-87" style="edgeStyle=orthogonalEdgeStyle;rounded=0;orthogonalLoop=1;jettySize=auto;html=1;entryX=0.5;entryY=0;entryDx=0;entryDy=0;curved=1;sketch=1;curveFitting=1;jiggle=2;fillColor=#e1d5e7;strokeColor=#9673a6;exitX=0.5;exitY=1;exitDx=0;exitDy=0;" edge="1" source="SMO6J86sen-1DYdxAcpB-77" target="SMO6J86sen-1DYdxAcpB-88" parent="1">
          <mxGeometry relative="1" as="geometry">
            <mxPoint x="379" y="1030" as="sourcePoint" />
            <mxPoint x="409" y="1130" as="targetPoint" />
          </mxGeometry>
        </mxCell>
        <mxCell id="SMO6J86sen-1DYdxAcpB-88" value="&lt;span style=&quot;text-align: left;&quot;&gt;HackerNews UI Replication&lt;/span&gt;" style="rounded=1;whiteSpace=wrap;html=1;glass=0;shadow=0;sketch=1;curveFitting=1;jiggle=2;fillStyle=solid;fillColor=#e1d5e7;strokeColor=#9673a6;fontStyle=1;" vertex="1" parent="1">
          <mxGeometry x="308.5" y="1100" width="180" height="30" as="geometry" />
        </mxCell>
        <mxCell id="SMO6J86sen-1DYdxAcpB-89" value="Introduction to Vercel" style="text;html=1;align=left;verticalAlign=middle;whiteSpace=wrap;rounded=0;" vertex="1" parent="1">
          <mxGeometry x="543.5" y="940" width="190" height="20" as="geometry" />
        </mxCell>
        <mxCell id="SMO6J86sen-1DYdxAcpB-90" style="edgeStyle=orthogonalEdgeStyle;rounded=0;orthogonalLoop=1;jettySize=auto;html=1;entryX=0;entryY=0.5;entryDx=0;entryDy=0;curved=1;sketch=1;curveFitting=1;jiggle=2;fillColor=#e1d5e7;strokeColor=#9673a6;exitX=1;exitY=0.25;exitDx=0;exitDy=0;" edge="1" parent="1" source="SMO6J86sen-1DYdxAcpB-77" target="SMO6J86sen-1DYdxAcpB-89">
          <mxGeometry relative="1" as="geometry">
            <mxPoint x="438.5" y="1030" as="sourcePoint" />
            <mxPoint x="553.5" y="1070" as="targetPoint" />
          </mxGeometry>
        </mxCell>
        <mxCell id="SMO6J86sen-1DYdxAcpB-91" value="Introduction to TailwindCSS" style="text;html=1;align=left;verticalAlign=middle;whiteSpace=wrap;rounded=0;" vertex="1" parent="1">
          <mxGeometry x="524" y="1030" width="190" height="20" as="geometry" />
        </mxCell>
        <mxCell id="SMO6J86sen-1DYdxAcpB-93" style="edgeStyle=orthogonalEdgeStyle;rounded=0;orthogonalLoop=1;jettySize=auto;html=1;entryX=0.5;entryY=1;entryDx=0;entryDy=0;curved=1;sketch=1;curveFitting=1;jiggle=2;fillColor=#f8cecc;strokeColor=#b85450;exitX=0.75;exitY=0;exitDx=0;exitDy=0;" edge="1" source="SMO6J86sen-1DYdxAcpB-95" target="SMO6J86sen-1DYdxAcpB-96" parent="1">
          <mxGeometry relative="1" as="geometry" />
        </mxCell>
        <mxCell id="SMO6J86sen-1DYdxAcpB-94" style="edgeStyle=orthogonalEdgeStyle;rounded=0;orthogonalLoop=1;jettySize=auto;html=1;exitX=1;exitY=0.75;exitDx=0;exitDy=0;entryX=0;entryY=0.5;entryDx=0;entryDy=0;curved=1;sketch=1;curveFitting=1;jiggle=2;fillColor=#f8cecc;strokeColor=#b85450;" edge="1" source="SMO6J86sen-1DYdxAcpB-95" target="SMO6J86sen-1DYdxAcpB-104" parent="1">
          <mxGeometry relative="1" as="geometry" />
        </mxCell>
        <mxCell id="SMO6J86sen-1DYdxAcpB-95" value="&lt;div&gt;Module #4&lt;/div&gt;&lt;div&gt;DevOps&lt;/div&gt;Week 08" style="rounded=1;whiteSpace=wrap;html=1;glass=0;shadow=1;sketch=1;curveFitting=1;jiggle=2;fillColor=#f8cecc;strokeColor=#b85450;fillStyle=solid;fontStyle=1" vertex="1" parent="1">
          <mxGeometry x="358" y="1360" width="120" height="60" as="geometry" />
        </mxCell>
        <mxCell id="SMO6J86sen-1DYdxAcpB-96" value="Basic installation" style="text;html=1;align=center;verticalAlign=middle;whiteSpace=wrap;rounded=0;" vertex="1" parent="1">
          <mxGeometry x="444" y="1230" width="190" height="20" as="geometry" />
        </mxCell>
        <mxCell id="SMO6J86sen-1DYdxAcpB-97" value="Deploying of backend REST APIs to Azure" style="text;html=1;align=right;verticalAlign=middle;whiteSpace=wrap;rounded=0;" vertex="1" parent="1">
          <mxGeometry x="98.5" y="1340" width="190" height="20" as="geometry" />
        </mxCell>
        <mxCell id="SMO6J86sen-1DYdxAcpB-99" style="edgeStyle=orthogonalEdgeStyle;rounded=0;orthogonalLoop=1;jettySize=auto;html=1;entryX=1;entryY=0.5;entryDx=0;entryDy=0;curved=1;sketch=1;curveFitting=1;jiggle=2;fillColor=#f8cecc;strokeColor=#b85450;exitX=0;exitY=0.75;exitDx=0;exitDy=0;" edge="1" source="SMO6J86sen-1DYdxAcpB-95" target="SMO6J86sen-1DYdxAcpB-97" parent="1">
          <mxGeometry relative="1" as="geometry">
            <mxPoint x="313" y="1395" as="sourcePoint" />
            <mxPoint x="383" y="1295" as="targetPoint" />
          </mxGeometry>
        </mxCell>
        <mxCell id="SMO6J86sen-1DYdxAcpB-101" style="edgeStyle=orthogonalEdgeStyle;rounded=0;orthogonalLoop=1;jettySize=auto;html=1;entryX=0.5;entryY=0;entryDx=0;entryDy=0;curved=1;sketch=1;curveFitting=1;jiggle=2;fillColor=#f8cecc;strokeColor=#b85450;exitX=0.5;exitY=1;exitDx=0;exitDy=0;" edge="1" source="SMO6J86sen-1DYdxAcpB-95" target="SMO6J86sen-1DYdxAcpB-102" parent="1">
          <mxGeometry relative="1" as="geometry">
            <mxPoint x="398.5" y="1430" as="sourcePoint" />
            <mxPoint x="428.5" y="1530" as="targetPoint" />
          </mxGeometry>
        </mxCell>
        <mxCell id="SMO6J86sen-1DYdxAcpB-102" value="&lt;span style=&quot;text-align: left;&quot;&gt;HackerNews API deployment&lt;/span&gt;" style="rounded=1;whiteSpace=wrap;html=1;glass=0;shadow=0;sketch=1;curveFitting=1;jiggle=2;fillStyle=solid;fillColor=#f8cecc;strokeColor=#b85450;fontStyle=1;" vertex="1" parent="1">
          <mxGeometry x="328" y="1500" width="180" height="30" as="geometry" />
        </mxCell>
        <mxCell id="SMO6J86sen-1DYdxAcpB-104" value="Introduction to Docker &amp;amp; dockerization." style="text;html=1;align=left;verticalAlign=middle;whiteSpace=wrap;rounded=0;" vertex="1" parent="1">
          <mxGeometry x="543.5" y="1430" width="190" height="30" as="geometry" />
        </mxCell>
      </root>
    </mxGraphModel>
  </diagram>
</mxfile>
